<?xml version="1.0" encoding="utf-8" standalone="no"?>
<!DOCTYPE svg PUBLIC "-//W3C//DTD SVG 1.1//EN"
  "http://www.w3.org/Graphics/SVG/1.1/DTD/svg11.dtd">
<!-- Created with matplotlib (http://matplotlib.org/) -->
<svg height="1243pt" version="1.1" viewBox="0 0 2302 1243" width="2302pt" xmlns="http://www.w3.org/2000/svg" xmlns:xlink="http://www.w3.org/1999/xlink">
 <defs>
  <style type="text/css">
*{stroke-linecap:butt;stroke-linejoin:round;}
  </style>
 </defs>
 <g id="figure_1">
  <g id="patch_1">
   <path d="M 0 1243.44 
L 2302.56 1243.44 
L 2302.56 0 
L 0 0 
z
" style="fill:#ffffff;"/>
  </g>
  <g id="axes_1">
   <g id="patch_2">
    <path d="M 287.82 1119.096 
L 287.82 124.344 
" style="fill:none;stroke:#000000;stroke-linecap:square;stroke-linejoin:miter;stroke-width:0.8;"/>
   </g>
   <g id="patch_3">
    <path d="M 2072.304 1119.096 
L 2072.304 124.344 
" style="fill:none;stroke:#000000;stroke-linecap:square;stroke-linejoin:miter;stroke-width:0.8;"/>
   </g>
   <g id="patch_4">
    <path d="M 287.82 1119.096 
L 2072.304 1119.096 
" style="fill:none;stroke:#000000;stroke-linecap:square;stroke-linejoin:miter;stroke-width:0.8;"/>
   </g>
   <g id="patch_5">
    <path d="M 287.82 124.344 
L 2072.304 124.344 
" style="fill:none;stroke:#000000;stroke-linecap:square;stroke-linejoin:miter;stroke-width:0.8;"/>
   </g>
  </g>
  <g id="axes_2">
   <g id="patch_6">
    <path d="M 287.82 1119.096 
L 2072.304 1119.096 
L 2072.304 124.344 
L 287.82 124.344 
z
" style="fill:none;"/>
   </g>
   <g id="matplotlib.axis_1">
    <g id="xtick_1">
     <g id="line2d_1">
      <path clip-path="url(#p57aeba544e)" d="M 305.314941 1119.096 
L 305.314941 124.344 
" style="fill:none;stroke:#000000;stroke-dasharray:1.85,0.8;stroke-dashoffset:0;stroke-width:0.5;"/>
     </g>
     <g id="line2d_2">
      <defs>
       <path d="M 0 0 
L 0 3.5 
" id="mdf7c3d0515" style="stroke:#000000;stroke-width:0.8;"/>
      </defs>
      <g>
       <use style="stroke:#000000;stroke-width:0.8;" x="305.314941" xlink:href="#mdf7c3d0515" y="1119.096"/>
      </g>
     </g>
     <g id="text_1">
      <!-- 0 -->
      <defs>
       <path d="M 31.78125 66.40625 
Q 24.171875 66.40625 20.328125 58.90625 
Q 16.5 51.421875 16.5 36.375 
Q 16.5 21.390625 20.328125 13.890625 
Q 24.171875 6.390625 31.78125 6.390625 
Q 39.453125 6.390625 43.28125 13.890625 
Q 47.125 21.390625 47.125 36.375 
Q 47.125 51.421875 43.28125 58.90625 
Q 39.453125 66.40625 31.78125 66.40625 
z
M 31.78125 74.21875 
Q 44.046875 74.21875 50.515625 64.515625 
Q 56.984375 54.828125 56.984375 36.375 
Q 56.984375 17.96875 50.515625 8.265625 
Q 44.046875 -1.421875 31.78125 -1.421875 
Q 19.53125 -1.421875 13.0625 8.265625 
Q 6.59375 17.96875 6.59375 36.375 
Q 6.59375 54.828125 13.0625 64.515625 
Q 19.53125 74.21875 31.78125 74.21875 
z
" id="DejaVuSans-30"/>
      </defs>
      <g transform="translate(300.543066 1137.493656)scale(0.15 -0.15)">
       <use xlink:href="#DejaVuSans-30"/>
      </g>
     </g>
    </g>
    <g id="xtick_2">
     <g id="line2d_3">
      <path clip-path="url(#p57aeba544e)" d="M 513.58805 1119.096 
L 513.58805 124.344 
" style="fill:none;stroke:#000000;stroke-dasharray:1.85,0.8;stroke-dashoffset:0;stroke-width:0.5;"/>
     </g>
     <g id="line2d_4">
      <g>
       <use style="stroke:#000000;stroke-width:0.8;" x="513.58805" xlink:href="#mdf7c3d0515" y="1119.096"/>
      </g>
     </g>
     <g id="text_2">
      <!-- 1 -->
      <defs>
       <path d="M 12.40625 8.296875 
L 28.515625 8.296875 
L 28.515625 63.921875 
L 10.984375 60.40625 
L 10.984375 69.390625 
L 28.421875 72.90625 
L 38.28125 72.90625 
L 38.28125 8.296875 
L 54.390625 8.296875 
L 54.390625 0 
L 12.40625 0 
z
" id="DejaVuSans-31"/>
      </defs>
      <g transform="translate(508.816175 1137.493656)scale(0.15 -0.15)">
       <use xlink:href="#DejaVuSans-31"/>
      </g>
     </g>
    </g>
    <g id="xtick_3">
     <g id="line2d_5">
      <path clip-path="url(#p57aeba544e)" d="M 721.86116 1119.096 
L 721.86116 124.344 
" style="fill:none;stroke:#000000;stroke-dasharray:1.85,0.8;stroke-dashoffset:0;stroke-width:0.5;"/>
     </g>
     <g id="line2d_6">
      <g>
       <use style="stroke:#000000;stroke-width:0.8;" x="721.86116" xlink:href="#mdf7c3d0515" y="1119.096"/>
      </g>
     </g>
     <g id="text_3">
      <!-- 2 -->
      <defs>
       <path d="M 19.1875 8.296875 
L 53.609375 8.296875 
L 53.609375 0 
L 7.328125 0 
L 7.328125 8.296875 
Q 12.9375 14.109375 22.625 23.890625 
Q 32.328125 33.6875 34.8125 36.53125 
Q 39.546875 41.84375 41.421875 45.53125 
Q 43.3125 49.21875 43.3125 52.78125 
Q 43.3125 58.59375 39.234375 62.25 
Q 35.15625 65.921875 28.609375 65.921875 
Q 23.96875 65.921875 18.8125 64.3125 
Q 13.671875 62.703125 7.8125 59.421875 
L 7.8125 69.390625 
Q 13.765625 71.78125 18.9375 73 
Q 24.125 74.21875 28.421875 74.21875 
Q 39.75 74.21875 46.484375 68.546875 
Q 53.21875 62.890625 53.21875 53.421875 
Q 53.21875 48.921875 51.53125 44.890625 
Q 49.859375 40.875 45.40625 35.40625 
Q 44.1875 33.984375 37.640625 27.21875 
Q 31.109375 20.453125 19.1875 8.296875 
z
" id="DejaVuSans-32"/>
      </defs>
      <g transform="translate(717.089285 1137.493656)scale(0.15 -0.15)">
       <use xlink:href="#DejaVuSans-32"/>
      </g>
     </g>
    </g>
    <g id="xtick_4">
     <g id="line2d_7">
      <path clip-path="url(#p57aeba544e)" d="M 930.134269 1119.096 
L 930.134269 124.344 
" style="fill:none;stroke:#000000;stroke-dasharray:1.85,0.8;stroke-dashoffset:0;stroke-width:0.5;"/>
     </g>
     <g id="line2d_8">
      <g>
       <use style="stroke:#000000;stroke-width:0.8;" x="930.134269" xlink:href="#mdf7c3d0515" y="1119.096"/>
      </g>
     </g>
     <g id="text_4">
      <!-- 3 -->
      <defs>
       <path d="M 40.578125 39.3125 
Q 47.65625 37.796875 51.625 33 
Q 55.609375 28.21875 55.609375 21.1875 
Q 55.609375 10.40625 48.1875 4.484375 
Q 40.765625 -1.421875 27.09375 -1.421875 
Q 22.515625 -1.421875 17.65625 -0.515625 
Q 12.796875 0.390625 7.625 2.203125 
L 7.625 11.71875 
Q 11.71875 9.328125 16.59375 8.109375 
Q 21.484375 6.890625 26.8125 6.890625 
Q 36.078125 6.890625 40.9375 10.546875 
Q 45.796875 14.203125 45.796875 21.1875 
Q 45.796875 27.640625 41.28125 31.265625 
Q 36.765625 34.90625 28.71875 34.90625 
L 20.21875 34.90625 
L 20.21875 43.015625 
L 29.109375 43.015625 
Q 36.375 43.015625 40.234375 45.921875 
Q 44.09375 48.828125 44.09375 54.296875 
Q 44.09375 59.90625 40.109375 62.90625 
Q 36.140625 65.921875 28.71875 65.921875 
Q 24.65625 65.921875 20.015625 65.03125 
Q 15.375 64.15625 9.8125 62.3125 
L 9.8125 71.09375 
Q 15.4375 72.65625 20.34375 73.4375 
Q 25.25 74.21875 29.59375 74.21875 
Q 40.828125 74.21875 47.359375 69.109375 
Q 53.90625 64.015625 53.90625 55.328125 
Q 53.90625 49.265625 50.4375 45.09375 
Q 46.96875 40.921875 40.578125 39.3125 
z
" id="DejaVuSans-33"/>
      </defs>
      <g transform="translate(925.362394 1137.493656)scale(0.15 -0.15)">
       <use xlink:href="#DejaVuSans-33"/>
      </g>
     </g>
    </g>
    <g id="xtick_5">
     <g id="line2d_9">
      <path clip-path="url(#p57aeba544e)" d="M 1138.407378 1119.096 
L 1138.407378 124.344 
" style="fill:none;stroke:#000000;stroke-dasharray:1.85,0.8;stroke-dashoffset:0;stroke-width:0.5;"/>
     </g>
     <g id="line2d_10">
      <g>
       <use style="stroke:#000000;stroke-width:0.8;" x="1138.407378" xlink:href="#mdf7c3d0515" y="1119.096"/>
      </g>
     </g>
     <g id="text_5">
      <!-- 4 -->
      <defs>
       <path d="M 37.796875 64.3125 
L 12.890625 25.390625 
L 37.796875 25.390625 
z
M 35.203125 72.90625 
L 47.609375 72.90625 
L 47.609375 25.390625 
L 58.015625 25.390625 
L 58.015625 17.1875 
L 47.609375 17.1875 
L 47.609375 0 
L 37.796875 0 
L 37.796875 17.1875 
L 4.890625 17.1875 
L 4.890625 26.703125 
z
" id="DejaVuSans-34"/>
      </defs>
      <g transform="translate(1133.635503 1137.493656)scale(0.15 -0.15)">
       <use xlink:href="#DejaVuSans-34"/>
      </g>
     </g>
    </g>
    <g id="xtick_6">
     <g id="line2d_11">
      <path clip-path="url(#p57aeba544e)" d="M 1346.680487 1119.096 
L 1346.680487 124.344 
" style="fill:none;stroke:#000000;stroke-dasharray:1.85,0.8;stroke-dashoffset:0;stroke-width:0.5;"/>
     </g>
     <g id="line2d_12">
      <g>
       <use style="stroke:#000000;stroke-width:0.8;" x="1346.680487" xlink:href="#mdf7c3d0515" y="1119.096"/>
      </g>
     </g>
     <g id="text_6">
      <!-- 5 -->
      <defs>
       <path d="M 10.796875 72.90625 
L 49.515625 72.90625 
L 49.515625 64.59375 
L 19.828125 64.59375 
L 19.828125 46.734375 
Q 21.96875 47.46875 24.109375 47.828125 
Q 26.265625 48.1875 28.421875 48.1875 
Q 40.625 48.1875 47.75 41.5 
Q 54.890625 34.8125 54.890625 23.390625 
Q 54.890625 11.625 47.5625 5.09375 
Q 40.234375 -1.421875 26.90625 -1.421875 
Q 22.3125 -1.421875 17.546875 -0.640625 
Q 12.796875 0.140625 7.71875 1.703125 
L 7.71875 11.625 
Q 12.109375 9.234375 16.796875 8.0625 
Q 21.484375 6.890625 26.703125 6.890625 
Q 35.15625 6.890625 40.078125 11.328125 
Q 45.015625 15.765625 45.015625 23.390625 
Q 45.015625 31 40.078125 35.4375 
Q 35.15625 39.890625 26.703125 39.890625 
Q 22.75 39.890625 18.8125 39.015625 
Q 14.890625 38.140625 10.796875 36.28125 
z
" id="DejaVuSans-35"/>
      </defs>
      <g transform="translate(1341.908612 1137.493656)scale(0.15 -0.15)">
       <use xlink:href="#DejaVuSans-35"/>
      </g>
     </g>
    </g>
    <g id="xtick_7">
     <g id="line2d_13">
      <path clip-path="url(#p57aeba544e)" d="M 1554.953597 1119.096 
L 1554.953597 124.344 
" style="fill:none;stroke:#000000;stroke-dasharray:1.85,0.8;stroke-dashoffset:0;stroke-width:0.5;"/>
     </g>
     <g id="line2d_14">
      <g>
       <use style="stroke:#000000;stroke-width:0.8;" x="1554.953597" xlink:href="#mdf7c3d0515" y="1119.096"/>
      </g>
     </g>
     <g id="text_7">
      <!-- 6 -->
      <defs>
       <path d="M 33.015625 40.375 
Q 26.375 40.375 22.484375 35.828125 
Q 18.609375 31.296875 18.609375 23.390625 
Q 18.609375 15.53125 22.484375 10.953125 
Q 26.375 6.390625 33.015625 6.390625 
Q 39.65625 6.390625 43.53125 10.953125 
Q 47.40625 15.53125 47.40625 23.390625 
Q 47.40625 31.296875 43.53125 35.828125 
Q 39.65625 40.375 33.015625 40.375 
z
M 52.59375 71.296875 
L 52.59375 62.3125 
Q 48.875 64.0625 45.09375 64.984375 
Q 41.3125 65.921875 37.59375 65.921875 
Q 27.828125 65.921875 22.671875 59.328125 
Q 17.53125 52.734375 16.796875 39.40625 
Q 19.671875 43.65625 24.015625 45.921875 
Q 28.375 48.1875 33.59375 48.1875 
Q 44.578125 48.1875 50.953125 41.515625 
Q 57.328125 34.859375 57.328125 23.390625 
Q 57.328125 12.15625 50.6875 5.359375 
Q 44.046875 -1.421875 33.015625 -1.421875 
Q 20.359375 -1.421875 13.671875 8.265625 
Q 6.984375 17.96875 6.984375 36.375 
Q 6.984375 53.65625 15.1875 63.9375 
Q 23.390625 74.21875 37.203125 74.21875 
Q 40.921875 74.21875 44.703125 73.484375 
Q 48.484375 72.75 52.59375 71.296875 
z
" id="DejaVuSans-36"/>
      </defs>
      <g transform="translate(1550.181722 1137.493656)scale(0.15 -0.15)">
       <use xlink:href="#DejaVuSans-36"/>
      </g>
     </g>
    </g>
    <g id="xtick_8">
     <g id="line2d_15">
      <path clip-path="url(#p57aeba544e)" d="M 1763.226706 1119.096 
L 1763.226706 124.344 
" style="fill:none;stroke:#000000;stroke-dasharray:1.85,0.8;stroke-dashoffset:0;stroke-width:0.5;"/>
     </g>
     <g id="line2d_16">
      <g>
       <use style="stroke:#000000;stroke-width:0.8;" x="1763.226706" xlink:href="#mdf7c3d0515" y="1119.096"/>
      </g>
     </g>
     <g id="text_8">
      <!-- 7 -->
      <defs>
       <path d="M 8.203125 72.90625 
L 55.078125 72.90625 
L 55.078125 68.703125 
L 28.609375 0 
L 18.3125 0 
L 43.21875 64.59375 
L 8.203125 64.59375 
z
" id="DejaVuSans-37"/>
      </defs>
      <g transform="translate(1758.454831 1137.493656)scale(0.15 -0.15)">
       <use xlink:href="#DejaVuSans-37"/>
      </g>
     </g>
    </g>
    <g id="xtick_9">
     <g id="line2d_17">
      <path clip-path="url(#p57aeba544e)" d="M 1971.499815 1119.096 
L 1971.499815 124.344 
" style="fill:none;stroke:#000000;stroke-dasharray:1.85,0.8;stroke-dashoffset:0;stroke-width:0.5;"/>
     </g>
     <g id="line2d_18">
      <g>
       <use style="stroke:#000000;stroke-width:0.8;" x="1971.499815" xlink:href="#mdf7c3d0515" y="1119.096"/>
      </g>
     </g>
     <g id="text_9">
      <!-- 8 -->
      <defs>
       <path d="M 31.78125 34.625 
Q 24.75 34.625 20.71875 30.859375 
Q 16.703125 27.09375 16.703125 20.515625 
Q 16.703125 13.921875 20.71875 10.15625 
Q 24.75 6.390625 31.78125 6.390625 
Q 38.8125 6.390625 42.859375 10.171875 
Q 46.921875 13.96875 46.921875 20.515625 
Q 46.921875 27.09375 42.890625 30.859375 
Q 38.875 34.625 31.78125 34.625 
z
M 21.921875 38.8125 
Q 15.578125 40.375 12.03125 44.71875 
Q 8.5 49.078125 8.5 55.328125 
Q 8.5 64.0625 14.71875 69.140625 
Q 20.953125 74.21875 31.78125 74.21875 
Q 42.671875 74.21875 48.875 69.140625 
Q 55.078125 64.0625 55.078125 55.328125 
Q 55.078125 49.078125 51.53125 44.71875 
Q 48 40.375 41.703125 38.8125 
Q 48.828125 37.15625 52.796875 32.3125 
Q 56.78125 27.484375 56.78125 20.515625 
Q 56.78125 9.90625 50.3125 4.234375 
Q 43.84375 -1.421875 31.78125 -1.421875 
Q 19.734375 -1.421875 13.25 4.234375 
Q 6.78125 9.90625 6.78125 20.515625 
Q 6.78125 27.484375 10.78125 32.3125 
Q 14.796875 37.15625 21.921875 38.8125 
z
M 18.3125 54.390625 
Q 18.3125 48.734375 21.84375 45.5625 
Q 25.390625 42.390625 31.78125 42.390625 
Q 38.140625 42.390625 41.71875 45.5625 
Q 45.3125 48.734375 45.3125 54.390625 
Q 45.3125 60.0625 41.71875 63.234375 
Q 38.140625 66.40625 31.78125 66.40625 
Q 25.390625 66.40625 21.84375 63.234375 
Q 18.3125 60.0625 18.3125 54.390625 
z
" id="DejaVuSans-38"/>
      </defs>
      <g transform="translate(1966.72794 1137.493656)scale(0.15 -0.15)">
       <use xlink:href="#DejaVuSans-38"/>
      </g>
     </g>
    </g>
    <g id="text_10">
     <!-- Time (s) -->
     <defs>
      <path d="M -0.296875 72.90625 
L 61.375 72.90625 
L 61.375 64.59375 
L 35.5 64.59375 
L 35.5 0 
L 25.59375 0 
L 25.59375 64.59375 
L -0.296875 64.59375 
z
" id="DejaVuSans-54"/>
      <path d="M 9.421875 54.6875 
L 18.40625 54.6875 
L 18.40625 0 
L 9.421875 0 
z
M 9.421875 75.984375 
L 18.40625 75.984375 
L 18.40625 64.59375 
L 9.421875 64.59375 
z
" id="DejaVuSans-69"/>
      <path d="M 52 44.1875 
Q 55.375 50.25 60.0625 53.125 
Q 64.75 56 71.09375 56 
Q 79.640625 56 84.28125 50.015625 
Q 88.921875 44.046875 88.921875 33.015625 
L 88.921875 0 
L 79.890625 0 
L 79.890625 32.71875 
Q 79.890625 40.578125 77.09375 44.375 
Q 74.3125 48.1875 68.609375 48.1875 
Q 61.625 48.1875 57.5625 43.546875 
Q 53.515625 38.921875 53.515625 30.90625 
L 53.515625 0 
L 44.484375 0 
L 44.484375 32.71875 
Q 44.484375 40.625 41.703125 44.40625 
Q 38.921875 48.1875 33.109375 48.1875 
Q 26.21875 48.1875 22.15625 43.53125 
Q 18.109375 38.875 18.109375 30.90625 
L 18.109375 0 
L 9.078125 0 
L 9.078125 54.6875 
L 18.109375 54.6875 
L 18.109375 46.1875 
Q 21.1875 51.21875 25.484375 53.609375 
Q 29.78125 56 35.6875 56 
Q 41.65625 56 45.828125 52.96875 
Q 50 49.953125 52 44.1875 
z
" id="DejaVuSans-6d"/>
      <path d="M 56.203125 29.59375 
L 56.203125 25.203125 
L 14.890625 25.203125 
Q 15.484375 15.921875 20.484375 11.0625 
Q 25.484375 6.203125 34.421875 6.203125 
Q 39.59375 6.203125 44.453125 7.46875 
Q 49.3125 8.734375 54.109375 11.28125 
L 54.109375 2.78125 
Q 49.265625 0.734375 44.1875 -0.34375 
Q 39.109375 -1.421875 33.890625 -1.421875 
Q 20.796875 -1.421875 13.15625 6.1875 
Q 5.515625 13.8125 5.515625 26.8125 
Q 5.515625 40.234375 12.765625 48.109375 
Q 20.015625 56 32.328125 56 
Q 43.359375 56 49.78125 48.890625 
Q 56.203125 41.796875 56.203125 29.59375 
z
M 47.21875 32.234375 
Q 47.125 39.59375 43.09375 43.984375 
Q 39.0625 48.390625 32.421875 48.390625 
Q 24.90625 48.390625 20.390625 44.140625 
Q 15.875 39.890625 15.1875 32.171875 
z
" id="DejaVuSans-65"/>
      <path id="DejaVuSans-20"/>
      <path d="M 31 75.875 
Q 24.46875 64.65625 21.28125 53.65625 
Q 18.109375 42.671875 18.109375 31.390625 
Q 18.109375 20.125 21.3125 9.0625 
Q 24.515625 -2 31 -13.1875 
L 23.1875 -13.1875 
Q 15.875 -1.703125 12.234375 9.375 
Q 8.59375 20.453125 8.59375 31.390625 
Q 8.59375 42.28125 12.203125 53.3125 
Q 15.828125 64.359375 23.1875 75.875 
z
" id="DejaVuSans-28"/>
      <path d="M 44.28125 53.078125 
L 44.28125 44.578125 
Q 40.484375 46.53125 36.375 47.5 
Q 32.28125 48.484375 27.875 48.484375 
Q 21.1875 48.484375 17.84375 46.4375 
Q 14.5 44.390625 14.5 40.28125 
Q 14.5 37.15625 16.890625 35.375 
Q 19.28125 33.59375 26.515625 31.984375 
L 29.59375 31.296875 
Q 39.15625 29.25 43.1875 25.515625 
Q 47.21875 21.78125 47.21875 15.09375 
Q 47.21875 7.46875 41.1875 3.015625 
Q 35.15625 -1.421875 24.609375 -1.421875 
Q 20.21875 -1.421875 15.453125 -0.5625 
Q 10.6875 0.296875 5.421875 2 
L 5.421875 11.28125 
Q 10.40625 8.6875 15.234375 7.390625 
Q 20.0625 6.109375 24.8125 6.109375 
Q 31.15625 6.109375 34.5625 8.28125 
Q 37.984375 10.453125 37.984375 14.40625 
Q 37.984375 18.0625 35.515625 20.015625 
Q 33.0625 21.96875 24.703125 23.78125 
L 21.578125 24.515625 
Q 13.234375 26.265625 9.515625 29.90625 
Q 5.8125 33.546875 5.8125 39.890625 
Q 5.8125 47.609375 11.28125 51.796875 
Q 16.75 56 26.8125 56 
Q 31.78125 56 36.171875 55.265625 
Q 40.578125 54.546875 44.28125 53.078125 
z
" id="DejaVuSans-73"/>
      <path d="M 8.015625 75.875 
L 15.828125 75.875 
Q 23.140625 64.359375 26.78125 53.3125 
Q 30.421875 42.28125 30.421875 31.390625 
Q 30.421875 20.453125 26.78125 9.375 
Q 23.140625 -1.703125 15.828125 -13.1875 
L 8.015625 -13.1875 
Q 14.5 -2 17.703125 9.0625 
Q 20.90625 20.125 20.90625 31.390625 
Q 20.90625 42.671875 17.703125 53.65625 
Q 14.5 64.65625 8.015625 75.875 
z
" id="DejaVuSans-29"/>
     </defs>
     <g transform="translate(1149.337781 1162.010844)scale(0.15 -0.15)">
      <use xlink:href="#DejaVuSans-54"/>
      <use x="61.037109" xlink:href="#DejaVuSans-69"/>
      <use x="88.820312" xlink:href="#DejaVuSans-6d"/>
      <use x="186.232422" xlink:href="#DejaVuSans-65"/>
      <use x="247.755859" xlink:href="#DejaVuSans-20"/>
      <use x="279.542969" xlink:href="#DejaVuSans-28"/>
      <use x="318.556641" xlink:href="#DejaVuSans-73"/>
      <use x="370.65625" xlink:href="#DejaVuSans-29"/>
     </g>
    </g>
   </g>
   <g id="matplotlib.axis_2">
    <g id="ytick_1">
     <g id="line2d_19">
      <path clip-path="url(#p57aeba544e)" d="M 287.82 1098.262122 
L 2072.304 1098.262122 
" style="fill:none;stroke:#000000;stroke-dasharray:1.85,0.8;stroke-dashoffset:0;stroke-width:0.5;"/>
     </g>
     <g id="line2d_20">
      <defs>
       <path d="M 0 0 
L -3.5 0 
" id="medd2b03007" style="stroke:#000000;stroke-width:0.8;"/>
      </defs>
      <g>
       <use style="stroke:#000000;stroke-width:0.8;" x="287.82" xlink:href="#medd2b03007" y="1098.262122"/>
      </g>
     </g>
     <g id="text_11">
      <!-- −0.100 -->
      <defs>
       <path d="M 10.59375 35.5 
L 73.1875 35.5 
L 73.1875 27.203125 
L 10.59375 27.203125 
z
" id="DejaVuSans-2212"/>
       <path d="M 10.6875 12.40625 
L 21 12.40625 
L 21 0 
L 10.6875 0 
z
" id="DejaVuSans-2e"/>
      </defs>
      <g transform="translate(225.308281 1103.960951)scale(0.15 -0.15)">
       <use xlink:href="#DejaVuSans-2212"/>
       <use x="83.789062" xlink:href="#DejaVuSans-30"/>
       <use x="147.412109" xlink:href="#DejaVuSans-2e"/>
       <use x="179.199219" xlink:href="#DejaVuSans-31"/>
       <use x="242.822266" xlink:href="#DejaVuSans-30"/>
       <use x="306.445312" xlink:href="#DejaVuSans-30"/>
      </g>
     </g>
    </g>
    <g id="ytick_2">
     <g id="line2d_21">
      <path clip-path="url(#p57aeba544e)" d="M 287.82 977.629478 
L 2072.304 977.629478 
" style="fill:none;stroke:#000000;stroke-dasharray:1.85,0.8;stroke-dashoffset:0;stroke-width:0.5;"/>
     </g>
     <g id="line2d_22">
      <g>
       <use style="stroke:#000000;stroke-width:0.8;" x="287.82" xlink:href="#medd2b03007" y="977.629478"/>
      </g>
     </g>
     <g id="text_12">
      <!-- −0.075 -->
      <g transform="translate(225.308281 983.328306)scale(0.15 -0.15)">
       <use xlink:href="#DejaVuSans-2212"/>
       <use x="83.789062" xlink:href="#DejaVuSans-30"/>
       <use x="147.412109" xlink:href="#DejaVuSans-2e"/>
       <use x="179.199219" xlink:href="#DejaVuSans-30"/>
       <use x="242.822266" xlink:href="#DejaVuSans-37"/>
       <use x="306.445312" xlink:href="#DejaVuSans-35"/>
      </g>
     </g>
    </g>
    <g id="ytick_3">
     <g id="line2d_23">
      <path clip-path="url(#p57aeba544e)" d="M 287.82 856.996834 
L 2072.304 856.996834 
" style="fill:none;stroke:#000000;stroke-dasharray:1.85,0.8;stroke-dashoffset:0;stroke-width:0.5;"/>
     </g>
     <g id="line2d_24">
      <g>
       <use style="stroke:#000000;stroke-width:0.8;" x="287.82" xlink:href="#medd2b03007" y="856.996834"/>
      </g>
     </g>
     <g id="text_13">
      <!-- −0.050 -->
      <g transform="translate(225.308281 862.695662)scale(0.15 -0.15)">
       <use xlink:href="#DejaVuSans-2212"/>
       <use x="83.789062" xlink:href="#DejaVuSans-30"/>
       <use x="147.412109" xlink:href="#DejaVuSans-2e"/>
       <use x="179.199219" xlink:href="#DejaVuSans-30"/>
       <use x="242.822266" xlink:href="#DejaVuSans-35"/>
       <use x="306.445312" xlink:href="#DejaVuSans-30"/>
      </g>
     </g>
    </g>
    <g id="ytick_4">
     <g id="line2d_25">
      <path clip-path="url(#p57aeba544e)" d="M 287.82 736.36419 
L 2072.304 736.36419 
" style="fill:none;stroke:#000000;stroke-dasharray:1.85,0.8;stroke-dashoffset:0;stroke-width:0.5;"/>
     </g>
     <g id="line2d_26">
      <g>
       <use style="stroke:#000000;stroke-width:0.8;" x="287.82" xlink:href="#medd2b03007" y="736.36419"/>
      </g>
     </g>
     <g id="text_14">
      <!-- −0.025 -->
      <g transform="translate(225.308281 742.063018)scale(0.15 -0.15)">
       <use xlink:href="#DejaVuSans-2212"/>
       <use x="83.789062" xlink:href="#DejaVuSans-30"/>
       <use x="147.412109" xlink:href="#DejaVuSans-2e"/>
       <use x="179.199219" xlink:href="#DejaVuSans-30"/>
       <use x="242.822266" xlink:href="#DejaVuSans-32"/>
       <use x="306.445312" xlink:href="#DejaVuSans-35"/>
      </g>
     </g>
    </g>
    <g id="ytick_5">
     <g id="line2d_27">
      <path clip-path="url(#p57aeba544e)" d="M 287.82 615.731546 
L 2072.304 615.731546 
" style="fill:none;stroke:#000000;stroke-dasharray:1.85,0.8;stroke-dashoffset:0;stroke-width:0.5;"/>
     </g>
     <g id="line2d_28">
      <g>
       <use style="stroke:#000000;stroke-width:0.8;" x="287.82" xlink:href="#medd2b03007" y="615.731546"/>
      </g>
     </g>
     <g id="text_15">
      <!-- 0.000 -->
      <g transform="translate(237.877813 621.430374)scale(0.15 -0.15)">
       <use xlink:href="#DejaVuSans-30"/>
       <use x="63.623047" xlink:href="#DejaVuSans-2e"/>
       <use x="95.410156" xlink:href="#DejaVuSans-30"/>
       <use x="159.033203" xlink:href="#DejaVuSans-30"/>
       <use x="222.65625" xlink:href="#DejaVuSans-30"/>
      </g>
     </g>
    </g>
    <g id="ytick_6">
     <g id="line2d_29">
      <path clip-path="url(#p57aeba544e)" d="M 287.82 495.098902 
L 2072.304 495.098902 
" style="fill:none;stroke:#000000;stroke-dasharray:1.85,0.8;stroke-dashoffset:0;stroke-width:0.5;"/>
     </g>
     <g id="line2d_30">
      <g>
       <use style="stroke:#000000;stroke-width:0.8;" x="287.82" xlink:href="#medd2b03007" y="495.098902"/>
      </g>
     </g>
     <g id="text_16">
      <!-- 0.025 -->
      <g transform="translate(237.877813 500.79773)scale(0.15 -0.15)">
       <use xlink:href="#DejaVuSans-30"/>
       <use x="63.623047" xlink:href="#DejaVuSans-2e"/>
       <use x="95.410156" xlink:href="#DejaVuSans-30"/>
       <use x="159.033203" xlink:href="#DejaVuSans-32"/>
       <use x="222.65625" xlink:href="#DejaVuSans-35"/>
      </g>
     </g>
    </g>
    <g id="ytick_7">
     <g id="line2d_31">
      <path clip-path="url(#p57aeba544e)" d="M 287.82 374.466258 
L 2072.304 374.466258 
" style="fill:none;stroke:#000000;stroke-dasharray:1.85,0.8;stroke-dashoffset:0;stroke-width:0.5;"/>
     </g>
     <g id="line2d_32">
      <g>
       <use style="stroke:#000000;stroke-width:0.8;" x="287.82" xlink:href="#medd2b03007" y="374.466258"/>
      </g>
     </g>
     <g id="text_17">
      <!-- 0.050 -->
      <g transform="translate(237.877813 380.165086)scale(0.15 -0.15)">
       <use xlink:href="#DejaVuSans-30"/>
       <use x="63.623047" xlink:href="#DejaVuSans-2e"/>
       <use x="95.410156" xlink:href="#DejaVuSans-30"/>
       <use x="159.033203" xlink:href="#DejaVuSans-35"/>
       <use x="222.65625" xlink:href="#DejaVuSans-30"/>
      </g>
     </g>
    </g>
    <g id="ytick_8">
     <g id="line2d_33">
      <path clip-path="url(#p57aeba544e)" d="M 287.82 253.833613 
L 2072.304 253.833613 
" style="fill:none;stroke:#000000;stroke-dasharray:1.85,0.8;stroke-dashoffset:0;stroke-width:0.5;"/>
     </g>
     <g id="line2d_34">
      <g>
       <use style="stroke:#000000;stroke-width:0.8;" x="287.82" xlink:href="#medd2b03007" y="253.833613"/>
      </g>
     </g>
     <g id="text_18">
      <!-- 0.075 -->
      <g transform="translate(237.877813 259.532442)scale(0.15 -0.15)">
       <use xlink:href="#DejaVuSans-30"/>
       <use x="63.623047" xlink:href="#DejaVuSans-2e"/>
       <use x="95.410156" xlink:href="#DejaVuSans-30"/>
       <use x="159.033203" xlink:href="#DejaVuSans-37"/>
       <use x="222.65625" xlink:href="#DejaVuSans-35"/>
      </g>
     </g>
    </g>
    <g id="ytick_9">
     <g id="line2d_35">
      <path clip-path="url(#p57aeba544e)" d="M 287.82 133.200969 
L 2072.304 133.200969 
" style="fill:none;stroke:#000000;stroke-dasharray:1.85,0.8;stroke-dashoffset:0;stroke-width:0.5;"/>
     </g>
     <g id="line2d_36">
      <g>
       <use style="stroke:#000000;stroke-width:0.8;" x="287.82" xlink:href="#medd2b03007" y="133.200969"/>
      </g>
     </g>
     <g id="text_19">
      <!-- 0.100 -->
      <g transform="translate(237.877813 138.899797)scale(0.15 -0.15)">
       <use xlink:href="#DejaVuSans-30"/>
       <use x="63.623047" xlink:href="#DejaVuSans-2e"/>
       <use x="95.410156" xlink:href="#DejaVuSans-31"/>
       <use x="159.033203" xlink:href="#DejaVuSans-30"/>
       <use x="222.65625" xlink:href="#DejaVuSans-30"/>
      </g>
     </g>
    </g>
    <g id="text_20">
     <!-- Lateral sway (m) -->
     <defs>
      <path d="M 9.8125 72.90625 
L 19.671875 72.90625 
L 19.671875 8.296875 
L 55.171875 8.296875 
L 55.171875 0 
L 9.8125 0 
z
" id="DejaVuSans-4c"/>
      <path d="M 34.28125 27.484375 
Q 23.390625 27.484375 19.1875 25 
Q 14.984375 22.515625 14.984375 16.5 
Q 14.984375 11.71875 18.140625 8.90625 
Q 21.296875 6.109375 26.703125 6.109375 
Q 34.1875 6.109375 38.703125 11.40625 
Q 43.21875 16.703125 43.21875 25.484375 
L 43.21875 27.484375 
z
M 52.203125 31.203125 
L 52.203125 0 
L 43.21875 0 
L 43.21875 8.296875 
Q 40.140625 3.328125 35.546875 0.953125 
Q 30.953125 -1.421875 24.3125 -1.421875 
Q 15.921875 -1.421875 10.953125 3.296875 
Q 6 8.015625 6 15.921875 
Q 6 25.140625 12.171875 29.828125 
Q 18.359375 34.515625 30.609375 34.515625 
L 43.21875 34.515625 
L 43.21875 35.40625 
Q 43.21875 41.609375 39.140625 45 
Q 35.0625 48.390625 27.6875 48.390625 
Q 23 48.390625 18.546875 47.265625 
Q 14.109375 46.140625 10.015625 43.890625 
L 10.015625 52.203125 
Q 14.9375 54.109375 19.578125 55.046875 
Q 24.21875 56 28.609375 56 
Q 40.484375 56 46.34375 49.84375 
Q 52.203125 43.703125 52.203125 31.203125 
z
" id="DejaVuSans-61"/>
      <path d="M 18.3125 70.21875 
L 18.3125 54.6875 
L 36.8125 54.6875 
L 36.8125 47.703125 
L 18.3125 47.703125 
L 18.3125 18.015625 
Q 18.3125 11.328125 20.140625 9.421875 
Q 21.96875 7.515625 27.59375 7.515625 
L 36.8125 7.515625 
L 36.8125 0 
L 27.59375 0 
Q 17.1875 0 13.234375 3.875 
Q 9.28125 7.765625 9.28125 18.015625 
L 9.28125 47.703125 
L 2.6875 47.703125 
L 2.6875 54.6875 
L 9.28125 54.6875 
L 9.28125 70.21875 
z
" id="DejaVuSans-74"/>
      <path d="M 41.109375 46.296875 
Q 39.59375 47.171875 37.8125 47.578125 
Q 36.03125 48 33.890625 48 
Q 26.265625 48 22.1875 43.046875 
Q 18.109375 38.09375 18.109375 28.8125 
L 18.109375 0 
L 9.078125 0 
L 9.078125 54.6875 
L 18.109375 54.6875 
L 18.109375 46.1875 
Q 20.953125 51.171875 25.484375 53.578125 
Q 30.03125 56 36.53125 56 
Q 37.453125 56 38.578125 55.875 
Q 39.703125 55.765625 41.0625 55.515625 
z
" id="DejaVuSans-72"/>
      <path d="M 9.421875 75.984375 
L 18.40625 75.984375 
L 18.40625 0 
L 9.421875 0 
z
" id="DejaVuSans-6c"/>
      <path d="M 4.203125 54.6875 
L 13.1875 54.6875 
L 24.421875 12.015625 
L 35.59375 54.6875 
L 46.1875 54.6875 
L 57.421875 12.015625 
L 68.609375 54.6875 
L 77.59375 54.6875 
L 63.28125 0 
L 52.6875 0 
L 40.921875 44.828125 
L 29.109375 0 
L 18.5 0 
z
" id="DejaVuSans-77"/>
      <path d="M 32.171875 -5.078125 
Q 28.375 -14.84375 24.75 -17.8125 
Q 21.140625 -20.796875 15.09375 -20.796875 
L 7.90625 -20.796875 
L 7.90625 -13.28125 
L 13.1875 -13.28125 
Q 16.890625 -13.28125 18.9375 -11.515625 
Q 21 -9.765625 23.484375 -3.21875 
L 25.09375 0.875 
L 2.984375 54.6875 
L 12.5 54.6875 
L 29.59375 11.921875 
L 46.6875 54.6875 
L 56.203125 54.6875 
z
" id="DejaVuSans-79"/>
     </defs>
     <g transform="translate(212.18875 684.81375)rotate(-90)scale(0.15 -0.15)">
      <use xlink:href="#DejaVuSans-4c"/>
      <use x="55.712891" xlink:href="#DejaVuSans-61"/>
      <use x="116.992188" xlink:href="#DejaVuSans-74"/>
      <use x="156.201172" xlink:href="#DejaVuSans-65"/>
      <use x="217.724609" xlink:href="#DejaVuSans-72"/>
      <use x="258.837891" xlink:href="#DejaVuSans-61"/>
      <use x="320.117188" xlink:href="#DejaVuSans-6c"/>
      <use x="347.900391" xlink:href="#DejaVuSans-20"/>
      <use x="379.6875" xlink:href="#DejaVuSans-73"/>
      <use x="431.787109" xlink:href="#DejaVuSans-77"/>
      <use x="513.574219" xlink:href="#DejaVuSans-61"/>
      <use x="574.853516" xlink:href="#DejaVuSans-79"/>
      <use x="634.033203" xlink:href="#DejaVuSans-20"/>
      <use x="665.820312" xlink:href="#DejaVuSans-28"/>
      <use x="704.833984" xlink:href="#DejaVuSans-6d"/>
      <use x="802.246094" xlink:href="#DejaVuSans-29"/>
     </g>
    </g>
   </g>
   <g id="line2d_37">
    <path clip-path="url(#p57aeba544e)" d="M 305.314941 615.731546 
L 662.503324 615.629081 
L 666.668786 615.255667 
L 677.082441 614.128263 
L 680.206538 614.011761 
L 701.033849 613.793294 
L 720.819794 613.36388 
L 738.523008 612.757326 
L 754.143492 612.003767 
L 767.681244 611.14362 
L 780.17763 610.138774 
L 791.632651 609.00105 
L 802.046307 607.75052 
L 811.418597 606.41637 
L 820.790887 604.850217 
L 829.121811 603.231924 
L 837.452735 601.367762 
L 844.742294 599.506234 
L 852.031853 597.400446 
L 858.280046 595.377154 
L 864.528239 593.128811 
L 870.776433 590.630558 
L 877.024626 587.854775 
L 882.231454 585.307576 
L 887.438282 582.526842 
L 892.645109 579.491228 
L 897.851937 576.177432 
L 903.058765 572.560017 
L 908.265592 568.611216 
L 912.431055 565.193299 
L 916.596517 561.527162 
L 920.761979 557.594798 
L 924.927441 553.376894 
L 929.092903 548.852734 
L 933.258366 544.000095 
L 937.423828 538.795146 
L 941.58929 533.212321 
L 945.754752 527.2242 
L 949.920214 520.801372 
L 954.085676 513.912292 
L 958.251139 506.523124 
L 962.416601 498.597575 
L 966.582063 490.096718 
L 970.747525 480.978802 
L 974.912987 471.199044 
L 979.07845 460.70941 
L 983.243912 449.458379 
L 987.409374 437.390693 
L 991.574836 424.44708 
L 995.740298 410.576699 
L 1000.947126 392.168017 
L 1009.27805 362.48213 
L 1013.443513 348.611746 
L 1016.567609 339.024439 
L 1019.691706 330.257919 
L 1022.815803 322.151491 
L 1026.981265 312.095225 
L 1032.188092 300.209571 
L 1037.39492 288.659218 
L 1041.560382 280.073267 
L 1045.725845 272.090186 
L 1049.891307 264.670765 
L 1054.056769 257.778564 
L 1058.222231 251.379732 
L 1062.387693 245.44284 
L 1066.553155 239.93873 
L 1070.718618 234.840367 
L 1074.88408 230.122711 
L 1079.049542 225.762591 
L 1083.215004 221.738593 
L 1087.380466 218.030951 
L 1091.545929 214.621456 
L 1095.711391 211.493363 
L 1099.876853 208.631307 
L 1104.042315 206.021231 
L 1108.207777 203.650316 
L 1112.373239 201.506917 
L 1116.538702 199.580506 
L 1120.704164 197.861623 
L 1124.869626 196.341824 
L 1129.035088 195.013645 
L 1134.241916 193.613037 
L 1139.448744 192.490957 
L 1144.655571 191.638793 
L 1149.862399 191.050004 
L 1155.069227 190.72007 
L 1160.276055 190.646459 
L 1165.482882 190.828605 
L 1170.68971 191.267907 
L 1175.896538 191.967736 
L 1181.103366 192.933466 
L 1186.310193 194.172507 
L 1191.517021 195.694373 
L 1195.682483 197.123273 
L 1199.847945 198.747632 
L 1204.013408 200.575427 
L 1208.17887 202.615635 
L 1212.344332 204.878278 
L 1216.509794 207.374467 
L 1220.675256 210.116464 
L 1224.840718 213.117736 
L 1229.006181 216.393023 
L 1233.171643 219.958413 
L 1237.337105 223.831416 
L 1241.502567 228.031055 
L 1245.668029 232.577957 
L 1249.833492 237.494454 
L 1253.998954 242.804694 
L 1258.164416 248.534757 
L 1262.329878 254.712788 
L 1266.49534 261.36913 
L 1270.660803 268.536476 
L 1274.826265 276.250028 
L 1278.991727 284.547671 
L 1283.157189 293.470161 
L 1287.322651 303.06132 
L 1291.488113 313.368255 
L 1295.653576 324.441589 
L 1299.819038 336.335709 
L 1303.9845 349.109034 
L 1308.149962 362.8243 
L 1312.315424 377.54887 
L 1316.480887 393.355064 
L 1320.646349 410.320516 
L 1324.811811 428.52855 
L 1328.977273 447.967944 
L 1333.142735 468.569376 
L 1337.308197 490.580418 
L 1340.432294 508.174227 
L 1343.556391 526.826783 
L 1346.680487 546.656666 
L 1350.84595 574.846466 
L 1356.052777 611.969572 
L 1362.300971 656.617056 
L 1366.466433 684.80686 
L 1369.590529 704.690215 
L 1372.714626 723.383949 
L 1375.838723 740.994865 
L 1380.004185 762.993375 
L 1384.169647 783.544372 
L 1388.335109 802.910812 
L 1392.500571 821.120504 
L 1396.666034 838.087503 
L 1400.831496 853.895145 
L 1404.996958 868.621069 
L 1409.16242 882.337602 
L 1413.327882 895.112113 
L 1417.493345 907.007345 
L 1421.658807 918.081721 
L 1425.824269 928.389633 
L 1429.989731 937.981709 
L 1434.155193 946.905061 
L 1438.320655 955.203517 
L 1442.486118 962.917833 
L 1446.65158 970.085901 
L 1450.817042 976.742924 
L 1454.982504 982.921601 
L 1459.147966 988.652277 
L 1463.313429 993.963099 
L 1467.478891 998.880152 
L 1471.644353 1003.427585 
L 1475.809815 1007.627733 
L 1479.975277 1011.501226 
L 1484.140739 1015.067088 
L 1488.306202 1018.342833 
L 1492.471664 1021.344551 
L 1496.637126 1024.086983 
L 1500.802588 1026.5836 
L 1504.96805 1028.846665 
L 1509.133513 1030.887291 
L 1513.298975 1032.715501 
L 1517.464437 1034.340276 
L 1521.629899 1035.769594 
L 1526.836727 1037.291989 
L 1532.043555 1038.53157 
L 1537.250382 1039.497854 
L 1542.45721 1040.198258 
L 1547.664038 1040.638157 
L 1552.870866 1040.820929 
L 1558.077693 1040.747976 
L 1563.284521 1040.418739 
L 1568.491349 1039.83069 
L 1573.698176 1038.979315 
L 1578.905004 1037.85808 
L 1584.111832 1036.458377 
L 1588.277294 1035.130972 
L 1592.442756 1033.611995 
L 1596.608218 1031.893984 
L 1600.773681 1029.968503 
L 1604.939143 1027.826093 
L 1609.104605 1025.456233 
L 1613.270067 1022.847283 
L 1617.435529 1019.986428 
L 1621.600992 1016.859619 
L 1625.766454 1013.451496 
L 1629.931916 1009.745322 
L 1634.097378 1005.722892 
L 1638.26284 1001.364452 
L 1642.428303 996.648593 
L 1646.593765 991.552155 
L 1650.759227 986.050106 
L 1654.924689 980.115422 
L 1659.090151 973.718955 
L 1663.255613 966.829289 
L 1667.421076 959.412584 
L 1671.586538 951.432413 
L 1675.752 942.849582 
L 1679.917462 933.621935 
L 1687.207021 916.718247 
L 1691.372483 906.449253 
L 1694.49658 898.174735 
L 1697.620676 889.234922 
L 1700.744773 879.47101 
L 1704.910235 865.37611 
L 1710.117063 846.814557 
L 1717.406622 820.886178 
L 1721.572084 807.015794 
L 1725.737546 794.072178 
L 1729.903008 782.004487 
L 1734.068471 770.753451 
L 1738.233933 760.26381 
L 1742.399395 750.484044 
L 1746.564857 741.366119 
L 1750.730319 732.865253 
L 1754.895782 724.939692 
L 1759.061244 717.55051 
L 1763.226706 710.661416 
L 1767.392168 704.238572 
L 1771.55763 698.250434 
L 1775.723092 692.66759 
L 1779.888555 687.46262 
L 1784.054017 682.609959 
L 1788.219479 678.085773 
L 1792.384941 673.867843 
L 1796.550403 669.93545 
L 1800.715866 666.269282 
L 1804.881328 662.851332 
L 1810.088155 658.902485 
L 1815.294983 655.285019 
L 1820.501811 651.971167 
L 1825.708639 648.935492 
L 1830.915466 646.154692 
L 1836.122294 643.60742 
L 1841.329122 641.274125 
L 1847.577315 638.731509 
L 1853.825508 636.443194 
L 1860.073702 634.38388 
L 1867.363261 632.24053 
L 1874.652819 630.345711 
L 1881.942378 628.670897 
L 1890.273303 626.994012 
L 1898.604227 625.538663 
L 1907.976517 624.130706 
L 1918.390172 622.810313 
L 1929.845193 621.608041 
L 1942.34158 620.544757 
L 1955.879332 619.632507 
L 1970.45845 618.876175 
L 1987.120298 618.242416 
L 2005.864878 617.764878 
L 2025.650824 617.481301 
L 2037.105845 617.306988 
L 2041.271307 616.929151 
L 2051.684962 615.832232 
L 2054.809059 615.731546 
L 2054.809059 615.731546 
" style="fill:none;stroke:#e41a1c;stroke-linecap:square;stroke-width:2;"/>
   </g>
   <g id="line2d_38">
    <path clip-path="url(#p57aeba544e)" d="M 305.314941 615.731546 
L 991.574836 615.731546 
L 992.616202 612.408117 
L 993.657567 602.896233 
L 994.698933 587.8835 
L 995.740298 568.057525 
L 996.781664 544.105913 
L 998.864395 486.576205 
L 1000.947126 420.795225 
L 1005.112588 286.482839 
L 1007.195319 228.953131 
L 1008.236685 205.001519 
L 1009.27805 185.175544 
L 1010.319416 170.162811 
L 1011.360782 160.650927 
L 1012.402147 157.327498 
L 1345.639122 157.327498 
L 1346.680487 163.974357 
L 1347.721853 182.998125 
L 1348.763218 213.02359 
L 1349.804584 252.67554 
L 1350.84595 300.578763 
L 1352.928681 415.638179 
L 1355.011412 547.200141 
L 1359.176874 815.824913 
L 1361.259605 930.884329 
L 1362.300971 978.787552 
L 1363.342336 1018.439502 
L 1364.383702 1048.464967 
L 1365.425067 1067.488735 
L 1366.466433 1074.135594 
L 1699.703408 1074.135594 
L 1700.744773 1070.812164 
L 1701.786139 1061.30028 
L 1702.827504 1046.287548 
L 1703.86887 1026.461573 
L 1704.910235 1002.509961 
L 1706.992966 944.980253 
L 1709.075697 879.199272 
L 1713.24116 744.886886 
L 1715.323891 687.357178 
L 1716.365256 663.405567 
L 1717.406622 643.579592 
L 1718.447987 628.566859 
L 1719.489353 619.054975 
L 1720.530718 615.731546 
L 2054.809059 615.731546 
L 2054.809059 615.731546 
" style="fill:none;stroke:#377eb8;stroke-linecap:square;stroke-width:2;"/>
   </g>
   <g id="line2d_39">
    <path clip-path="url(#p57aeba544e)" d="M 305.314941 615.731546 
L 681.247903 615.624366 
L 694.785655 615.289197 
L 711.447504 614.644834 
L 731.23345 613.646786 
L 749.978029 612.483674 
L 766.639878 611.226734 
L 780.17763 609.995415 
L 792.674017 608.636937 
L 803.087672 607.298498 
L 813.501328 605.728291 
L 822.873618 604.076273 
L 831.204542 602.38272 
L 838.494101 600.699282 
L 845.78366 598.800628 
L 853.073218 596.65755 
L 859.321412 594.601263 
L 865.569605 592.318173 
L 871.817798 589.78265 
L 877.024626 587.456475 
L 882.231454 584.917254 
L 887.438282 582.145288 
L 892.645109 579.119098 
L 897.851937 575.815263 
L 903.058765 572.208235 
L 908.265592 568.270146 
L 912.431055 564.860974 
L 916.596517 561.20369 
L 920.761979 557.280252 
L 924.927441 553.07131 
L 929.092903 548.556116 
L 933.258366 543.712421 
L 937.423828 538.516365 
L 941.58929 532.942362 
L 945.754752 526.96297 
L 949.920214 520.54876 
L 954.085676 513.668169 
L 958.251139 506.287347 
L 962.416601 498.369989 
L 966.582063 489.877158 
L 970.747525 480.767092 
L 974.912987 470.995 
L 979.07845 460.512841 
L 983.243912 449.269089 
L 987.409374 437.20848 
L 991.574836 424.27174 
L 995.740298 410.393452 
L 999.905761 395.612703 
L 1012.402147 350.414523 
L 1016.567609 336.740237 
L 1020.733071 324.034888 
L 1024.898534 312.241863 
L 1029.063996 301.313199 
L 1032.188092 293.656789 
L 1035.312189 286.441085 
L 1039.477651 277.467033 
L 1043.643113 269.182313 
L 1047.808576 261.535944 
L 1051.974038 254.481013 
L 1056.1395 247.974377 
L 1060.304962 241.976372 
L 1064.470424 236.450556 
L 1068.635887 231.363459 
L 1072.801349 226.684371 
L 1076.966811 222.38513 
L 1081.132273 218.439944 
L 1085.297735 214.825211 
L 1089.463197 211.519371 
L 1093.62866 208.502759 
L 1097.794122 205.757473 
L 1101.959584 203.267259 
L 1106.125046 201.017401 
L 1110.290508 198.994621 
L 1114.455971 197.186994 
L 1118.621433 195.583863 
L 1122.786895 194.175769 
L 1127.993723 192.677345 
L 1133.20055 191.45683 
L 1138.407378 190.502791 
L 1143.614206 189.806143 
L 1148.821034 189.360042 
L 1154.027861 189.159801 
L 1159.234689 189.202824 
L 1164.441517 189.488562 
L 1169.648345 190.018485 
L 1174.855172 190.796075 
L 1180.062 191.826832 
L 1185.268828 193.118303 
L 1190.475655 194.680123 
L 1195.682483 196.524079 
L 1199.847945 198.211726 
L 1204.013408 200.097113 
L 1208.17887 202.189477 
L 1212.344332 204.499088 
L 1216.509794 207.0373 
L 1220.675256 209.816602 
L 1224.840718 212.850676 
L 1229.006181 216.15447 
L 1233.171643 219.74426 
L 1237.337105 223.637737 
L 1241.502567 227.854087 
L 1245.668029 232.414089 
L 1249.833492 237.34021 
L 1253.998954 242.656721 
L 1258.164416 248.389812 
L 1262.329878 254.567719 
L 1266.49534 261.220866 
L 1270.660803 268.382011 
L 1274.826265 276.086404 
L 1278.991727 284.371968 
L 1283.157189 293.279476 
L 1287.322651 302.852756 
L 1291.488113 313.138904 
L 1295.653576 324.188517 
L 1299.819038 336.05594 
L 1303.9845 348.799532 
L 1308.149962 362.481955 
L 1312.315424 377.170479 
L 1316.480887 392.937313 
L 1320.646349 409.859963 
L 1324.811811 428.021606 
L 1328.977273 447.51148 
L 1333.142735 468.425228 
L 1337.308197 490.865528 
L 1341.47366 514.942658 
L 1345.639122 540.775028 
L 1348.763218 561.38064 
L 1352.928681 590.498714 
L 1360.218239 643.938188 
L 1365.425067 681.181144 
L 1369.590529 709.002194 
L 1373.755992 734.863287 
L 1376.880088 753.048547 
L 1380.004185 770.254156 
L 1383.128282 786.52881 
L 1386.252378 801.918961 
L 1389.376475 816.469641 
L 1392.500571 830.225086 
L 1395.624668 843.228261 
L 1398.748765 855.51992 
L 1402.914227 870.868237 
L 1407.079689 885.105266 
L 1411.245151 898.310173 
L 1415.410613 910.556321 
L 1419.576076 921.911687 
L 1423.741538 932.439246 
L 1427.907 942.197331 
L 1432.072462 951.239966 
L 1436.237924 959.617171 
L 1440.403387 967.375245 
L 1444.568849 974.557033 
L 1448.734311 981.202164 
L 1452.899773 987.347282 
L 1457.065235 993.026246 
L 1461.230697 998.27033 
L 1465.39616 1003.108394 
L 1469.561622 1007.567052 
L 1473.727084 1011.670819 
L 1477.892546 1015.442254 
L 1482.058008 1018.902085 
L 1486.223471 1022.069328 
L 1490.388933 1024.961394 
L 1494.554395 1027.594189 
L 1498.719857 1029.982205 
L 1502.885319 1032.138598 
L 1507.050782 1034.075271 
L 1511.216244 1035.802935 
L 1515.381706 1037.331175 
L 1520.588534 1038.973903 
L 1525.795361 1040.332644 
L 1531.002189 1041.419421 
L 1536.209017 1042.243998 
L 1541.415845 1042.813977 
L 1546.622672 1043.134869 
L 1551.8295 1043.210152 
L 1557.036328 1043.041309 
L 1562.243155 1042.627848 
L 1567.449983 1041.967315 
L 1572.656811 1041.055279 
L 1577.863639 1039.885307 
L 1583.070466 1038.448923 
L 1588.277294 1036.73555 
L 1593.484122 1034.732434 
L 1597.649584 1032.911308 
L 1601.815046 1030.886394 
L 1605.980508 1028.647893 
L 1610.145971 1026.184941 
L 1614.311433 1023.485563 
L 1618.476895 1020.536608 
L 1622.642357 1017.32369 
L 1626.807819 1013.831118 
L 1630.973282 1010.041815 
L 1635.138744 1005.937244 
L 1639.304206 1001.497308 
L 1643.469668 996.700258 
L 1647.63513 991.522585 
L 1651.800592 985.938905 
L 1655.966055 979.921835 
L 1660.131517 973.441859 
L 1664.296979 966.467183 
L 1668.462441 958.963579 
L 1672.627903 950.89422 
L 1676.793366 942.219495 
L 1680.958828 932.896822 
L 1685.12429 922.880599 
L 1689.289752 912.121928 
L 1693.455214 900.568069 
L 1697.620676 888.162175 
L 1701.786139 874.842525 
L 1705.951601 860.561511 
L 1711.158429 841.695287 
L 1718.447987 815.274936 
L 1722.61345 801.158613 
L 1726.778912 788.026348 
L 1730.944374 775.822819 
L 1735.109836 764.482481 
L 1739.275298 753.944355 
L 1743.440761 744.151765 
L 1747.606223 735.052036 
L 1751.771685 726.596207 
L 1755.937147 718.738775 
L 1760.102609 711.437448 
L 1764.268071 704.652919 
L 1768.433534 698.348658 
L 1772.598996 692.490711 
L 1776.764458 687.047524 
L 1780.92992 681.989769 
L 1785.095382 677.290191 
L 1789.260845 672.923459 
L 1793.426307 668.866031 
L 1797.591769 665.096029 
L 1801.757231 661.593119 
L 1805.922693 658.338406 
L 1810.088155 655.314327 
L 1815.294983 651.833807 
L 1820.501811 648.658874 
L 1825.708639 645.762735 
L 1830.915466 643.120944 
L 1836.122294 640.711194 
L 1841.329122 638.513133 
L 1847.577315 636.128861 
L 1853.825508 633.993744 
L 1860.073702 632.081783 
L 1867.363261 630.102273 
L 1874.652819 628.362061 
L 1882.983744 626.629372 
L 1891.314668 625.134026 
L 1900.686958 623.695219 
L 1910.059248 622.476269 
L 1920.472903 621.339119 
L 1931.927924 620.308111 
L 1944.424311 619.398057 
L 1959.003429 618.562189 
L 1975.665277 617.837441 
L 1995.451223 617.213766 
L 2018.361265 616.71888 
L 2047.5195 616.320421 
L 2054.809059 616.248056 
L 2054.809059 616.248056 
" style="fill:none;stroke:#4daf4a;stroke-linecap:square;stroke-width:2;"/>
   </g>
   <g id="line2d_40">
    <path clip-path="url(#p57aeba544e)" d="M 305.314941 615.731546 
L 660.420592 615.768436 
L 662.503324 616.072072 
L 664.586055 616.641289 
L 667.710151 617.790488 
L 672.916979 619.755289 
L 674.99971 620.325337 
L 677.082441 620.664399 
L 679.165172 620.707701 
L 681.247903 620.43463 
L 689.578828 619.127538 
L 697.909752 618.077376 
L 706.240676 617.244394 
L 715.612966 616.518684 
L 727.067987 615.87236 
L 739.564374 615.396961 
L 755.184857 615.043833 
L 773.929437 614.853868 
L 799.963576 614.829176 
L 847.866391 615.053688 
L 943.672021 615.487687 
L 991.574836 615.598594 
L 992.616202 612.99146 
L 993.657567 604.876098 
L 994.698933 591.071225 
L 995.740298 572.074569 
L 996.781664 548.553135 
L 997.823029 521.215772 
L 999.905761 457.97071 
L 1006.153954 251.547254 
L 1007.195319 222.262334 
L 1008.236685 196.354512 
L 1009.27805 174.540548 
L 1010.319416 157.536691 
L 1011.360782 146.058688 
L 1012.402147 140.821793 
L 1013.443513 139.751922 
L 1017.608975 139.323984 
L 1019.691706 138.56988 
L 1022.815803 136.986405 
L 1025.939899 135.382388 
L 1028.02263 134.569024 
L 1030.105361 134.131603 
L 1031.146727 134.096471 
L 1032.188092 134.205207 
L 1033.229458 134.473181 
L 1035.312189 135.466577 
L 1040.519017 138.214162 
L 1045.725845 140.665546 
L 1050.932672 142.839653 
L 1056.1395 144.765783 
L 1061.346328 146.470281 
L 1067.594521 148.256273 
L 1073.842714 149.79342 
L 1080.090908 151.113653 
L 1087.380466 152.416971 
L 1094.670025 153.501712 
L 1103.00095 154.516078 
L 1112.373239 155.419543 
L 1122.786895 156.185637 
L 1134.241916 156.802009 
L 1147.779668 157.300105 
L 1164.441517 157.669732 
L 1185.268828 157.88736 
L 1214.427063 157.942705 
L 1269.619437 157.773416 
L 1345.639122 157.527497 
L 1346.680487 162.742893 
L 1347.721853 178.974745 
L 1348.763218 206.585604 
L 1349.804584 244.580009 
L 1350.84595 291.623954 
L 1351.887315 346.299736 
L 1353.970046 472.791919 
L 1360.218239 885.644587 
L 1361.259605 944.215328 
L 1362.300971 996.031857 
L 1363.342336 1039.660655 
L 1364.383702 1073.669225 
L 1365.425067 1096.626072 
L 1366.466433 1107.100685 
L 1367.507798 1109.24124 
L 1368.549164 1109.343529 
L 1372.714626 1108.03533 
L 1375.838723 1107.48491 
L 1382.086916 1106.616803 
L 1384.169647 1106.104007 
L 1386.252378 1105.361056 
L 1388.335109 1104.324397 
L 1394.583303 1100.768433 
L 1399.79013 1098.101117 
L 1404.996958 1095.694146 
L 1410.203786 1093.522596 
L 1415.410613 1091.563886 
L 1421.658807 1089.465734 
L 1427.907 1087.613041 
L 1434.155193 1085.977685 
L 1441.444752 1084.311334 
L 1448.734311 1082.872139 
L 1457.065235 1081.466853 
L 1465.39616 1080.279958 
L 1474.76845 1079.164705 
L 1485.182105 1078.152571 
L 1496.637126 1077.26373 
L 1510.174878 1076.453015 
L 1525.795361 1075.763742 
L 1543.498576 1075.215284 
L 1565.367252 1074.77278 
L 1593.484122 1074.44453 
L 1632.014647 1074.233898 
L 1695.537945 1074.135776 
L 1699.703408 1074.134289 
L 1700.744773 1071.524902 
L 1701.786139 1063.407287 
L 1702.827504 1049.600191 
L 1703.86887 1030.60135 
L 1704.910235 1007.077767 
L 1705.951601 979.738293 
L 1708.034332 916.489119 
L 1714.282525 710.054165 
L 1715.323891 680.767444 
L 1716.365256 654.857854 
L 1717.406622 633.042151 
L 1718.447987 616.036586 
L 1719.489353 604.556905 
L 1720.530718 599.318362 
L 1721.572084 598.246871 
L 1722.61345 598.212978 
L 1724.696181 598.715617 
L 1733.027105 600.948896 
L 1740.316664 602.666072 
L 1748.647588 604.385695 
L 1756.978513 605.878988 
L 1766.350803 607.325341 
L 1776.764458 608.684778 
L 1787.178113 609.824368 
L 1798.633134 610.866252 
L 1812.170887 611.863283 
L 1826.750004 612.709776 
L 1843.411853 613.452863 
L 1863.197798 614.101798 
L 1886.10784 614.626028 
L 1915.266076 615.056998 
L 1952.755235 615.374254 
L 2006.906244 615.589246 
L 2054.809059 615.667088 
L 2054.809059 615.667088 
" style="fill:none;stroke:#984ea3;stroke-linecap:square;stroke-width:2;"/>
   </g>
   <g id="patch_7">
    <path d="M 287.82 1119.096 
L 287.82 124.344 
" style="fill:none;stroke:#000000;stroke-linecap:square;stroke-linejoin:miter;stroke-width:0.8;"/>
   </g>
   <g id="patch_8">
    <path d="M 2072.304 1119.096 
L 2072.304 124.344 
" style="fill:none;stroke:#000000;stroke-linecap:square;stroke-linejoin:miter;stroke-width:0.8;"/>
   </g>
   <g id="patch_9">
    <path d="M 287.82 1119.096 
L 2072.304 1119.096 
" style="fill:none;stroke:#000000;stroke-linecap:square;stroke-linejoin:miter;stroke-width:0.8;"/>
   </g>
   <g id="patch_10">
    <path d="M 287.82 124.344 
L 2072.304 124.344 
" style="fill:none;stroke:#000000;stroke-linecap:square;stroke-linejoin:miter;stroke-width:0.8;"/>
   </g>
   <g id="legend_1">
    <g id="patch_11">
     <path d="M 298.32 96.94896 
L 2061.804 96.94896 
Q 2064.804 96.94896 2064.804 93.94896 
L 2064.804 50.58021 
Q 2064.804 47.58021 2061.804 47.58021 
L 298.32 47.58021 
Q 295.32 47.58021 295.32 50.58021 
L 295.32 93.94896 
Q 295.32 96.94896 298.32 96.94896 
z
" style="fill:#ffffff;opacity:0.8;stroke:#cccccc;stroke-linejoin:miter;"/>
    </g>
    <g id="line2d_41">
     <path d="M 301.32 59.727866 
L 331.32 59.727866 
" style="fill:none;stroke:#e41a1c;stroke-linecap:square;stroke-width:2;"/>
    </g>
    <g id="line2d_42"/>
    <g id="text_21">
     <!-- generator_IdealCOGPosition_y -->
     <defs>
      <path d="M 45.40625 27.984375 
Q 45.40625 37.75 41.375 43.109375 
Q 37.359375 48.484375 30.078125 48.484375 
Q 22.859375 48.484375 18.828125 43.109375 
Q 14.796875 37.75 14.796875 27.984375 
Q 14.796875 18.265625 18.828125 12.890625 
Q 22.859375 7.515625 30.078125 7.515625 
Q 37.359375 7.515625 41.375 12.890625 
Q 45.40625 18.265625 45.40625 27.984375 
z
M 54.390625 6.78125 
Q 54.390625 -7.171875 48.1875 -13.984375 
Q 42 -20.796875 29.203125 -20.796875 
Q 24.46875 -20.796875 20.265625 -20.09375 
Q 16.0625 -19.390625 12.109375 -17.921875 
L 12.109375 -9.1875 
Q 16.0625 -11.328125 19.921875 -12.34375 
Q 23.78125 -13.375 27.78125 -13.375 
Q 36.625 -13.375 41.015625 -8.765625 
Q 45.40625 -4.15625 45.40625 5.171875 
L 45.40625 9.625 
Q 42.625 4.78125 38.28125 2.390625 
Q 33.9375 0 27.875 0 
Q 17.828125 0 11.671875 7.65625 
Q 5.515625 15.328125 5.515625 27.984375 
Q 5.515625 40.671875 11.671875 48.328125 
Q 17.828125 56 27.875 56 
Q 33.9375 56 38.28125 53.609375 
Q 42.625 51.21875 45.40625 46.390625 
L 45.40625 54.6875 
L 54.390625 54.6875 
z
" id="DejaVuSans-67"/>
      <path d="M 54.890625 33.015625 
L 54.890625 0 
L 45.90625 0 
L 45.90625 32.71875 
Q 45.90625 40.484375 42.875 44.328125 
Q 39.84375 48.1875 33.796875 48.1875 
Q 26.515625 48.1875 22.3125 43.546875 
Q 18.109375 38.921875 18.109375 30.90625 
L 18.109375 0 
L 9.078125 0 
L 9.078125 54.6875 
L 18.109375 54.6875 
L 18.109375 46.1875 
Q 21.34375 51.125 25.703125 53.5625 
Q 30.078125 56 35.796875 56 
Q 45.21875 56 50.046875 50.171875 
Q 54.890625 44.34375 54.890625 33.015625 
z
" id="DejaVuSans-6e"/>
      <path d="M 30.609375 48.390625 
Q 23.390625 48.390625 19.1875 42.75 
Q 14.984375 37.109375 14.984375 27.296875 
Q 14.984375 17.484375 19.15625 11.84375 
Q 23.34375 6.203125 30.609375 6.203125 
Q 37.796875 6.203125 41.984375 11.859375 
Q 46.1875 17.53125 46.1875 27.296875 
Q 46.1875 37.015625 41.984375 42.703125 
Q 37.796875 48.390625 30.609375 48.390625 
z
M 30.609375 56 
Q 42.328125 56 49.015625 48.375 
Q 55.71875 40.765625 55.71875 27.296875 
Q 55.71875 13.875 49.015625 6.21875 
Q 42.328125 -1.421875 30.609375 -1.421875 
Q 18.84375 -1.421875 12.171875 6.21875 
Q 5.515625 13.875 5.515625 27.296875 
Q 5.515625 40.765625 12.171875 48.375 
Q 18.84375 56 30.609375 56 
z
" id="DejaVuSans-6f"/>
      <path d="M 50.984375 -16.609375 
L 50.984375 -23.578125 
L -0.984375 -23.578125 
L -0.984375 -16.609375 
z
" id="DejaVuSans-5f"/>
      <path d="M 9.8125 72.90625 
L 19.671875 72.90625 
L 19.671875 0 
L 9.8125 0 
z
" id="DejaVuSans-49"/>
      <path d="M 45.40625 46.390625 
L 45.40625 75.984375 
L 54.390625 75.984375 
L 54.390625 0 
L 45.40625 0 
L 45.40625 8.203125 
Q 42.578125 3.328125 38.25 0.953125 
Q 33.9375 -1.421875 27.875 -1.421875 
Q 17.96875 -1.421875 11.734375 6.484375 
Q 5.515625 14.40625 5.515625 27.296875 
Q 5.515625 40.1875 11.734375 48.09375 
Q 17.96875 56 27.875 56 
Q 33.9375 56 38.25 53.625 
Q 42.578125 51.265625 45.40625 46.390625 
z
M 14.796875 27.296875 
Q 14.796875 17.390625 18.875 11.75 
Q 22.953125 6.109375 30.078125 6.109375 
Q 37.203125 6.109375 41.296875 11.75 
Q 45.40625 17.390625 45.40625 27.296875 
Q 45.40625 37.203125 41.296875 42.84375 
Q 37.203125 48.484375 30.078125 48.484375 
Q 22.953125 48.484375 18.875 42.84375 
Q 14.796875 37.203125 14.796875 27.296875 
z
" id="DejaVuSans-64"/>
      <path d="M 64.40625 67.28125 
L 64.40625 56.890625 
Q 59.421875 61.53125 53.78125 63.8125 
Q 48.140625 66.109375 41.796875 66.109375 
Q 29.296875 66.109375 22.65625 58.46875 
Q 16.015625 50.828125 16.015625 36.375 
Q 16.015625 21.96875 22.65625 14.328125 
Q 29.296875 6.6875 41.796875 6.6875 
Q 48.140625 6.6875 53.78125 8.984375 
Q 59.421875 11.28125 64.40625 15.921875 
L 64.40625 5.609375 
Q 59.234375 2.09375 53.4375 0.328125 
Q 47.65625 -1.421875 41.21875 -1.421875 
Q 24.65625 -1.421875 15.125 8.703125 
Q 5.609375 18.84375 5.609375 36.375 
Q 5.609375 53.953125 15.125 64.078125 
Q 24.65625 74.21875 41.21875 74.21875 
Q 47.75 74.21875 53.53125 72.484375 
Q 59.328125 70.75 64.40625 67.28125 
z
" id="DejaVuSans-43"/>
      <path d="M 39.40625 66.21875 
Q 28.65625 66.21875 22.328125 58.203125 
Q 16.015625 50.203125 16.015625 36.375 
Q 16.015625 22.609375 22.328125 14.59375 
Q 28.65625 6.59375 39.40625 6.59375 
Q 50.140625 6.59375 56.421875 14.59375 
Q 62.703125 22.609375 62.703125 36.375 
Q 62.703125 50.203125 56.421875 58.203125 
Q 50.140625 66.21875 39.40625 66.21875 
z
M 39.40625 74.21875 
Q 54.734375 74.21875 63.90625 63.9375 
Q 73.09375 53.65625 73.09375 36.375 
Q 73.09375 19.140625 63.90625 8.859375 
Q 54.734375 -1.421875 39.40625 -1.421875 
Q 24.03125 -1.421875 14.8125 8.828125 
Q 5.609375 19.09375 5.609375 36.375 
Q 5.609375 53.65625 14.8125 63.9375 
Q 24.03125 74.21875 39.40625 74.21875 
z
" id="DejaVuSans-4f"/>
      <path d="M 59.515625 10.40625 
L 59.515625 29.984375 
L 43.40625 29.984375 
L 43.40625 38.09375 
L 69.28125 38.09375 
L 69.28125 6.78125 
Q 63.578125 2.734375 56.6875 0.65625 
Q 49.8125 -1.421875 42 -1.421875 
Q 24.90625 -1.421875 15.25 8.5625 
Q 5.609375 18.5625 5.609375 36.375 
Q 5.609375 54.25 15.25 64.234375 
Q 24.90625 74.21875 42 74.21875 
Q 49.125 74.21875 55.546875 72.453125 
Q 61.96875 70.703125 67.390625 67.28125 
L 67.390625 56.78125 
Q 61.921875 61.421875 55.765625 63.765625 
Q 49.609375 66.109375 42.828125 66.109375 
Q 29.4375 66.109375 22.71875 58.640625 
Q 16.015625 51.171875 16.015625 36.375 
Q 16.015625 21.625 22.71875 14.15625 
Q 29.4375 6.6875 42.828125 6.6875 
Q 48.046875 6.6875 52.140625 7.59375 
Q 56.25 8.5 59.515625 10.40625 
z
" id="DejaVuSans-47"/>
      <path d="M 19.671875 64.796875 
L 19.671875 37.40625 
L 32.078125 37.40625 
Q 38.96875 37.40625 42.71875 40.96875 
Q 46.484375 44.53125 46.484375 51.125 
Q 46.484375 57.671875 42.71875 61.234375 
Q 38.96875 64.796875 32.078125 64.796875 
z
M 9.8125 72.90625 
L 32.078125 72.90625 
Q 44.34375 72.90625 50.609375 67.359375 
Q 56.890625 61.8125 56.890625 51.125 
Q 56.890625 40.328125 50.609375 34.8125 
Q 44.34375 29.296875 32.078125 29.296875 
L 19.671875 29.296875 
L 19.671875 0 
L 9.8125 0 
z
" id="DejaVuSans-50"/>
     </defs>
     <g transform="translate(343.32 64.977866)scale(0.15 -0.15)">
      <use xlink:href="#DejaVuSans-67"/>
      <use x="63.476562" xlink:href="#DejaVuSans-65"/>
      <use x="125" xlink:href="#DejaVuSans-6e"/>
      <use x="188.378906" xlink:href="#DejaVuSans-65"/>
      <use x="249.902344" xlink:href="#DejaVuSans-72"/>
      <use x="291.015625" xlink:href="#DejaVuSans-61"/>
      <use x="352.294922" xlink:href="#DejaVuSans-74"/>
      <use x="391.503906" xlink:href="#DejaVuSans-6f"/>
      <use x="452.685547" xlink:href="#DejaVuSans-72"/>
      <use x="493.798828" xlink:href="#DejaVuSans-5f"/>
      <use x="543.798828" xlink:href="#DejaVuSans-49"/>
      <use x="573.291016" xlink:href="#DejaVuSans-64"/>
      <use x="636.767578" xlink:href="#DejaVuSans-65"/>
      <use x="698.291016" xlink:href="#DejaVuSans-61"/>
      <use x="759.570312" xlink:href="#DejaVuSans-6c"/>
      <use x="787.353516" xlink:href="#DejaVuSans-43"/>
      <use x="857.177734" xlink:href="#DejaVuSans-4f"/>
      <use x="935.888672" xlink:href="#DejaVuSans-47"/>
      <use x="1013.378906" xlink:href="#DejaVuSans-50"/>
      <use x="1073.634766" xlink:href="#DejaVuSans-6f"/>
      <use x="1134.816406" xlink:href="#DejaVuSans-73"/>
      <use x="1186.916016" xlink:href="#DejaVuSans-69"/>
      <use x="1214.699219" xlink:href="#DejaVuSans-74"/>
      <use x="1253.908203" xlink:href="#DejaVuSans-69"/>
      <use x="1281.691406" xlink:href="#DejaVuSans-6f"/>
      <use x="1342.873047" xlink:href="#DejaVuSans-6e"/>
      <use x="1406.251953" xlink:href="#DejaVuSans-5f"/>
      <use x="1456.251953" xlink:href="#DejaVuSans-79"/>
     </g>
    </g>
    <g id="line2d_43">
     <path d="M 301.32 82.162241 
L 331.32 82.162241 
" style="fill:none;stroke:#377eb8;stroke-linecap:square;stroke-width:2;"/>
    </g>
    <g id="line2d_44"/>
    <g id="text_22">
     <!-- generator_IdealZMPPosition_y -->
     <defs>
      <path d="M 5.609375 72.90625 
L 62.890625 72.90625 
L 62.890625 65.375 
L 16.796875 8.296875 
L 64.015625 8.296875 
L 64.015625 0 
L 4.5 0 
L 4.5 7.515625 
L 50.59375 64.59375 
L 5.609375 64.59375 
z
" id="DejaVuSans-5a"/>
      <path d="M 9.8125 72.90625 
L 24.515625 72.90625 
L 43.109375 23.296875 
L 61.8125 72.90625 
L 76.515625 72.90625 
L 76.515625 0 
L 66.890625 0 
L 66.890625 64.015625 
L 48.09375 14.015625 
L 38.1875 14.015625 
L 19.390625 64.015625 
L 19.390625 0 
L 9.8125 0 
z
" id="DejaVuSans-4d"/>
     </defs>
     <g transform="translate(343.32 87.412241)scale(0.15 -0.15)">
      <use xlink:href="#DejaVuSans-67"/>
      <use x="63.476562" xlink:href="#DejaVuSans-65"/>
      <use x="125" xlink:href="#DejaVuSans-6e"/>
      <use x="188.378906" xlink:href="#DejaVuSans-65"/>
      <use x="249.902344" xlink:href="#DejaVuSans-72"/>
      <use x="291.015625" xlink:href="#DejaVuSans-61"/>
      <use x="352.294922" xlink:href="#DejaVuSans-74"/>
      <use x="391.503906" xlink:href="#DejaVuSans-6f"/>
      <use x="452.685547" xlink:href="#DejaVuSans-72"/>
      <use x="493.798828" xlink:href="#DejaVuSans-5f"/>
      <use x="543.798828" xlink:href="#DejaVuSans-49"/>
      <use x="573.291016" xlink:href="#DejaVuSans-64"/>
      <use x="636.767578" xlink:href="#DejaVuSans-65"/>
      <use x="698.291016" xlink:href="#DejaVuSans-61"/>
      <use x="759.570312" xlink:href="#DejaVuSans-6c"/>
      <use x="787.353516" xlink:href="#DejaVuSans-5a"/>
      <use x="855.859375" xlink:href="#DejaVuSans-4d"/>
      <use x="942.138672" xlink:href="#DejaVuSans-50"/>
      <use x="1002.441406" xlink:href="#DejaVuSans-50"/>
      <use x="1062.697266" xlink:href="#DejaVuSans-6f"/>
      <use x="1123.878906" xlink:href="#DejaVuSans-73"/>
      <use x="1175.978516" xlink:href="#DejaVuSans-69"/>
      <use x="1203.761719" xlink:href="#DejaVuSans-74"/>
      <use x="1242.970703" xlink:href="#DejaVuSans-69"/>
      <use x="1270.753906" xlink:href="#DejaVuSans-6f"/>
      <use x="1331.935547" xlink:href="#DejaVuSans-6e"/>
      <use x="1395.314453" xlink:href="#DejaVuSans-5f"/>
      <use x="1445.314453" xlink:href="#DejaVuSans-79"/>
     </g>
    </g>
    <g id="line2d_45">
     <path d="M 1773.9165 59.727866 
L 1803.9165 59.727866 
" style="fill:none;stroke:#4daf4a;stroke-linecap:square;stroke-width:2;"/>
    </g>
    <g id="line2d_46"/>
    <g id="text_23">
     <!-- generator_OutputCOGPosition_y -->
     <defs>
      <path d="M 8.5 21.578125 
L 8.5 54.6875 
L 17.484375 54.6875 
L 17.484375 21.921875 
Q 17.484375 14.15625 20.5 10.265625 
Q 23.53125 6.390625 29.59375 6.390625 
Q 36.859375 6.390625 41.078125 11.03125 
Q 45.3125 15.671875 45.3125 23.6875 
L 45.3125 54.6875 
L 54.296875 54.6875 
L 54.296875 0 
L 45.3125 0 
L 45.3125 8.40625 
Q 42.046875 3.421875 37.71875 1 
Q 33.40625 -1.421875 27.6875 -1.421875 
Q 18.265625 -1.421875 13.375 4.4375 
Q 8.5 10.296875 8.5 21.578125 
z
M 31.109375 56 
z
" id="DejaVuSans-75"/>
      <path d="M 18.109375 8.203125 
L 18.109375 -20.796875 
L 9.078125 -20.796875 
L 9.078125 54.6875 
L 18.109375 54.6875 
L 18.109375 46.390625 
Q 20.953125 51.265625 25.265625 53.625 
Q 29.59375 56 35.59375 56 
Q 45.5625 56 51.78125 48.09375 
Q 58.015625 40.1875 58.015625 27.296875 
Q 58.015625 14.40625 51.78125 6.484375 
Q 45.5625 -1.421875 35.59375 -1.421875 
Q 29.59375 -1.421875 25.265625 0.953125 
Q 20.953125 3.328125 18.109375 8.203125 
z
M 48.6875 27.296875 
Q 48.6875 37.203125 44.609375 42.84375 
Q 40.53125 48.484375 33.40625 48.484375 
Q 26.265625 48.484375 22.1875 42.84375 
Q 18.109375 37.203125 18.109375 27.296875 
Q 18.109375 17.390625 22.1875 11.75 
Q 26.265625 6.109375 33.40625 6.109375 
Q 40.53125 6.109375 44.609375 11.75 
Q 48.6875 17.390625 48.6875 27.296875 
z
" id="DejaVuSans-70"/>
     </defs>
     <g transform="translate(1815.9165 64.977866)scale(0.15 -0.15)">
      <use xlink:href="#DejaVuSans-67"/>
      <use x="63.476562" xlink:href="#DejaVuSans-65"/>
      <use x="125" xlink:href="#DejaVuSans-6e"/>
      <use x="188.378906" xlink:href="#DejaVuSans-65"/>
      <use x="249.902344" xlink:href="#DejaVuSans-72"/>
      <use x="291.015625" xlink:href="#DejaVuSans-61"/>
      <use x="352.294922" xlink:href="#DejaVuSans-74"/>
      <use x="391.503906" xlink:href="#DejaVuSans-6f"/>
      <use x="452.685547" xlink:href="#DejaVuSans-72"/>
      <use x="493.798828" xlink:href="#DejaVuSans-5f"/>
      <use x="543.798828" xlink:href="#DejaVuSans-4f"/>
      <use x="622.509766" xlink:href="#DejaVuSans-75"/>
      <use x="685.888672" xlink:href="#DejaVuSans-74"/>
      <use x="725.097656" xlink:href="#DejaVuSans-70"/>
      <use x="788.574219" xlink:href="#DejaVuSans-75"/>
      <use x="851.953125" xlink:href="#DejaVuSans-74"/>
      <use x="891.162109" xlink:href="#DejaVuSans-43"/>
      <use x="960.986328" xlink:href="#DejaVuSans-4f"/>
      <use x="1039.697266" xlink:href="#DejaVuSans-47"/>
      <use x="1117.1875" xlink:href="#DejaVuSans-50"/>
      <use x="1177.443359" xlink:href="#DejaVuSans-6f"/>
      <use x="1238.625" xlink:href="#DejaVuSans-73"/>
      <use x="1290.724609" xlink:href="#DejaVuSans-69"/>
      <use x="1318.507812" xlink:href="#DejaVuSans-74"/>
      <use x="1357.716797" xlink:href="#DejaVuSans-69"/>
      <use x="1385.5" xlink:href="#DejaVuSans-6f"/>
      <use x="1446.681641" xlink:href="#DejaVuSans-6e"/>
      <use x="1510.060547" xlink:href="#DejaVuSans-5f"/>
      <use x="1560.060547" xlink:href="#DejaVuSans-79"/>
     </g>
    </g>
    <g id="line2d_47">
     <path d="M 1773.9165 82.162241 
L 1803.9165 82.162241 
" style="fill:none;stroke:#984ea3;stroke-linecap:square;stroke-width:2;"/>
    </g>
    <g id="line2d_48"/>
    <g id="text_24">
     <!-- generator_OutputZMPPosition_y -->
     <g transform="translate(1815.9165 87.412241)scale(0.15 -0.15)">
      <use xlink:href="#DejaVuSans-67"/>
      <use x="63.476562" xlink:href="#DejaVuSans-65"/>
      <use x="125" xlink:href="#DejaVuSans-6e"/>
      <use x="188.378906" xlink:href="#DejaVuSans-65"/>
      <use x="249.902344" xlink:href="#DejaVuSans-72"/>
      <use x="291.015625" xlink:href="#DejaVuSans-61"/>
      <use x="352.294922" xlink:href="#DejaVuSans-74"/>
      <use x="391.503906" xlink:href="#DejaVuSans-6f"/>
      <use x="452.685547" xlink:href="#DejaVuSans-72"/>
      <use x="493.798828" xlink:href="#DejaVuSans-5f"/>
      <use x="543.798828" xlink:href="#DejaVuSans-4f"/>
      <use x="622.509766" xlink:href="#DejaVuSans-75"/>
      <use x="685.888672" xlink:href="#DejaVuSans-74"/>
      <use x="725.097656" xlink:href="#DejaVuSans-70"/>
      <use x="788.574219" xlink:href="#DejaVuSans-75"/>
      <use x="851.953125" xlink:href="#DejaVuSans-74"/>
      <use x="891.162109" xlink:href="#DejaVuSans-5a"/>
      <use x="959.667969" xlink:href="#DejaVuSans-4d"/>
      <use x="1045.947266" xlink:href="#DejaVuSans-50"/>
      <use x="1106.25" xlink:href="#DejaVuSans-50"/>
      <use x="1166.505859" xlink:href="#DejaVuSans-6f"/>
      <use x="1227.6875" xlink:href="#DejaVuSans-73"/>
      <use x="1279.787109" xlink:href="#DejaVuSans-69"/>
      <use x="1307.570312" xlink:href="#DejaVuSans-74"/>
      <use x="1346.779297" xlink:href="#DejaVuSans-69"/>
      <use x="1374.5625" xlink:href="#DejaVuSans-6f"/>
      <use x="1435.744141" xlink:href="#DejaVuSans-6e"/>
      <use x="1499.123047" xlink:href="#DejaVuSans-5f"/>
      <use x="1549.123047" xlink:href="#DejaVuSans-79"/>
     </g>
    </g>
   </g>
  </g>
  <g id="axes_3">
   <g id="patch_12">
    <path d="M 287.82 1119.096 
L 287.82 124.344 
" style="fill:none;stroke:#000000;stroke-linecap:square;stroke-linejoin:miter;stroke-width:0.8;"/>
   </g>
   <g id="patch_13">
    <path d="M 2072.304 1119.096 
L 2072.304 124.344 
" style="fill:none;stroke:#000000;stroke-linecap:square;stroke-linejoin:miter;stroke-width:0.8;"/>
   </g>
   <g id="patch_14">
    <path d="M 287.82 1119.096 
L 2072.304 1119.096 
" style="fill:none;stroke:#000000;stroke-linecap:square;stroke-linejoin:miter;stroke-width:0.8;"/>
   </g>
   <g id="patch_15">
    <path d="M 287.82 124.344 
L 2072.304 124.344 
" style="fill:none;stroke:#000000;stroke-linecap:square;stroke-linejoin:miter;stroke-width:0.8;"/>
   </g>
  </g>
  <g id="text_25">
   <!-- CoM long-term and short-term trajectory generation -->
   <defs>
    <path d="M 4.890625 31.390625 
L 31.203125 31.390625 
L 31.203125 23.390625 
L 4.890625 23.390625 
z
" id="DejaVuSans-2d"/>
    <path d="M 54.890625 33.015625 
L 54.890625 0 
L 45.90625 0 
L 45.90625 32.71875 
Q 45.90625 40.484375 42.875 44.328125 
Q 39.84375 48.1875 33.796875 48.1875 
Q 26.515625 48.1875 22.3125 43.546875 
Q 18.109375 38.921875 18.109375 30.90625 
L 18.109375 0 
L 9.078125 0 
L 9.078125 75.984375 
L 18.109375 75.984375 
L 18.109375 46.1875 
Q 21.34375 51.125 25.703125 53.5625 
Q 30.078125 56 35.796875 56 
Q 45.21875 56 50.046875 50.171875 
Q 54.890625 44.34375 54.890625 33.015625 
z
" id="DejaVuSans-68"/>
    <path d="M 9.421875 54.6875 
L 18.40625 54.6875 
L 18.40625 -0.984375 
Q 18.40625 -11.421875 14.421875 -16.109375 
Q 10.453125 -20.796875 1.609375 -20.796875 
L -1.8125 -20.796875 
L -1.8125 -13.1875 
L 0.59375 -13.1875 
Q 5.71875 -13.1875 7.5625 -10.8125 
Q 9.421875 -8.453125 9.421875 -0.984375 
z
M 9.421875 75.984375 
L 18.40625 75.984375 
L 18.40625 64.59375 
L 9.421875 64.59375 
z
" id="DejaVuSans-6a"/>
    <path d="M 48.78125 52.59375 
L 48.78125 44.1875 
Q 44.96875 46.296875 41.140625 47.34375 
Q 37.3125 48.390625 33.40625 48.390625 
Q 24.65625 48.390625 19.8125 42.84375 
Q 14.984375 37.3125 14.984375 27.296875 
Q 14.984375 17.28125 19.8125 11.734375 
Q 24.65625 6.203125 33.40625 6.203125 
Q 37.3125 6.203125 41.140625 7.25 
Q 44.96875 8.296875 48.78125 10.40625 
L 48.78125 2.09375 
Q 45.015625 0.34375 40.984375 -0.53125 
Q 36.96875 -1.421875 32.421875 -1.421875 
Q 20.0625 -1.421875 12.78125 6.34375 
Q 5.515625 14.109375 5.515625 27.296875 
Q 5.515625 40.671875 12.859375 48.328125 
Q 20.21875 56 33.015625 56 
Q 37.15625 56 41.109375 55.140625 
Q 45.0625 54.296875 48.78125 52.59375 
z
" id="DejaVuSans-63"/>
   </defs>
   <g transform="translate(889.459687 40.065675)scale(0.2 -0.2)">
    <use xlink:href="#DejaVuSans-43"/>
    <use x="69.824219" xlink:href="#DejaVuSans-6f"/>
    <use x="131.005859" xlink:href="#DejaVuSans-4d"/>
    <use x="217.285156" xlink:href="#DejaVuSans-20"/>
    <use x="249.072266" xlink:href="#DejaVuSans-6c"/>
    <use x="276.855469" xlink:href="#DejaVuSans-6f"/>
    <use x="338.037109" xlink:href="#DejaVuSans-6e"/>
    <use x="401.416016" xlink:href="#DejaVuSans-67"/>
    <use x="464.892578" xlink:href="#DejaVuSans-2d"/>
    <use x="500.976562" xlink:href="#DejaVuSans-74"/>
    <use x="540.185547" xlink:href="#DejaVuSans-65"/>
    <use x="601.708984" xlink:href="#DejaVuSans-72"/>
    <use x="642.806641" xlink:href="#DejaVuSans-6d"/>
    <use x="740.21875" xlink:href="#DejaVuSans-20"/>
    <use x="772.005859" xlink:href="#DejaVuSans-61"/>
    <use x="833.285156" xlink:href="#DejaVuSans-6e"/>
    <use x="896.664062" xlink:href="#DejaVuSans-64"/>
    <use x="960.140625" xlink:href="#DejaVuSans-20"/>
    <use x="991.927734" xlink:href="#DejaVuSans-73"/>
    <use x="1044.027344" xlink:href="#DejaVuSans-68"/>
    <use x="1107.40625" xlink:href="#DejaVuSans-6f"/>
    <use x="1168.587891" xlink:href="#DejaVuSans-72"/>
    <use x="1209.701172" xlink:href="#DejaVuSans-74"/>
    <use x="1248.910156" xlink:href="#DejaVuSans-2d"/>
    <use x="1284.994141" xlink:href="#DejaVuSans-74"/>
    <use x="1324.203125" xlink:href="#DejaVuSans-65"/>
    <use x="1385.726562" xlink:href="#DejaVuSans-72"/>
    <use x="1426.824219" xlink:href="#DejaVuSans-6d"/>
    <use x="1524.236328" xlink:href="#DejaVuSans-20"/>
    <use x="1556.023438" xlink:href="#DejaVuSans-74"/>
    <use x="1595.232422" xlink:href="#DejaVuSans-72"/>
    <use x="1636.345703" xlink:href="#DejaVuSans-61"/>
    <use x="1697.625" xlink:href="#DejaVuSans-6a"/>
    <use x="1725.408203" xlink:href="#DejaVuSans-65"/>
    <use x="1786.931641" xlink:href="#DejaVuSans-63"/>
    <use x="1841.912109" xlink:href="#DejaVuSans-74"/>
    <use x="1881.121094" xlink:href="#DejaVuSans-6f"/>
    <use x="1942.302734" xlink:href="#DejaVuSans-72"/>
    <use x="1983.416016" xlink:href="#DejaVuSans-79"/>
    <use x="2042.595703" xlink:href="#DejaVuSans-20"/>
    <use x="2074.382812" xlink:href="#DejaVuSans-67"/>
    <use x="2137.859375" xlink:href="#DejaVuSans-65"/>
    <use x="2199.382812" xlink:href="#DejaVuSans-6e"/>
    <use x="2262.761719" xlink:href="#DejaVuSans-65"/>
    <use x="2324.285156" xlink:href="#DejaVuSans-72"/>
    <use x="2365.398438" xlink:href="#DejaVuSans-61"/>
    <use x="2426.677734" xlink:href="#DejaVuSans-74"/>
    <use x="2465.886719" xlink:href="#DejaVuSans-69"/>
    <use x="2493.669922" xlink:href="#DejaVuSans-6f"/>
    <use x="2554.851562" xlink:href="#DejaVuSans-6e"/>
   </g>
  </g>
 </g>
 <defs>
  <clipPath id="p57aeba544e">
   <rect height="994.752" width="1784.484" x="287.82" y="124.344"/>
  </clipPath>
 </defs>
</svg>
