<?xml version="1.0" encoding="UTF-8" standalone="no"?>
<svg
   xmlns:dc="http://purl.org/dc/elements/1.1/"
   xmlns:cc="http://creativecommons.org/ns#"
   xmlns:rdf="http://www.w3.org/1999/02/22-rdf-syntax-ns#"
   xmlns:svg="http://www.w3.org/2000/svg"
   xmlns="http://www.w3.org/2000/svg"
   xmlns:sodipodi="http://sodipodi.sourceforge.net/DTD/sodipodi-0.dtd"
   xmlns:inkscape="http://www.inkscape.org/namespaces/inkscape"
   version="1.1"
   x="0px"
   y="0px"
   viewBox="0 0 100 125"
   enable-background="new 0 0 100 100"
   xml:space="preserve"
   id="svg2"
   inkscape:version="0.91 r13725"
   sodipodi:docname="easy.svg"><metadata
     id="metadata22"><rdf:RDF><cc:Work
         rdf:about=""><dc:format>image/svg+xml</dc:format><dc:type
           rdf:resource="http://purl.org/dc/dcmitype/StillImage" /></cc:Work></rdf:RDF></metadata><defs
     id="defs20" /><sodipodi:namedview
     pagecolor="#ffffff"
     bordercolor="#666666"
     borderopacity="1"
     objecttolerance="10"
     gridtolerance="10"
     guidetolerance="10"
     inkscape:pageopacity="0"
     inkscape:pageshadow="2"
     inkscape:window-width="640"
     inkscape:window-height="480"
     id="namedview18"
     showgrid="false"
     inkscape:zoom="1.888"
     inkscape:cx="50"
     inkscape:cy="62.5"
     inkscape:window-x="0"
     inkscape:window-y="48"
     inkscape:window-maximized="0"
     inkscape:current-layer="svg2" /><g
     id="g4"><path
       d="M58.789,74.872c0,1.758-1.759,1.758-1.759,1.758H42.969c0,0-1.758,0-1.758-1.758H0v1.242c0,4.545,4.415,4.545,4.415,4.545   h91.023c0,0,4.562,0,4.562-4.545v-1.242H58.789z"
       id="path6" /><path
       d="M49.862,52.509c-0.019,0-0.047-0.005-0.071-0.028l-7.65-7.65c-0.543-0.543-1.264-0.842-2.032-0.842   c-0.767,0-1.488,0.299-2.031,0.842c-0.542,0.542-0.841,1.263-0.841,2.03c0,0.768,0.299,1.489,0.842,2.03l9.752,9.752   c0.542,0.543,1.264,0.844,2.032,0.844c0.767,0,1.488-0.299,2.03-0.842l34.399-34.401c0.54-0.54,0.84-1.261,0.842-2.03   c-0.001-0.769-0.3-1.49-0.842-2.032c-0.543-0.542-1.264-0.842-2.031-0.842s-1.489,0.299-2.031,0.842L49.934,52.48   C49.911,52.504,49.882,52.509,49.862,52.509z"
       id="path8" /><path
       d="M14.224,31.508v-0.21c0-1.157,0.941-2.1,2.099-2.1h52.438l4.74-4.741H16.323c-3.772,0-6.84,3.071-6.84,6.841v0.21v40.216   h4.741V31.508z M49.851,26.077c0.413,0,0.75,0.335,0.75,0.75s-0.338,0.75-0.75,0.75c-0.415,0-0.75-0.335-0.75-0.75   S49.436,26.077,49.851,26.077z"
       id="path10" /><path
       d="M85.479,31.298v0.209v40.217h4.741V31.507v-0.209c0-1.806-0.708-3.446-1.855-4.669l-3.358,3.359   C85.297,30.348,85.479,30.8,85.479,31.298z"
       id="path12" /></g></svg>