<?xml version="1.0" encoding="UTF-8" standalone="no"?>
<svg
   xmlns:dc="http://purl.org/dc/elements/1.1/"
   xmlns:cc="http://creativecommons.org/ns#"
   xmlns:rdf="http://www.w3.org/1999/02/22-rdf-syntax-ns#"
   xmlns:svg="http://www.w3.org/2000/svg"
   xmlns="http://www.w3.org/2000/svg"
   xmlns:sodipodi="http://sodipodi.sourceforge.net/DTD/sodipodi-0.dtd"
   xmlns:inkscape="http://www.inkscape.org/namespaces/inkscape"
   version="1.1"
   x="0px"
   y="0px"
   viewBox="0 0 100 125"
   enable-background="new 0 0 100 100"
   xml:space="preserve"
   id="svg2"
   inkscape:version="0.91 r13725"
   sodipodi:docname="universal.svg"><metadata
     id="metadata14"><rdf:RDF><cc:Work
         rdf:about=""><dc:format>image/svg+xml</dc:format><dc:type
           rdf:resource="http://purl.org/dc/dcmitype/StillImage" /></cc:Work></rdf:RDF></metadata><defs
     id="defs12" /><sodipodi:namedview
     pagecolor="#ffffff"
     bordercolor="#666666"
     borderopacity="1"
     objecttolerance="10"
     gridtolerance="10"
     guidetolerance="10"
     inkscape:pageopacity="0"
     inkscape:pageshadow="2"
     inkscape:window-width="640"
     inkscape:window-height="480"
     id="namedview10"
     showgrid="false"
     inkscape:zoom="1.888"
     inkscape:cx="50"
     inkscape:cy="62.5"
     inkscape:window-x="0"
     inkscape:window-y="48"
     inkscape:window-maximized="0"
     inkscape:current-layer="svg2" /><path
     d="M86.342,61.301c1.113-3.571,1.713-7.368,1.713-11.303c0-4.435-0.801-8.679-2.203-12.642c2.6-1.367,4.389-4.066,4.389-7.209  c0-4.518-3.662-8.18-8.18-8.18c-1.789,0-3.43,0.59-4.773,1.562c-5.111-5.268-11.721-9.058-19.141-10.684C57.967,8.485,54.404,5,50,5  c-4.404,0-7.968,3.489-8.146,7.847c-7.419,1.626-14.026,5.416-19.138,10.684c-1.346-0.973-2.986-1.562-4.774-1.562  c-4.519,0-8.181,3.662-8.181,8.18c0,3.143,1.791,5.838,4.389,7.209c-1.401,3.963-2.204,8.207-2.204,12.642  c0,3.935,0.601,7.731,1.713,11.303c-1.173,0.723-2.197,1.72-2.903,3.015c-2.163,3.97-0.696,8.939,3.268,11.098  c2.508,1.37,5.413,1.279,7.761,0.03c5.228,5.795,12.183,9.983,20.07,11.712C42.035,91.515,45.598,95,50,95  c4.405,0,7.963-3.485,8.147-7.845c7.889-1.729,14.842-5.917,20.07-11.712c2.346,1.249,5.25,1.34,7.76-0.03  c3.963-2.158,5.432-7.128,3.268-11.098C88.537,63.021,87.516,62.023,86.342,61.301z M85.742,49.998  c0,3.599-0.549,7.071-1.543,10.351c-1.961-0.531-4.121-0.352-6.053,0.696c-1.375,0.75-2.426,1.85-3.152,3.113l-17.51-10.873  c0.441-1.01,0.695-2.115,0.695-3.287c0-1.17-0.254-2.275-0.697-3.281l18.309-11.371c1.5,1.807,3.738,2.983,6.27,2.983  c0.559,0,1.1-0.057,1.625-0.162C84.996,41.876,85.742,45.847,85.742,49.998z M75.631,25.145c-1.08,1.388-1.748,3.108-1.748,5.003  c0,1.152,0.244,2.246,0.674,3.24L56.238,44.765c-1.262-1.506-3.043-2.539-5.08-2.828V21.245c3.299-0.469,5.949-2.891,6.75-6.075  C64.775,16.728,70.893,20.257,75.631,25.145z M42.092,15.17c0.8,3.184,3.45,5.606,6.751,6.075v20.691  c-2.037,0.289-3.815,1.322-5.08,2.826L25.449,33.388c0.431-0.994,0.673-2.088,0.673-3.24c0-1.895-0.67-3.617-1.753-5.003  C29.11,20.257,35.225,16.728,42.092,15.17z M14.258,49.998c0-4.151,0.748-8.122,2.055-11.831c0.527,0.105,1.071,0.162,1.628,0.162  c2.536,0,4.773-1.177,6.272-2.987L42.52,46.71c-0.444,1.01-0.7,2.118-0.7,3.288c0,1.172,0.254,2.281,0.698,3.289L25.009,64.162  c-0.727-1.266-1.778-2.367-3.156-3.117c-1.928-1.048-4.091-1.228-6.054-0.696C14.805,57.069,14.258,53.597,14.258,49.998z   M23.636,74.05c0.568-0.556,1.089-1.172,1.488-1.904c1.006-1.846,1.197-3.899,0.747-5.796l17.892-11.114  c1.265,1.506,3.042,2.539,5.081,2.827v20.692c-3.301,0.471-5.954,2.893-6.753,6.074C34.858,83.188,28.472,79.347,23.636,74.05z   M57.908,84.829c-0.797-3.182-3.451-5.604-6.75-6.074V58.062c2.037-0.288,3.818-1.323,5.082-2.83l17.889,11.113  c-0.451,1.896-0.258,3.954,0.748,5.8c0.4,0.732,0.916,1.349,1.486,1.904C71.527,79.347,65.141,83.188,57.908,84.829z"
     id="path4" /></svg>