<?xml version="1.0" encoding="utf-8" standalone="no"?>
<!DOCTYPE svg PUBLIC "-//W3C//DTD SVG 1.1//EN"
  "http://www.w3.org/Graphics/SVG/1.1/DTD/svg11.dtd">
<!-- Created with matplotlib (http://matplotlib.org/) -->
<svg height="1247pt" version="1.1" viewBox="0 0 2056 1247" width="2056pt" xmlns="http://www.w3.org/2000/svg" xmlns:xlink="http://www.w3.org/1999/xlink">
 <defs>
  <style type="text/css">
*{stroke-linecap:butt;stroke-linejoin:round;}
  </style>
 </defs>
 <g id="figure_1">
  <g id="patch_1">
   <path d="M 0 1247.76 
L 2056.32 1247.76 
L 2056.32 0 
L 0 0 
z
" style="fill:#ffffff;"/>
  </g>
  <g id="axes_1">
   <g id="patch_2">
    <path d="M 257.04 1122.984 
L 257.04 124.776 
" style="fill:none;stroke:#000000;stroke-linecap:square;stroke-linejoin:miter;stroke-width:0.8;"/>
   </g>
   <g id="patch_3">
    <path d="M 1850.688 1122.984 
L 1850.688 124.776 
" style="fill:none;stroke:#000000;stroke-linecap:square;stroke-linejoin:miter;stroke-width:0.8;"/>
   </g>
   <g id="patch_4">
    <path d="M 257.04 1122.984 
L 1850.688 1122.984 
" style="fill:none;stroke:#000000;stroke-linecap:square;stroke-linejoin:miter;stroke-width:0.8;"/>
   </g>
   <g id="patch_5">
    <path d="M 257.04 124.776 
L 1850.688 124.776 
" style="fill:none;stroke:#000000;stroke-linecap:square;stroke-linejoin:miter;stroke-width:0.8;"/>
   </g>
  </g>
  <g id="axes_2">
   <g id="patch_6">
    <path d="M 257.04 1122.984 
L 1850.688 1122.984 
L 1850.688 124.776 
L 257.04 124.776 
z
" style="fill:none;"/>
   </g>
   <g id="matplotlib.axis_1">
    <g id="xtick_1">
     <g id="line2d_1">
      <path clip-path="url(#p6ee8728769)" d="M 271.483048 1122.984 
L 271.483048 124.776 
" style="fill:none;stroke:#000000;stroke-dasharray:1.85,0.8;stroke-dashoffset:0;stroke-width:0.5;"/>
     </g>
     <g id="line2d_2">
      <defs>
       <path d="M 0 0 
L 0 3.5 
" id="ma6b61a23f3" style="stroke:#000000;stroke-width:0.8;"/>
      </defs>
      <g>
       <use style="stroke:#000000;stroke-width:0.8;" x="271.483048" xlink:href="#ma6b61a23f3" y="1122.984"/>
      </g>
     </g>
     <g id="text_1">
      <!-- 4 -->
      <defs>
       <path d="M 37.796875 64.3125 
L 12.890625 25.390625 
L 37.796875 25.390625 
z
M 35.203125 72.90625 
L 47.609375 72.90625 
L 47.609375 25.390625 
L 58.015625 25.390625 
L 58.015625 17.1875 
L 47.609375 17.1875 
L 47.609375 0 
L 37.796875 0 
L 37.796875 17.1875 
L 4.890625 17.1875 
L 4.890625 26.703125 
z
" id="DejaVuSans-34"/>
      </defs>
      <g transform="translate(265.120548 1145.180875)scale(0.2 -0.2)">
       <use xlink:href="#DejaVuSans-34"/>
      </g>
     </g>
    </g>
    <g id="xtick_2">
     <g id="line2d_3">
      <path clip-path="url(#p6ee8728769)" d="M 507.673524 1122.984 
L 507.673524 124.776 
" style="fill:none;stroke:#000000;stroke-dasharray:1.85,0.8;stroke-dashoffset:0;stroke-width:0.5;"/>
     </g>
     <g id="line2d_4">
      <g>
       <use style="stroke:#000000;stroke-width:0.8;" x="507.673524" xlink:href="#ma6b61a23f3" y="1122.984"/>
      </g>
     </g>
     <g id="text_2">
      <!-- 5 -->
      <defs>
       <path d="M 10.796875 72.90625 
L 49.515625 72.90625 
L 49.515625 64.59375 
L 19.828125 64.59375 
L 19.828125 46.734375 
Q 21.96875 47.46875 24.109375 47.828125 
Q 26.265625 48.1875 28.421875 48.1875 
Q 40.625 48.1875 47.75 41.5 
Q 54.890625 34.8125 54.890625 23.390625 
Q 54.890625 11.625 47.5625 5.09375 
Q 40.234375 -1.421875 26.90625 -1.421875 
Q 22.3125 -1.421875 17.546875 -0.640625 
Q 12.796875 0.140625 7.71875 1.703125 
L 7.71875 11.625 
Q 12.109375 9.234375 16.796875 8.0625 
Q 21.484375 6.890625 26.703125 6.890625 
Q 35.15625 6.890625 40.078125 11.328125 
Q 45.015625 15.765625 45.015625 23.390625 
Q 45.015625 31 40.078125 35.4375 
Q 35.15625 39.890625 26.703125 39.890625 
Q 22.75 39.890625 18.8125 39.015625 
Q 14.890625 38.140625 10.796875 36.28125 
z
" id="DejaVuSans-35"/>
      </defs>
      <g transform="translate(501.311024 1145.180875)scale(0.2 -0.2)">
       <use xlink:href="#DejaVuSans-35"/>
      </g>
     </g>
    </g>
    <g id="xtick_3">
     <g id="line2d_5">
      <path clip-path="url(#p6ee8728769)" d="M 743.864 1122.984 
L 743.864 124.776 
" style="fill:none;stroke:#000000;stroke-dasharray:1.85,0.8;stroke-dashoffset:0;stroke-width:0.5;"/>
     </g>
     <g id="line2d_6">
      <g>
       <use style="stroke:#000000;stroke-width:0.8;" x="743.864" xlink:href="#ma6b61a23f3" y="1122.984"/>
      </g>
     </g>
     <g id="text_3">
      <!-- 6 -->
      <defs>
       <path d="M 33.015625 40.375 
Q 26.375 40.375 22.484375 35.828125 
Q 18.609375 31.296875 18.609375 23.390625 
Q 18.609375 15.53125 22.484375 10.953125 
Q 26.375 6.390625 33.015625 6.390625 
Q 39.65625 6.390625 43.53125 10.953125 
Q 47.40625 15.53125 47.40625 23.390625 
Q 47.40625 31.296875 43.53125 35.828125 
Q 39.65625 40.375 33.015625 40.375 
z
M 52.59375 71.296875 
L 52.59375 62.3125 
Q 48.875 64.0625 45.09375 64.984375 
Q 41.3125 65.921875 37.59375 65.921875 
Q 27.828125 65.921875 22.671875 59.328125 
Q 17.53125 52.734375 16.796875 39.40625 
Q 19.671875 43.65625 24.015625 45.921875 
Q 28.375 48.1875 33.59375 48.1875 
Q 44.578125 48.1875 50.953125 41.515625 
Q 57.328125 34.859375 57.328125 23.390625 
Q 57.328125 12.15625 50.6875 5.359375 
Q 44.046875 -1.421875 33.015625 -1.421875 
Q 20.359375 -1.421875 13.671875 8.265625 
Q 6.984375 17.96875 6.984375 36.375 
Q 6.984375 53.65625 15.1875 63.9375 
Q 23.390625 74.21875 37.203125 74.21875 
Q 40.921875 74.21875 44.703125 73.484375 
Q 48.484375 72.75 52.59375 71.296875 
z
" id="DejaVuSans-36"/>
      </defs>
      <g transform="translate(737.5015 1145.180875)scale(0.2 -0.2)">
       <use xlink:href="#DejaVuSans-36"/>
      </g>
     </g>
    </g>
    <g id="xtick_4">
     <g id="line2d_7">
      <path clip-path="url(#p6ee8728769)" d="M 980.054476 1122.984 
L 980.054476 124.776 
" style="fill:none;stroke:#000000;stroke-dasharray:1.85,0.8;stroke-dashoffset:0;stroke-width:0.5;"/>
     </g>
     <g id="line2d_8">
      <g>
       <use style="stroke:#000000;stroke-width:0.8;" x="980.054476" xlink:href="#ma6b61a23f3" y="1122.984"/>
      </g>
     </g>
     <g id="text_4">
      <!-- 7 -->
      <defs>
       <path d="M 8.203125 72.90625 
L 55.078125 72.90625 
L 55.078125 68.703125 
L 28.609375 0 
L 18.3125 0 
L 43.21875 64.59375 
L 8.203125 64.59375 
z
" id="DejaVuSans-37"/>
      </defs>
      <g transform="translate(973.691976 1145.180875)scale(0.2 -0.2)">
       <use xlink:href="#DejaVuSans-37"/>
      </g>
     </g>
    </g>
    <g id="xtick_5">
     <g id="line2d_9">
      <path clip-path="url(#p6ee8728769)" d="M 1216.244952 1122.984 
L 1216.244952 124.776 
" style="fill:none;stroke:#000000;stroke-dasharray:1.85,0.8;stroke-dashoffset:0;stroke-width:0.5;"/>
     </g>
     <g id="line2d_10">
      <g>
       <use style="stroke:#000000;stroke-width:0.8;" x="1216.244952" xlink:href="#ma6b61a23f3" y="1122.984"/>
      </g>
     </g>
     <g id="text_5">
      <!-- 8 -->
      <defs>
       <path d="M 31.78125 34.625 
Q 24.75 34.625 20.71875 30.859375 
Q 16.703125 27.09375 16.703125 20.515625 
Q 16.703125 13.921875 20.71875 10.15625 
Q 24.75 6.390625 31.78125 6.390625 
Q 38.8125 6.390625 42.859375 10.171875 
Q 46.921875 13.96875 46.921875 20.515625 
Q 46.921875 27.09375 42.890625 30.859375 
Q 38.875 34.625 31.78125 34.625 
z
M 21.921875 38.8125 
Q 15.578125 40.375 12.03125 44.71875 
Q 8.5 49.078125 8.5 55.328125 
Q 8.5 64.0625 14.71875 69.140625 
Q 20.953125 74.21875 31.78125 74.21875 
Q 42.671875 74.21875 48.875 69.140625 
Q 55.078125 64.0625 55.078125 55.328125 
Q 55.078125 49.078125 51.53125 44.71875 
Q 48 40.375 41.703125 38.8125 
Q 48.828125 37.15625 52.796875 32.3125 
Q 56.78125 27.484375 56.78125 20.515625 
Q 56.78125 9.90625 50.3125 4.234375 
Q 43.84375 -1.421875 31.78125 -1.421875 
Q 19.734375 -1.421875 13.25 4.234375 
Q 6.78125 9.90625 6.78125 20.515625 
Q 6.78125 27.484375 10.78125 32.3125 
Q 14.796875 37.15625 21.921875 38.8125 
z
M 18.3125 54.390625 
Q 18.3125 48.734375 21.84375 45.5625 
Q 25.390625 42.390625 31.78125 42.390625 
Q 38.140625 42.390625 41.71875 45.5625 
Q 45.3125 48.734375 45.3125 54.390625 
Q 45.3125 60.0625 41.71875 63.234375 
Q 38.140625 66.40625 31.78125 66.40625 
Q 25.390625 66.40625 21.84375 63.234375 
Q 18.3125 60.0625 18.3125 54.390625 
z
" id="DejaVuSans-38"/>
      </defs>
      <g transform="translate(1209.882452 1145.180875)scale(0.2 -0.2)">
       <use xlink:href="#DejaVuSans-38"/>
      </g>
     </g>
    </g>
    <g id="xtick_6">
     <g id="line2d_11">
      <path clip-path="url(#p6ee8728769)" d="M 1452.435429 1122.984 
L 1452.435429 124.776 
" style="fill:none;stroke:#000000;stroke-dasharray:1.85,0.8;stroke-dashoffset:0;stroke-width:0.5;"/>
     </g>
     <g id="line2d_12">
      <g>
       <use style="stroke:#000000;stroke-width:0.8;" x="1452.435429" xlink:href="#ma6b61a23f3" y="1122.984"/>
      </g>
     </g>
     <g id="text_6">
      <!-- 9 -->
      <defs>
       <path d="M 10.984375 1.515625 
L 10.984375 10.5 
Q 14.703125 8.734375 18.5 7.8125 
Q 22.3125 6.890625 25.984375 6.890625 
Q 35.75 6.890625 40.890625 13.453125 
Q 46.046875 20.015625 46.78125 33.40625 
Q 43.953125 29.203125 39.59375 26.953125 
Q 35.25 24.703125 29.984375 24.703125 
Q 19.046875 24.703125 12.671875 31.3125 
Q 6.296875 37.9375 6.296875 49.421875 
Q 6.296875 60.640625 12.9375 67.421875 
Q 19.578125 74.21875 30.609375 74.21875 
Q 43.265625 74.21875 49.921875 64.515625 
Q 56.59375 54.828125 56.59375 36.375 
Q 56.59375 19.140625 48.40625 8.859375 
Q 40.234375 -1.421875 26.421875 -1.421875 
Q 22.703125 -1.421875 18.890625 -0.6875 
Q 15.09375 0.046875 10.984375 1.515625 
z
M 30.609375 32.421875 
Q 37.25 32.421875 41.125 36.953125 
Q 45.015625 41.5 45.015625 49.421875 
Q 45.015625 57.28125 41.125 61.84375 
Q 37.25 66.40625 30.609375 66.40625 
Q 23.96875 66.40625 20.09375 61.84375 
Q 16.21875 57.28125 16.21875 49.421875 
Q 16.21875 41.5 20.09375 36.953125 
Q 23.96875 32.421875 30.609375 32.421875 
z
" id="DejaVuSans-39"/>
      </defs>
      <g transform="translate(1446.072929 1145.180875)scale(0.2 -0.2)">
       <use xlink:href="#DejaVuSans-39"/>
      </g>
     </g>
    </g>
    <g id="xtick_7">
     <g id="line2d_13">
      <path clip-path="url(#p6ee8728769)" d="M 1688.625905 1122.984 
L 1688.625905 124.776 
" style="fill:none;stroke:#000000;stroke-dasharray:1.85,0.8;stroke-dashoffset:0;stroke-width:0.5;"/>
     </g>
     <g id="line2d_14">
      <g>
       <use style="stroke:#000000;stroke-width:0.8;" x="1688.625905" xlink:href="#ma6b61a23f3" y="1122.984"/>
      </g>
     </g>
     <g id="text_7">
      <!-- 10 -->
      <defs>
       <path d="M 12.40625 8.296875 
L 28.515625 8.296875 
L 28.515625 63.921875 
L 10.984375 60.40625 
L 10.984375 69.390625 
L 28.421875 72.90625 
L 38.28125 72.90625 
L 38.28125 8.296875 
L 54.390625 8.296875 
L 54.390625 0 
L 12.40625 0 
z
" id="DejaVuSans-31"/>
       <path d="M 31.78125 66.40625 
Q 24.171875 66.40625 20.328125 58.90625 
Q 16.5 51.421875 16.5 36.375 
Q 16.5 21.390625 20.328125 13.890625 
Q 24.171875 6.390625 31.78125 6.390625 
Q 39.453125 6.390625 43.28125 13.890625 
Q 47.125 21.390625 47.125 36.375 
Q 47.125 51.421875 43.28125 58.90625 
Q 39.453125 66.40625 31.78125 66.40625 
z
M 31.78125 74.21875 
Q 44.046875 74.21875 50.515625 64.515625 
Q 56.984375 54.828125 56.984375 36.375 
Q 56.984375 17.96875 50.515625 8.265625 
Q 44.046875 -1.421875 31.78125 -1.421875 
Q 19.53125 -1.421875 13.0625 8.265625 
Q 6.59375 17.96875 6.59375 36.375 
Q 6.59375 54.828125 13.0625 64.515625 
Q 19.53125 74.21875 31.78125 74.21875 
z
" id="DejaVuSans-30"/>
      </defs>
      <g transform="translate(1675.900905 1145.180875)scale(0.2 -0.2)">
       <use xlink:href="#DejaVuSans-31"/>
       <use x="63.623047" xlink:href="#DejaVuSans-30"/>
      </g>
     </g>
    </g>
   </g>
   <g id="matplotlib.axis_2">
    <g id="ytick_1">
     <g id="line2d_15">
      <path clip-path="url(#p6ee8728769)" d="M 257.04 981.261842 
L 1850.688 981.261842 
" style="fill:none;stroke:#000000;stroke-dasharray:1.85,0.8;stroke-dashoffset:0;stroke-width:0.5;"/>
     </g>
     <g id="line2d_16">
      <defs>
       <path d="M 0 0 
L -3.5 0 
" id="m0462b39908" style="stroke:#000000;stroke-width:0.8;"/>
      </defs>
      <g>
       <use style="stroke:#000000;stroke-width:0.8;" x="257.04" xlink:href="#m0462b39908" y="981.261842"/>
      </g>
     </g>
     <g id="text_8">
      <!-- −20 -->
      <defs>
       <path d="M 10.59375 35.5 
L 73.1875 35.5 
L 73.1875 27.203125 
L 10.59375 27.203125 
z
" id="DejaVuSans-2212"/>
       <path d="M 19.1875 8.296875 
L 53.609375 8.296875 
L 53.609375 0 
L 7.328125 0 
L 7.328125 8.296875 
Q 12.9375 14.109375 22.625 23.890625 
Q 32.328125 33.6875 34.8125 36.53125 
Q 39.546875 41.84375 41.421875 45.53125 
Q 43.3125 49.21875 43.3125 52.78125 
Q 43.3125 58.59375 39.234375 62.25 
Q 35.15625 65.921875 28.609375 65.921875 
Q 23.96875 65.921875 18.8125 64.3125 
Q 13.671875 62.703125 7.8125 59.421875 
L 7.8125 69.390625 
Q 13.765625 71.78125 18.9375 73 
Q 24.125 74.21875 28.421875 74.21875 
Q 39.75 74.21875 46.484375 68.546875 
Q 53.21875 62.890625 53.21875 53.421875 
Q 53.21875 48.921875 51.53125 44.890625 
Q 49.859375 40.875 45.40625 35.40625 
Q 44.1875 33.984375 37.640625 27.21875 
Q 31.109375 20.453125 19.1875 8.296875 
z
" id="DejaVuSans-32"/>
      </defs>
      <g transform="translate(207.830625 988.860279)scale(0.2 -0.2)">
       <use xlink:href="#DejaVuSans-2212"/>
       <use x="83.789062" xlink:href="#DejaVuSans-32"/>
       <use x="147.412109" xlink:href="#DejaVuSans-30"/>
      </g>
     </g>
    </g>
    <g id="ytick_2">
     <g id="line2d_17">
      <path clip-path="url(#p6ee8728769)" d="M 257.04 814.359869 
L 1850.688 814.359869 
" style="fill:none;stroke:#000000;stroke-dasharray:1.85,0.8;stroke-dashoffset:0;stroke-width:0.5;"/>
     </g>
     <g id="line2d_18">
      <g>
       <use style="stroke:#000000;stroke-width:0.8;" x="257.04" xlink:href="#m0462b39908" y="814.359869"/>
      </g>
     </g>
     <g id="text_9">
      <!-- −15 -->
      <g transform="translate(207.830625 821.958306)scale(0.2 -0.2)">
       <use xlink:href="#DejaVuSans-2212"/>
       <use x="83.789062" xlink:href="#DejaVuSans-31"/>
       <use x="147.412109" xlink:href="#DejaVuSans-35"/>
      </g>
     </g>
    </g>
    <g id="ytick_3">
     <g id="line2d_19">
      <path clip-path="url(#p6ee8728769)" d="M 257.04 647.457896 
L 1850.688 647.457896 
" style="fill:none;stroke:#000000;stroke-dasharray:1.85,0.8;stroke-dashoffset:0;stroke-width:0.5;"/>
     </g>
     <g id="line2d_20">
      <g>
       <use style="stroke:#000000;stroke-width:0.8;" x="257.04" xlink:href="#m0462b39908" y="647.457896"/>
      </g>
     </g>
     <g id="text_10">
      <!-- −10 -->
      <g transform="translate(207.830625 655.056333)scale(0.2 -0.2)">
       <use xlink:href="#DejaVuSans-2212"/>
       <use x="83.789062" xlink:href="#DejaVuSans-31"/>
       <use x="147.412109" xlink:href="#DejaVuSans-30"/>
      </g>
     </g>
    </g>
    <g id="ytick_4">
     <g id="line2d_21">
      <path clip-path="url(#p6ee8728769)" d="M 257.04 480.555923 
L 1850.688 480.555923 
" style="fill:none;stroke:#000000;stroke-dasharray:1.85,0.8;stroke-dashoffset:0;stroke-width:0.5;"/>
     </g>
     <g id="line2d_22">
      <g>
       <use style="stroke:#000000;stroke-width:0.8;" x="257.04" xlink:href="#m0462b39908" y="480.555923"/>
      </g>
     </g>
     <g id="text_11">
      <!-- −5 -->
      <g transform="translate(220.555625 488.154361)scale(0.2 -0.2)">
       <use xlink:href="#DejaVuSans-2212"/>
       <use x="83.789062" xlink:href="#DejaVuSans-35"/>
      </g>
     </g>
    </g>
    <g id="ytick_5">
     <g id="line2d_23">
      <path clip-path="url(#p6ee8728769)" d="M 257.04 313.65395 
L 1850.688 313.65395 
" style="fill:none;stroke:#000000;stroke-dasharray:1.85,0.8;stroke-dashoffset:0;stroke-width:0.5;"/>
     </g>
     <g id="line2d_24">
      <g>
       <use style="stroke:#000000;stroke-width:0.8;" x="257.04" xlink:href="#m0462b39908" y="313.65395"/>
      </g>
     </g>
     <g id="text_12">
      <!-- 0 -->
      <g transform="translate(237.315 321.252388)scale(0.2 -0.2)">
       <use xlink:href="#DejaVuSans-30"/>
      </g>
     </g>
    </g>
    <g id="ytick_6">
     <g id="line2d_25">
      <path clip-path="url(#p6ee8728769)" d="M 257.04 146.751977 
L 1850.688 146.751977 
" style="fill:none;stroke:#000000;stroke-dasharray:1.85,0.8;stroke-dashoffset:0;stroke-width:0.5;"/>
     </g>
     <g id="line2d_26">
      <g>
       <use style="stroke:#000000;stroke-width:0.8;" x="257.04" xlink:href="#m0462b39908" y="146.751977"/>
      </g>
     </g>
     <g id="text_13">
      <!-- 5 -->
      <g transform="translate(237.315 154.350415)scale(0.2 -0.2)">
       <use xlink:href="#DejaVuSans-35"/>
      </g>
     </g>
    </g>
   </g>
   <g id="line2d_27">
    <path clip-path="url(#p6ee8728769)" d="M 272.664 981.261842 
L 1455.978286 981.261842 
L 1457.159238 347.034345 
L 1835.064 347.034345 
L 1835.064 347.034345 
" style="fill:none;stroke:#377eb8;stroke-linecap:square;stroke-width:3;"/>
   </g>
   <g id="line2d_28">
    <path clip-path="url(#p6ee8728769)" d="M 272.664 281.505359 
L 273.844952 162.933568 
L 275.025905 134.562353 
L 276.206857 201.538978 
L 277.38781 177.329796 
L 278.568762 179.445526 
L 279.749714 179.42656 
L 280.930667 177.750873 
L 282.111619 179.816629 
L 283.292571 184.36211 
L 284.473524 192.224082 
L 285.654476 202.505877 
L 288.016381 227.855484 
L 291.559238 268.586318 
L 293.921143 292.938873 
L 295.102095 303.369528 
L 296.283048 312.35494 
L 297.464 319.711175 
L 298.644952 325.366465 
L 299.825905 329.221027 
L 301.006857 331.35936 
L 302.18781 331.825779 
L 303.368762 330.744809 
L 304.549714 328.322917 
L 305.730667 324.807346 
L 306.911619 320.343717 
L 309.273524 309.70462 
L 312.816381 292.922012 
L 313.997333 288.009109 
L 315.178286 283.590571 
L 316.359238 279.973045 
L 317.54019 277.048284 
L 318.721143 274.961807 
L 319.902095 273.873643 
L 321.083048 273.467122 
L 322.264 273.963935 
L 323.444952 275.180529 
L 324.625905 277.060558 
L 325.806857 279.519322 
L 326.98781 282.457259 
L 329.349714 289.222395 
L 334.073524 303.832197 
L 336.435429 310.234049 
L 338.797333 315.511636 
L 339.978286 317.593721 
L 341.159238 319.299489 
L 342.34019 320.705665 
L 343.521143 321.779429 
L 344.702095 322.612294 
L 345.883048 323.183589 
L 348.244952 323.575231 
L 349.425905 323.551302 
L 351.78781 323.171722 
L 357.692571 321.88951 
L 360.054476 321.639291 
L 362.416381 321.656314 
L 365.959238 322.076319 
L 370.683048 323.005915 
L 373.044952 323.392589 
L 375.406857 323.683285 
L 377.768762 323.655297 
L 380.130667 323.486335 
L 382.492571 323.059702 
L 384.854476 322.426313 
L 387.216381 321.60294 
L 390.759238 320.134169 
L 394.302095 318.401331 
L 397.844952 316.634546 
L 402.568762 314.322273 
L 407.292571 312.215503 
L 413.197333 309.945795 
L 419.102095 308.184529 
L 423.825905 307.126868 
L 429.730667 306.244619 
L 436.816381 305.82737 
L 443.902095 305.897142 
L 455.711619 306.887502 
L 462.797333 307.923607 
L 472.244952 309.936817 
L 475.78781 310.849002 
L 482.873524 312.982174 
L 485.235429 313.760859 
L 491.14019 315.840366 
L 493.502095 316.693874 
L 500.58781 319.34868 
L 501.768762 319.852528 
L 504.130667 320.583013 
L 505.311619 321.099983 
L 506.492571 321.446023 
L 508.854476 322.336677 
L 515.94019 324.548596 
L 520.664 325.735089 
L 526.568762 326.731869 
L 528.930667 327.01567 
L 536.016381 327.08276 
L 540.74019 326.58715 
L 544.283048 325.975657 
L 549.006857 324.800453 
L 556.092571 322.336517 
L 561.997333 319.936952 
L 571.444952 315.755989 
L 577.349714 313.259613 
L 584.435429 310.726117 
L 586.797333 309.995605 
L 591.521143 308.8535 
L 595.064 308.243559 
L 598.606857 307.852244 
L 600.968762 307.695214 
L 604.511619 307.663387 
L 609.235429 307.932059 
L 615.14019 308.802681 
L 621.044952 310.093373 
L 625.768762 311.334039 
L 630.492571 312.798123 
L 636.397333 314.69106 
L 644.664 317.354762 
L 655.292571 320.415589 
L 657.654476 321.005587 
L 660.016381 321.574032 
L 665.921143 322.706905 
L 670.644952 323.472188 
L 673.006857 323.727851 
L 682.454476 324.37741 
L 684.816381 324.353925 
L 685.997333 324.451578 
L 690.721143 324.271448 
L 696.625905 323.899437 
L 707.254476 322.328036 
L 720.244952 319.417047 
L 727.330667 317.517223 
L 737.959238 314.581381 
L 740.321143 313.962862 
L 741.502095 1113.197647 
L 742.683048 669.750997 
L 743.864 677.56321 
L 745.044952 689.783831 
L 746.225905 676.056669 
L 747.406857 679.183345 
L 749.768762 639.239497 
L 752.130667 605.255188 
L 754.492571 573.889067 
L 756.854476 545.295449 
L 758.035429 532.188977 
L 760.397333 508.390377 
L 761.578286 498.480758 
L 763.94019 481.475408 
L 765.121143 474.442741 
L 767.483048 463.674187 
L 768.664 459.057319 
L 771.025905 452.48652 
L 773.38781 448.749276 
L 775.749714 447.636057 
L 776.930667 447.935465 
L 778.111619 448.741861 
L 779.292571 450.229847 
L 780.473524 452.740291 
L 782.835429 458.956856 
L 784.016381 462.798251 
L 785.197333 467.510939 
L 787.559238 478.998999 
L 789.921143 492.153468 
L 793.464 517.369414 
L 797.006857 545.514165 
L 800.549714 576.448309 
L 806.454476 630.309926 
L 808.816381 652.360134 
L 815.902095 711.563495 
L 818.264 729.459022 
L 820.625905 744.812628 
L 822.98781 759.983054 
L 826.530667 779.074384 
L 828.892571 790.049597 
L 831.254476 799.306559 
L 835.978286 814.372518 
L 838.34019 819.401946 
L 839.521143 821.845856 
L 843.064 827.439529 
L 844.244952 827.805733 
L 845.425905 829.299982 
L 846.606857 830.532687 
L 847.78781 831.205439 
L 848.968762 832.181759 
L 852.511619 833.888499 
L 853.692571 834.601122 
L 854.873524 834.590469 
L 856.054476 835.260803 
L 858.416381 837.232536 
L 860.778286 838.409313 
L 861.959238 839.615181 
L 864.321143 841.462995 
L 865.502095 843.058696 
L 867.864 845.788686 
L 869.044952 847.345314 
L 870.225905 848.547368 
L 872.58781 852.61257 
L 873.768762 856.125059 
L 874.949714 857.20395 
L 877.311619 861.257047 
L 879.673524 865.953189 
L 880.854476 868.864761 
L 882.035429 871.399467 
L 883.216381 874.684998 
L 884.397333 877.082019 
L 885.578286 880.07708 
L 886.759238 882.66902 
L 887.94019 886.67742 
L 889.121143 888.215284 
L 891.483048 893.399967 
L 892.664 897.078434 
L 893.844952 899.009574 
L 895.025905 902.134391 
L 896.206857 904.780606 
L 897.38781 905.514006 
L 898.568762 907.994923 
L 899.749714 910.039343 
L 900.930667 911.702763 
L 902.111619 913.978756 
L 904.473524 917.635378 
L 905.654476 919.103051 
L 906.835429 920.762151 
L 908.016381 922.048752 
L 909.197333 923.108552 
L 910.378286 924.516046 
L 911.559238 925.64227 
L 912.74019 926.349419 
L 913.921143 927.316729 
L 916.283048 928.924995 
L 917.464 929.284683 
L 918.644952 929.978101 
L 919.825905 930.186987 
L 921.006857 931.116624 
L 922.18781 931.050664 
L 924.549714 931.790488 
L 925.730667 932.491806 
L 926.911619 931.789667 
L 928.092571 933.189947 
L 929.273524 932.682617 
L 930.454476 932.561148 
L 931.635429 933.174913 
L 933.997333 933.409839 
L 935.178286 933.539399 
L 936.359238 934.478344 
L 937.54019 934.963895 
L 938.721143 934.723811 
L 939.902095 935.070857 
L 942.264 936.180269 
L 943.444952 936.045365 
L 944.625905 937.671455 
L 945.806857 936.963152 
L 946.98781 937.82327 
L 948.168762 938.146098 
L 949.349714 939.088516 
L 950.530667 939.847343 
L 951.711619 940.972257 
L 952.892571 942.587851 
L 954.073524 942.192549 
L 955.254476 942.772852 
L 956.435429 944.440528 
L 957.616381 944.471852 
L 958.797333 945.728245 
L 959.978286 947.581699 
L 961.159238 947.964739 
L 962.34019 949.485191 
L 963.521143 949.37977 
L 965.883048 951.4356 
L 967.064 952.049312 
L 968.244952 953.80576 
L 969.425905 953.701867 
L 970.606857 954.626537 
L 971.78781 956.093175 
L 972.968762 956.800191 
L 974.149714 957.772456 
L 975.330667 957.798631 
L 977.692571 958.995585 
L 978.873524 959.421405 
L 980.054476 960.959112 
L 981.235429 960.9268 
L 983.597333 961.334998 
L 985.959238 961.898553 
L 987.14019 962.547439 
L 989.502095 963.010895 
L 990.683048 963.112484 
L 991.864 964.096558 
L 993.044952 963.908815 
L 994.225905 964.137875 
L 995.406857 963.478994 
L 996.58781 964.015435 
L 997.768762 964.113779 
L 998.949714 964.717688 
L 1000.130667 964.986747 
L 1001.311619 964.14203 
L 1002.492571 964.228858 
L 1003.673524 964.937272 
L 1004.854476 964.362809 
L 1006.035429 964.113139 
L 1007.216381 964.246899 
L 1008.397333 964.152038 
L 1009.578286 964.894611 
L 1010.759238 964.550755 
L 1011.94019 963.804512 
L 1013.121143 964.181983 
L 1014.302095 964.860413 
L 1015.483048 964.955142 
L 1016.664 964.693228 
L 1017.844952 965.228957 
L 1019.025905 964.928731 
L 1020.206857 965.328966 
L 1021.38781 965.13632 
L 1022.568762 965.63999 
L 1023.749714 965.832046 
L 1024.930667 966.371757 
L 1026.111619 966.667662 
L 1027.292571 966.768415 
L 1028.473524 967.028054 
L 1029.654476 967.449693 
L 1030.835429 968.210289 
L 1032.016381 968.073598 
L 1033.197333 969.311314 
L 1034.378286 968.335709 
L 1035.559238 968.517604 
L 1036.74019 969.462636 
L 1037.921143 969.672587 
L 1039.102095 969.622189 
L 1040.283048 970.193564 
L 1041.464 970.183039 
L 1042.644952 971.096897 
L 1043.825905 971.421971 
L 1045.006857 970.784566 
L 1046.18781 971.395458 
L 1047.368762 971.499807 
L 1048.549714 971.430632 
L 1049.730667 972.4737 
L 1050.911619 971.979945 
L 1052.092571 972.416185 
L 1053.273524 971.957714 
L 1054.454476 972.185098 
L 1055.635429 973.024954 
L 1056.816381 972.678407 
L 1059.178286 973.550944 
L 1061.54019 973.496895 
L 1062.721143 974.190582 
L 1063.902095 973.447829 
L 1065.083048 973.730735 
L 1066.264 973.602932 
L 1067.444952 973.807294 
L 1068.625905 973.492027 
L 1069.806857 973.441234 
L 1070.98781 974.051515 
L 1072.168762 974.236234 
L 1073.349714 974.094315 
L 1074.530667 974.270066 
L 1075.711619 973.711224 
L 1076.892571 973.869753 
L 1078.073524 973.437429 
L 1079.254476 973.73343 
L 1080.435429 973.666725 
L 1082.797333 973.689273 
L 1085.159238 974.626383 
L 1086.34019 973.624602 
L 1087.521143 973.929735 
L 1088.702095 974.471457 
L 1089.883048 974.0293 
L 1094.606857 974.477091 
L 1095.78781 974.370585 
L 1096.968762 974.675717 
L 1099.330667 974.515074 
L 1100.511619 974.795548 
L 1101.692571 974.451201 
L 1102.873524 974.88067 
L 1104.054476 974.610394 
L 1105.235429 975.343002 
L 1106.416381 974.456501 
L 1107.597333 974.889211 
L 1108.778286 974.788451 
L 1109.959238 975.164439 
L 1111.14019 975.421388 
L 1115.864 975.64408 
L 1117.044952 975.212275 
L 1118.225905 976.12366 
L 1119.406857 975.698629 
L 1120.58781 975.672718 
L 1121.768762 976.124172 
L 1122.949714 976.30883 
L 1124.130667 976.155205 
L 1125.311619 976.451301 
L 1127.673524 976.576019 
L 1128.854476 976.664527 
L 1130.035429 976.612352 
L 1131.216381 976.777597 
L 1133.578286 976.819324 
L 1135.94019 977.179618 
L 1137.121143 976.740177 
L 1138.302095 977.462013 
L 1139.483048 976.654805 
L 1140.664 976.992437 
L 1141.844952 977.003358 
L 1143.025905 976.844186 
L 1144.206857 977.125331 
L 1146.568762 976.568593 
L 1147.749714 976.946522 
L 1148.930667 976.490631 
L 1150.111619 977.285601 
L 1151.292571 976.908092 
L 1152.473524 976.252042 
L 1153.654476 976.765151 
L 1154.835429 976.962913 
L 1156.016381 976.253858 
L 1157.197333 976.874697 
L 1158.378286 977.06393 
L 1159.559238 977.01175 
L 1160.74019 976.805721 
L 1161.921143 977.073135 
L 1163.102095 977.015271 
L 1164.283048 977.117471 
L 1165.464 976.944346 
L 1166.644952 977.387734 
L 1167.825905 977.177454 
L 1169.006857 977.336739 
L 1179.635429 977.398536 
L 1180.816381 977.306269 
L 1181.997333 977.663275 
L 1183.178286 976.930817 
L 1184.359238 977.277699 
L 1185.54019 977.876493 
L 1186.721143 977.334907 
L 1187.902095 977.080697 
L 1189.083048 977.538944 
L 1190.264 977.278285 
L 1192.625905 977.606238 
L 1193.806857 977.389712 
L 1194.98781 977.810347 
L 1196.168762 977.645354 
L 1197.349714 977.829842 
L 1198.530667 977.864278 
L 1199.711619 977.740255 
L 1200.892571 977.863168 
L 1202.073524 977.755914 
L 1203.254476 977.950945 
L 1206.797333 978.052598 
L 1207.978286 977.825222 
L 1210.34019 977.778327 
L 1211.521143 977.738153 
L 1212.702095 977.930855 
L 1213.883048 977.909194 
L 1215.064 977.657431 
L 1216.244952 977.942245 
L 1217.425905 978.03992 
L 1218.606857 977.981105 
L 1219.78781 977.772999 
L 1223.330667 977.58886 
L 1224.511619 977.991709 
L 1226.873524 977.945291 
L 1230.416381 977.573631 
L 1231.597333 977.808394 
L 1235.14019 977.599011 
L 1236.321143 977.968057 
L 1237.502095 977.884083 
L 1238.683048 978.396055 
L 1239.864 978.12374 
L 1241.044952 977.545965 
L 1242.225905 977.531665 
L 1243.406857 977.940238 
L 1244.58781 978.057307 
L 1245.768762 977.622029 
L 1246.949714 978.054013 
L 1248.130667 977.905484 
L 1249.311619 977.893756 
L 1250.492571 978.135297 
L 1252.854476 977.807972 
L 1254.035429 978.094891 
L 1255.216381 977.749665 
L 1256.397333 978.176362 
L 1257.578286 978.10618 
L 1258.759238 978.217544 
L 1259.94019 977.965182 
L 1261.121143 977.916382 
L 1262.302095 978.08882 
L 1263.483048 978.390993 
L 1264.664 977.990646 
L 1265.844952 978.179293 
L 1267.025905 978.49544 
L 1268.206857 977.834264 
L 1269.38781 978.188443 
L 1270.568762 978.119344 
L 1271.749714 978.18697 
L 1272.930667 978.411298 
L 1274.111619 978.219531 
L 1275.292571 978.28488 
L 1276.473524 978.150018 
L 1277.654476 978.475926 
L 1278.835429 978.2349 
L 1281.197333 978.545216 
L 1282.378286 978.165011 
L 1283.559238 978.6343 
L 1284.74019 978.143024 
L 1285.921143 978.282016 
L 1287.102095 977.899787 
L 1288.283048 978.434927 
L 1289.464 978.243935 
L 1291.825905 978.188928 
L 1293.006857 978.326801 
L 1294.18781 978.136144 
L 1295.368762 978.435464 
L 1296.549714 978.490362 
L 1297.730667 978.658431 
L 1298.911619 978.18222 
L 1300.092571 977.860388 
L 1301.273524 978.206299 
L 1303.635429 977.791179 
L 1307.178286 978.248117 
L 1308.359238 977.863393 
L 1309.54019 978.171728 
L 1310.721143 978.355784 
L 1311.902095 977.669629 
L 1313.083048 977.917997 
L 1314.264 978.64819 
L 1315.444952 978.022777 
L 1316.625905 978.235203 
L 1317.806857 978.332351 
L 1318.98781 977.959903 
L 1320.168762 978.316248 
L 1321.349714 978.185146 
L 1322.530667 978.188819 
L 1323.711619 978.473523 
L 1324.892571 978.200846 
L 1326.073524 978.386323 
L 1327.254476 978.303065 
L 1328.435429 978.439078 
L 1331.978286 978.251515 
L 1334.34019 978.482389 
L 1335.521143 978.232515 
L 1336.702095 978.738535 
L 1339.064 978.258452 
L 1341.425905 978.241404 
L 1342.606857 978.464012 
L 1346.149714 978.305092 
L 1347.330667 978.574447 
L 1348.511619 978.543449 
L 1349.692571 978.307546 
L 1352.054476 978.576422 
L 1353.235429 978.130183 
L 1354.416381 978.182623 
L 1355.597333 978.580131 
L 1356.778286 978.018885 
L 1357.959238 978.220196 
L 1362.683048 978.331141 
L 1363.864 978.737726 
L 1365.044952 978.436315 
L 1369.768762 978.573995 
L 1370.949714 978.683601 
L 1373.311619 978.13761 
L 1374.492571 978.407518 
L 1375.673524 978.475952 
L 1378.035429 978.437631 
L 1380.397333 978.509445 
L 1381.578286 978.23049 
L 1382.759238 978.61546 
L 1385.121143 978.357028 
L 1386.302095 978.371136 
L 1387.483048 978.50567 
L 1388.664 978.522584 
L 1389.844952 978.746996 
L 1392.206857 978.185242 
L 1393.38781 978.528114 
L 1395.749714 978.664504 
L 1396.930667 978.560408 
L 1398.111619 978.320214 
L 1399.292571 978.585117 
L 1400.473524 978.401489 
L 1401.654476 978.509012 
L 1402.835429 978.401281 
L 1404.016381 978.556621 
L 1405.197333 978.367096 
L 1407.559238 978.532011 
L 1408.74019 978.259119 
L 1409.921143 978.731177 
L 1411.102095 978.491818 
L 1412.283048 978.585914 
L 1413.464 978.419301 
L 1414.644952 978.568902 
L 1415.825905 978.507443 
L 1417.006857 978.561482 
L 1418.18781 978.296996 
L 1419.368762 978.582388 
L 1420.549714 978.509883 
L 1422.911619 978.745764 
L 1424.092571 978.51637 
L 1426.454476 978.403628 
L 1427.635429 978.777267 
L 1428.816381 978.615862 
L 1431.178286 978.656831 
L 1432.359238 979.029669 
L 1433.54019 978.451624 
L 1434.721143 978.499693 
L 1435.902095 978.338136 
L 1437.083048 978.453799 
L 1438.264 978.332303 
L 1439.444952 978.725228 
L 1440.625905 978.412715 
L 1441.806857 978.271446 
L 1442.98781 978.60472 
L 1444.168762 978.756746 
L 1445.349714 978.407706 
L 1447.711619 978.804495 
L 1453.616381 978.654592 
L 1454.797333 978.914033 
L 1455.978286 978.64281 
L 1457.159238 979.312286 
L 1458.34019 930.481526 
L 1459.521143 887.603685 
L 1460.702095 879.06613 
L 1461.883048 854.460481 
L 1463.064 837.182395 
L 1465.425905 808.345038 
L 1466.606857 796.913703 
L 1467.78781 787.534214 
L 1468.968762 779.548302 
L 1470.149714 772.658023 
L 1471.330667 768.382624 
L 1472.511619 765.019418 
L 1473.692571 762.860175 
L 1474.873524 761.648147 
L 1476.054476 760.931594 
L 1477.235429 760.73838 
L 1478.416381 761.157509 
L 1479.597333 762.098464 
L 1480.778286 763.388343 
L 1481.959238 764.250221 
L 1485.502095 768.072452 
L 1486.683048 769.693397 
L 1487.864 772.787032 
L 1489.044952 774.120844 
L 1490.225905 775.167858 
L 1491.406857 774.071272 
L 1492.58781 774.087034 
L 1493.768762 772.530464 
L 1494.949714 770.128678 
L 1496.130667 770.041192 
L 1497.311619 765.574031 
L 1498.492571 763.838398 
L 1499.673524 759.522914 
L 1502.035429 752.476732 
L 1503.216381 746.753094 
L 1504.397333 742.192271 
L 1505.578286 736.361791 
L 1507.94019 723.45986 
L 1509.121143 717.620734 
L 1510.302095 710.658221 
L 1512.664 693.494565 
L 1513.844952 686.828051 
L 1515.025905 677.312355 
L 1516.206857 670.224727 
L 1518.568762 657.15124 
L 1522.111619 636.274935 
L 1523.292571 629.957059 
L 1524.473524 622.564085 
L 1525.654476 616.236351 
L 1529.197333 595.377072 
L 1531.559238 582.48514 
L 1536.283048 557.46873 
L 1541.006857 535.614969 
L 1544.549714 521.367408 
L 1548.092571 508.61262 
L 1552.816381 495.021678 
L 1555.178286 489.644829 
L 1556.359238 486.902373 
L 1557.54019 484.479801 
L 1561.083048 477.874095 
L 1562.264 476.204046 
L 1563.444952 474.258244 
L 1569.349714 466.633472 
L 1570.530667 465.543829 
L 1571.711619 463.695285 
L 1572.892571 462.676158 
L 1574.073524 461.24767 
L 1575.254476 460.367745 
L 1577.616381 457.233225 
L 1578.797333 456.251949 
L 1579.978286 454.720256 
L 1583.521143 450.832596 
L 1584.702095 449.450708 
L 1585.883048 447.799349 
L 1587.064 446.6587 
L 1588.244952 444.760893 
L 1590.606857 441.587556 
L 1591.78781 439.590547 
L 1592.968762 438.209737 
L 1596.511619 432.820907 
L 1597.692571 430.694735 
L 1598.873524 429.145793 
L 1603.597333 421.69929 
L 1604.778286 419.421626 
L 1607.14019 415.98648 
L 1608.321143 413.80603 
L 1609.502095 412.327468 
L 1610.683048 410.302517 
L 1613.044952 406.883024 
L 1615.406857 403.770131 
L 1618.949714 398.874332 
L 1620.130667 397.833785 
L 1621.311619 396.437054 
L 1622.492571 395.247294 
L 1623.673524 393.687719 
L 1627.216381 390.642903 
L 1628.397333 389.373963 
L 1634.302095 385.328076 
L 1636.664 384.111264 
L 1637.844952 383.364104 
L 1639.025905 383.104001 
L 1641.38781 381.761186 
L 1642.568762 381.704277 
L 1643.749714 380.960825 
L 1644.930667 380.598366 
L 1647.292571 379.602048 
L 1648.473524 379.276477 
L 1649.654476 379.100198 
L 1652.016381 378.229823 
L 1654.378286 377.519808 
L 1655.559238 377.293819 
L 1659.102095 375.5121 
L 1660.283048 375.806271 
L 1661.464 374.985911 
L 1662.644952 373.953782 
L 1666.18781 373.432608 
L 1667.368762 372.388333 
L 1668.549714 371.729691 
L 1669.730667 371.445488 
L 1670.911619 370.967069 
L 1672.092571 371.005885 
L 1673.273524 369.38347 
L 1674.454476 369.752149 
L 1675.635429 368.417201 
L 1676.816381 367.866354 
L 1677.997333 367.159276 
L 1680.359238 366.375096 
L 1681.54019 365.629419 
L 1688.625905 362.236132 
L 1689.806857 362.45257 
L 1690.98781 361.287262 
L 1692.168762 360.389392 
L 1693.349714 360.292303 
L 1694.530667 359.897742 
L 1695.711619 359.739697 
L 1699.254476 358.046654 
L 1700.435429 357.334953 
L 1701.616381 357.538412 
L 1702.797333 357.62191 
L 1705.159238 356.797846 
L 1706.34019 356.814278 
L 1707.521143 356.265521 
L 1708.702095 356.263505 
L 1709.883048 355.969004 
L 1711.064 355.897609 
L 1713.425905 355.468079 
L 1714.606857 355.404961 
L 1715.78781 355.178018 
L 1716.968762 355.108888 
L 1718.149714 354.670003 
L 1719.330667 354.905625 
L 1720.511619 354.901411 
L 1724.054476 354.24838 
L 1725.235429 354.778432 
L 1726.416381 354.424904 
L 1728.778286 354.342994 
L 1729.959238 354.004366 
L 1731.14019 353.990345 
L 1732.321143 353.764044 
L 1733.502095 353.835444 
L 1734.683048 353.595141 
L 1735.864 353.563358 
L 1737.044952 353.684089 
L 1738.225905 353.268771 
L 1740.58781 353.107949 
L 1741.768762 352.849277 
L 1742.949714 352.792742 
L 1744.130667 352.380705 
L 1745.311619 352.565449 
L 1746.492571 352.196106 
L 1748.854476 352.27851 
L 1750.035429 351.888708 
L 1751.216381 351.918014 
L 1752.397333 351.517254 
L 1753.578286 350.796214 
L 1754.759238 351.472216 
L 1755.94019 350.968087 
L 1757.121143 351.087908 
L 1758.302095 350.775081 
L 1759.483048 350.985025 
L 1760.664 350.344055 
L 1761.844952 349.943202 
L 1763.025905 350.027642 
L 1766.568762 349.667335 
L 1767.749714 349.230733 
L 1768.930667 349.676114 
L 1770.111619 349.470038 
L 1771.292571 349.472068 
L 1772.473524 349.141592 
L 1773.654476 348.931182 
L 1774.835429 348.949236 
L 1777.197333 348.668591 
L 1778.378286 348.82923 
L 1779.559238 348.277763 
L 1780.74019 348.480473 
L 1781.921143 348.409754 
L 1784.283048 348.846341 
L 1785.464 348.342993 
L 1786.644952 348.58086 
L 1787.825905 348.173955 
L 1789.006857 348.660666 
L 1790.18781 348.098962 
L 1791.368762 348.161038 
L 1792.549714 347.906042 
L 1793.730667 348.004086 
L 1794.911619 347.934746 
L 1796.092571 348.063947 
L 1798.454476 347.966007 
L 1799.635429 348.150129 
L 1800.816381 347.890811 
L 1801.997333 347.832176 
L 1804.359238 348.323724 
L 1805.54019 348.02209 
L 1806.721143 348.041585 
L 1807.902095 347.768757 
L 1810.264 348.119581 
L 1811.444952 347.875075 
L 1812.625905 347.771343 
L 1813.806857 347.821385 
L 1814.98781 348.272981 
L 1816.168762 347.802783 
L 1817.349714 347.7117 
L 1818.530667 347.732612 
L 1819.711619 347.457537 
L 1822.073524 347.899041 
L 1823.254476 347.594082 
L 1824.435429 347.473214 
L 1829.159238 347.576282 
L 1835.064 347.211446 
L 1835.064 347.211446 
" style="fill:none;stroke:#4daf4a;stroke-linecap:square;stroke-width:3;"/>
   </g>
   <g id="patch_7">
    <path d="M 257.04 1122.984 
L 257.04 124.776 
" style="fill:none;stroke:#000000;stroke-linecap:square;stroke-linejoin:miter;stroke-width:0.8;"/>
   </g>
   <g id="patch_8">
    <path d="M 1850.688 1122.984 
L 1850.688 124.776 
" style="fill:none;stroke:#000000;stroke-linecap:square;stroke-linejoin:miter;stroke-width:0.8;"/>
   </g>
   <g id="patch_9">
    <path d="M 257.04 1122.984 
L 1850.688 1122.984 
" style="fill:none;stroke:#000000;stroke-linecap:square;stroke-linejoin:miter;stroke-width:0.8;"/>
   </g>
   <g id="patch_10">
    <path d="M 257.04 124.776 
L 1850.688 124.776 
" style="fill:none;stroke:#000000;stroke-linecap:square;stroke-linejoin:miter;stroke-width:0.8;"/>
   </g>
   <g id="legend_1">
    <g id="patch_11">
     <path d="M 271.04 94.81184 
L 1836.688 94.81184 
Q 1840.688 94.81184 1840.688 90.81184 
L 1840.688 62.89934 
Q 1840.688 58.89934 1836.688 58.89934 
L 271.04 58.89934 
Q 267.04 58.89934 267.04 62.89934 
L 267.04 90.81184 
Q 267.04 94.81184 271.04 94.81184 
z
" style="fill:#ffffff;opacity:0.8;stroke:#cccccc;stroke-linejoin:miter;"/>
    </g>
    <g id="line2d_29">
     <path d="M 275.04 75.096215 
L 315.04 75.096215 
" style="fill:none;stroke:#377eb8;stroke-linecap:square;stroke-width:3;"/>
    </g>
    <g id="line2d_30"/>
    <g id="text_14">
     <!-- RightHandAdmittance_target_wrench_fz -->
     <defs>
      <path d="M 44.390625 34.1875 
Q 47.5625 33.109375 50.5625 29.59375 
Q 53.5625 26.078125 56.59375 19.921875 
L 66.609375 0 
L 56 0 
L 46.6875 18.703125 
Q 43.0625 26.03125 39.671875 28.421875 
Q 36.28125 30.8125 30.421875 30.8125 
L 19.671875 30.8125 
L 19.671875 0 
L 9.8125 0 
L 9.8125 72.90625 
L 32.078125 72.90625 
Q 44.578125 72.90625 50.734375 67.671875 
Q 56.890625 62.453125 56.890625 51.90625 
Q 56.890625 45.015625 53.6875 40.46875 
Q 50.484375 35.9375 44.390625 34.1875 
z
M 19.671875 64.796875 
L 19.671875 38.921875 
L 32.078125 38.921875 
Q 39.203125 38.921875 42.84375 42.21875 
Q 46.484375 45.515625 46.484375 51.90625 
Q 46.484375 58.296875 42.84375 61.546875 
Q 39.203125 64.796875 32.078125 64.796875 
z
" id="DejaVuSans-52"/>
      <path d="M 9.421875 54.6875 
L 18.40625 54.6875 
L 18.40625 0 
L 9.421875 0 
z
M 9.421875 75.984375 
L 18.40625 75.984375 
L 18.40625 64.59375 
L 9.421875 64.59375 
z
" id="DejaVuSans-69"/>
      <path d="M 45.40625 27.984375 
Q 45.40625 37.75 41.375 43.109375 
Q 37.359375 48.484375 30.078125 48.484375 
Q 22.859375 48.484375 18.828125 43.109375 
Q 14.796875 37.75 14.796875 27.984375 
Q 14.796875 18.265625 18.828125 12.890625 
Q 22.859375 7.515625 30.078125 7.515625 
Q 37.359375 7.515625 41.375 12.890625 
Q 45.40625 18.265625 45.40625 27.984375 
z
M 54.390625 6.78125 
Q 54.390625 -7.171875 48.1875 -13.984375 
Q 42 -20.796875 29.203125 -20.796875 
Q 24.46875 -20.796875 20.265625 -20.09375 
Q 16.0625 -19.390625 12.109375 -17.921875 
L 12.109375 -9.1875 
Q 16.0625 -11.328125 19.921875 -12.34375 
Q 23.78125 -13.375 27.78125 -13.375 
Q 36.625 -13.375 41.015625 -8.765625 
Q 45.40625 -4.15625 45.40625 5.171875 
L 45.40625 9.625 
Q 42.625 4.78125 38.28125 2.390625 
Q 33.9375 0 27.875 0 
Q 17.828125 0 11.671875 7.65625 
Q 5.515625 15.328125 5.515625 27.984375 
Q 5.515625 40.671875 11.671875 48.328125 
Q 17.828125 56 27.875 56 
Q 33.9375 56 38.28125 53.609375 
Q 42.625 51.21875 45.40625 46.390625 
L 45.40625 54.6875 
L 54.390625 54.6875 
z
" id="DejaVuSans-67"/>
      <path d="M 54.890625 33.015625 
L 54.890625 0 
L 45.90625 0 
L 45.90625 32.71875 
Q 45.90625 40.484375 42.875 44.328125 
Q 39.84375 48.1875 33.796875 48.1875 
Q 26.515625 48.1875 22.3125 43.546875 
Q 18.109375 38.921875 18.109375 30.90625 
L 18.109375 0 
L 9.078125 0 
L 9.078125 75.984375 
L 18.109375 75.984375 
L 18.109375 46.1875 
Q 21.34375 51.125 25.703125 53.5625 
Q 30.078125 56 35.796875 56 
Q 45.21875 56 50.046875 50.171875 
Q 54.890625 44.34375 54.890625 33.015625 
z
" id="DejaVuSans-68"/>
      <path d="M 18.3125 70.21875 
L 18.3125 54.6875 
L 36.8125 54.6875 
L 36.8125 47.703125 
L 18.3125 47.703125 
L 18.3125 18.015625 
Q 18.3125 11.328125 20.140625 9.421875 
Q 21.96875 7.515625 27.59375 7.515625 
L 36.8125 7.515625 
L 36.8125 0 
L 27.59375 0 
Q 17.1875 0 13.234375 3.875 
Q 9.28125 7.765625 9.28125 18.015625 
L 9.28125 47.703125 
L 2.6875 47.703125 
L 2.6875 54.6875 
L 9.28125 54.6875 
L 9.28125 70.21875 
z
" id="DejaVuSans-74"/>
      <path d="M 9.8125 72.90625 
L 19.671875 72.90625 
L 19.671875 43.015625 
L 55.515625 43.015625 
L 55.515625 72.90625 
L 65.375 72.90625 
L 65.375 0 
L 55.515625 0 
L 55.515625 34.71875 
L 19.671875 34.71875 
L 19.671875 0 
L 9.8125 0 
z
" id="DejaVuSans-48"/>
      <path d="M 34.28125 27.484375 
Q 23.390625 27.484375 19.1875 25 
Q 14.984375 22.515625 14.984375 16.5 
Q 14.984375 11.71875 18.140625 8.90625 
Q 21.296875 6.109375 26.703125 6.109375 
Q 34.1875 6.109375 38.703125 11.40625 
Q 43.21875 16.703125 43.21875 25.484375 
L 43.21875 27.484375 
z
M 52.203125 31.203125 
L 52.203125 0 
L 43.21875 0 
L 43.21875 8.296875 
Q 40.140625 3.328125 35.546875 0.953125 
Q 30.953125 -1.421875 24.3125 -1.421875 
Q 15.921875 -1.421875 10.953125 3.296875 
Q 6 8.015625 6 15.921875 
Q 6 25.140625 12.171875 29.828125 
Q 18.359375 34.515625 30.609375 34.515625 
L 43.21875 34.515625 
L 43.21875 35.40625 
Q 43.21875 41.609375 39.140625 45 
Q 35.0625 48.390625 27.6875 48.390625 
Q 23 48.390625 18.546875 47.265625 
Q 14.109375 46.140625 10.015625 43.890625 
L 10.015625 52.203125 
Q 14.9375 54.109375 19.578125 55.046875 
Q 24.21875 56 28.609375 56 
Q 40.484375 56 46.34375 49.84375 
Q 52.203125 43.703125 52.203125 31.203125 
z
" id="DejaVuSans-61"/>
      <path d="M 54.890625 33.015625 
L 54.890625 0 
L 45.90625 0 
L 45.90625 32.71875 
Q 45.90625 40.484375 42.875 44.328125 
Q 39.84375 48.1875 33.796875 48.1875 
Q 26.515625 48.1875 22.3125 43.546875 
Q 18.109375 38.921875 18.109375 30.90625 
L 18.109375 0 
L 9.078125 0 
L 9.078125 54.6875 
L 18.109375 54.6875 
L 18.109375 46.1875 
Q 21.34375 51.125 25.703125 53.5625 
Q 30.078125 56 35.796875 56 
Q 45.21875 56 50.046875 50.171875 
Q 54.890625 44.34375 54.890625 33.015625 
z
" id="DejaVuSans-6e"/>
      <path d="M 45.40625 46.390625 
L 45.40625 75.984375 
L 54.390625 75.984375 
L 54.390625 0 
L 45.40625 0 
L 45.40625 8.203125 
Q 42.578125 3.328125 38.25 0.953125 
Q 33.9375 -1.421875 27.875 -1.421875 
Q 17.96875 -1.421875 11.734375 6.484375 
Q 5.515625 14.40625 5.515625 27.296875 
Q 5.515625 40.1875 11.734375 48.09375 
Q 17.96875 56 27.875 56 
Q 33.9375 56 38.25 53.625 
Q 42.578125 51.265625 45.40625 46.390625 
z
M 14.796875 27.296875 
Q 14.796875 17.390625 18.875 11.75 
Q 22.953125 6.109375 30.078125 6.109375 
Q 37.203125 6.109375 41.296875 11.75 
Q 45.40625 17.390625 45.40625 27.296875 
Q 45.40625 37.203125 41.296875 42.84375 
Q 37.203125 48.484375 30.078125 48.484375 
Q 22.953125 48.484375 18.875 42.84375 
Q 14.796875 37.203125 14.796875 27.296875 
z
" id="DejaVuSans-64"/>
      <path d="M 34.1875 63.1875 
L 20.796875 26.90625 
L 47.609375 26.90625 
z
M 28.609375 72.90625 
L 39.796875 72.90625 
L 67.578125 0 
L 57.328125 0 
L 50.6875 18.703125 
L 17.828125 18.703125 
L 11.1875 0 
L 0.78125 0 
z
" id="DejaVuSans-41"/>
      <path d="M 52 44.1875 
Q 55.375 50.25 60.0625 53.125 
Q 64.75 56 71.09375 56 
Q 79.640625 56 84.28125 50.015625 
Q 88.921875 44.046875 88.921875 33.015625 
L 88.921875 0 
L 79.890625 0 
L 79.890625 32.71875 
Q 79.890625 40.578125 77.09375 44.375 
Q 74.3125 48.1875 68.609375 48.1875 
Q 61.625 48.1875 57.5625 43.546875 
Q 53.515625 38.921875 53.515625 30.90625 
L 53.515625 0 
L 44.484375 0 
L 44.484375 32.71875 
Q 44.484375 40.625 41.703125 44.40625 
Q 38.921875 48.1875 33.109375 48.1875 
Q 26.21875 48.1875 22.15625 43.53125 
Q 18.109375 38.875 18.109375 30.90625 
L 18.109375 0 
L 9.078125 0 
L 9.078125 54.6875 
L 18.109375 54.6875 
L 18.109375 46.1875 
Q 21.1875 51.21875 25.484375 53.609375 
Q 29.78125 56 35.6875 56 
Q 41.65625 56 45.828125 52.96875 
Q 50 49.953125 52 44.1875 
z
" id="DejaVuSans-6d"/>
      <path d="M 48.78125 52.59375 
L 48.78125 44.1875 
Q 44.96875 46.296875 41.140625 47.34375 
Q 37.3125 48.390625 33.40625 48.390625 
Q 24.65625 48.390625 19.8125 42.84375 
Q 14.984375 37.3125 14.984375 27.296875 
Q 14.984375 17.28125 19.8125 11.734375 
Q 24.65625 6.203125 33.40625 6.203125 
Q 37.3125 6.203125 41.140625 7.25 
Q 44.96875 8.296875 48.78125 10.40625 
L 48.78125 2.09375 
Q 45.015625 0.34375 40.984375 -0.53125 
Q 36.96875 -1.421875 32.421875 -1.421875 
Q 20.0625 -1.421875 12.78125 6.34375 
Q 5.515625 14.109375 5.515625 27.296875 
Q 5.515625 40.671875 12.859375 48.328125 
Q 20.21875 56 33.015625 56 
Q 37.15625 56 41.109375 55.140625 
Q 45.0625 54.296875 48.78125 52.59375 
z
" id="DejaVuSans-63"/>
      <path d="M 56.203125 29.59375 
L 56.203125 25.203125 
L 14.890625 25.203125 
Q 15.484375 15.921875 20.484375 11.0625 
Q 25.484375 6.203125 34.421875 6.203125 
Q 39.59375 6.203125 44.453125 7.46875 
Q 49.3125 8.734375 54.109375 11.28125 
L 54.109375 2.78125 
Q 49.265625 0.734375 44.1875 -0.34375 
Q 39.109375 -1.421875 33.890625 -1.421875 
Q 20.796875 -1.421875 13.15625 6.1875 
Q 5.515625 13.8125 5.515625 26.8125 
Q 5.515625 40.234375 12.765625 48.109375 
Q 20.015625 56 32.328125 56 
Q 43.359375 56 49.78125 48.890625 
Q 56.203125 41.796875 56.203125 29.59375 
z
M 47.21875 32.234375 
Q 47.125 39.59375 43.09375 43.984375 
Q 39.0625 48.390625 32.421875 48.390625 
Q 24.90625 48.390625 20.390625 44.140625 
Q 15.875 39.890625 15.1875 32.171875 
z
" id="DejaVuSans-65"/>
      <path d="M 50.984375 -16.609375 
L 50.984375 -23.578125 
L -0.984375 -23.578125 
L -0.984375 -16.609375 
z
" id="DejaVuSans-5f"/>
      <path d="M 41.109375 46.296875 
Q 39.59375 47.171875 37.8125 47.578125 
Q 36.03125 48 33.890625 48 
Q 26.265625 48 22.1875 43.046875 
Q 18.109375 38.09375 18.109375 28.8125 
L 18.109375 0 
L 9.078125 0 
L 9.078125 54.6875 
L 18.109375 54.6875 
L 18.109375 46.1875 
Q 20.953125 51.171875 25.484375 53.578125 
Q 30.03125 56 36.53125 56 
Q 37.453125 56 38.578125 55.875 
Q 39.703125 55.765625 41.0625 55.515625 
z
" id="DejaVuSans-72"/>
      <path d="M 4.203125 54.6875 
L 13.1875 54.6875 
L 24.421875 12.015625 
L 35.59375 54.6875 
L 46.1875 54.6875 
L 57.421875 12.015625 
L 68.609375 54.6875 
L 77.59375 54.6875 
L 63.28125 0 
L 52.6875 0 
L 40.921875 44.828125 
L 29.109375 0 
L 18.5 0 
z
" id="DejaVuSans-77"/>
      <path d="M 37.109375 75.984375 
L 37.109375 68.5 
L 28.515625 68.5 
Q 23.6875 68.5 21.796875 66.546875 
Q 19.921875 64.59375 19.921875 59.515625 
L 19.921875 54.6875 
L 34.71875 54.6875 
L 34.71875 47.703125 
L 19.921875 47.703125 
L 19.921875 0 
L 10.890625 0 
L 10.890625 47.703125 
L 2.296875 47.703125 
L 2.296875 54.6875 
L 10.890625 54.6875 
L 10.890625 58.5 
Q 10.890625 67.625 15.140625 71.796875 
Q 19.390625 75.984375 28.609375 75.984375 
z
" id="DejaVuSans-66"/>
      <path d="M 5.515625 54.6875 
L 48.1875 54.6875 
L 48.1875 46.484375 
L 14.40625 7.171875 
L 48.1875 7.171875 
L 48.1875 0 
L 4.296875 0 
L 4.296875 8.203125 
L 38.09375 47.515625 
L 5.515625 47.515625 
z
" id="DejaVuSans-7a"/>
     </defs>
     <g transform="translate(331.04 82.096215)scale(0.2 -0.2)">
      <use xlink:href="#DejaVuSans-52"/>
      <use x="69.482422" xlink:href="#DejaVuSans-69"/>
      <use x="97.265625" xlink:href="#DejaVuSans-67"/>
      <use x="160.742188" xlink:href="#DejaVuSans-68"/>
      <use x="224.121094" xlink:href="#DejaVuSans-74"/>
      <use x="263.330078" xlink:href="#DejaVuSans-48"/>
      <use x="338.525391" xlink:href="#DejaVuSans-61"/>
      <use x="399.804688" xlink:href="#DejaVuSans-6e"/>
      <use x="463.183594" xlink:href="#DejaVuSans-64"/>
      <use x="526.660156" xlink:href="#DejaVuSans-41"/>
      <use x="595.052734" xlink:href="#DejaVuSans-64"/>
      <use x="658.529297" xlink:href="#DejaVuSans-6d"/>
      <use x="755.941406" xlink:href="#DejaVuSans-69"/>
      <use x="783.724609" xlink:href="#DejaVuSans-74"/>
      <use x="822.933594" xlink:href="#DejaVuSans-74"/>
      <use x="862.142578" xlink:href="#DejaVuSans-61"/>
      <use x="923.421875" xlink:href="#DejaVuSans-6e"/>
      <use x="986.800781" xlink:href="#DejaVuSans-63"/>
      <use x="1041.78125" xlink:href="#DejaVuSans-65"/>
      <use x="1103.304688" xlink:href="#DejaVuSans-5f"/>
      <use x="1153.304688" xlink:href="#DejaVuSans-74"/>
      <use x="1192.513672" xlink:href="#DejaVuSans-61"/>
      <use x="1253.792969" xlink:href="#DejaVuSans-72"/>
      <use x="1294.890625" xlink:href="#DejaVuSans-67"/>
      <use x="1358.367188" xlink:href="#DejaVuSans-65"/>
      <use x="1419.890625" xlink:href="#DejaVuSans-74"/>
      <use x="1459.099609" xlink:href="#DejaVuSans-5f"/>
      <use x="1509.099609" xlink:href="#DejaVuSans-77"/>
      <use x="1590.886719" xlink:href="#DejaVuSans-72"/>
      <use x="1631.96875" xlink:href="#DejaVuSans-65"/>
      <use x="1693.492188" xlink:href="#DejaVuSans-6e"/>
      <use x="1756.871094" xlink:href="#DejaVuSans-63"/>
      <use x="1811.851562" xlink:href="#DejaVuSans-68"/>
      <use x="1875.230469" xlink:href="#DejaVuSans-5f"/>
      <use x="1925.230469" xlink:href="#DejaVuSans-66"/>
      <use x="1960.435547" xlink:href="#DejaVuSans-7a"/>
     </g>
    </g>
    <g id="line2d_31">
     <path d="M 1334.90675 75.096215 
L 1374.90675 75.096215 
" style="fill:none;stroke:#4daf4a;stroke-linecap:square;stroke-width:3;"/>
    </g>
    <g id="line2d_32"/>
    <g id="text_15">
     <!-- RightHandAdmittance_measured_wrench_fz -->
     <defs>
      <path d="M 44.28125 53.078125 
L 44.28125 44.578125 
Q 40.484375 46.53125 36.375 47.5 
Q 32.28125 48.484375 27.875 48.484375 
Q 21.1875 48.484375 17.84375 46.4375 
Q 14.5 44.390625 14.5 40.28125 
Q 14.5 37.15625 16.890625 35.375 
Q 19.28125 33.59375 26.515625 31.984375 
L 29.59375 31.296875 
Q 39.15625 29.25 43.1875 25.515625 
Q 47.21875 21.78125 47.21875 15.09375 
Q 47.21875 7.46875 41.1875 3.015625 
Q 35.15625 -1.421875 24.609375 -1.421875 
Q 20.21875 -1.421875 15.453125 -0.5625 
Q 10.6875 0.296875 5.421875 2 
L 5.421875 11.28125 
Q 10.40625 8.6875 15.234375 7.390625 
Q 20.0625 6.109375 24.8125 6.109375 
Q 31.15625 6.109375 34.5625 8.28125 
Q 37.984375 10.453125 37.984375 14.40625 
Q 37.984375 18.0625 35.515625 20.015625 
Q 33.0625 21.96875 24.703125 23.78125 
L 21.578125 24.515625 
Q 13.234375 26.265625 9.515625 29.90625 
Q 5.8125 33.546875 5.8125 39.890625 
Q 5.8125 47.609375 11.28125 51.796875 
Q 16.75 56 26.8125 56 
Q 31.78125 56 36.171875 55.265625 
Q 40.578125 54.546875 44.28125 53.078125 
z
" id="DejaVuSans-73"/>
      <path d="M 8.5 21.578125 
L 8.5 54.6875 
L 17.484375 54.6875 
L 17.484375 21.921875 
Q 17.484375 14.15625 20.5 10.265625 
Q 23.53125 6.390625 29.59375 6.390625 
Q 36.859375 6.390625 41.078125 11.03125 
Q 45.3125 15.671875 45.3125 23.6875 
L 45.3125 54.6875 
L 54.296875 54.6875 
L 54.296875 0 
L 45.3125 0 
L 45.3125 8.40625 
Q 42.046875 3.421875 37.71875 1 
Q 33.40625 -1.421875 27.6875 -1.421875 
Q 18.265625 -1.421875 13.375 4.4375 
Q 8.5 10.296875 8.5 21.578125 
z
M 31.109375 56 
z
" id="DejaVuSans-75"/>
     </defs>
     <g transform="translate(1390.90675 82.096215)scale(0.2 -0.2)">
      <use xlink:href="#DejaVuSans-52"/>
      <use x="69.482422" xlink:href="#DejaVuSans-69"/>
      <use x="97.265625" xlink:href="#DejaVuSans-67"/>
      <use x="160.742188" xlink:href="#DejaVuSans-68"/>
      <use x="224.121094" xlink:href="#DejaVuSans-74"/>
      <use x="263.330078" xlink:href="#DejaVuSans-48"/>
      <use x="338.525391" xlink:href="#DejaVuSans-61"/>
      <use x="399.804688" xlink:href="#DejaVuSans-6e"/>
      <use x="463.183594" xlink:href="#DejaVuSans-64"/>
      <use x="526.660156" xlink:href="#DejaVuSans-41"/>
      <use x="595.052734" xlink:href="#DejaVuSans-64"/>
      <use x="658.529297" xlink:href="#DejaVuSans-6d"/>
      <use x="755.941406" xlink:href="#DejaVuSans-69"/>
      <use x="783.724609" xlink:href="#DejaVuSans-74"/>
      <use x="822.933594" xlink:href="#DejaVuSans-74"/>
      <use x="862.142578" xlink:href="#DejaVuSans-61"/>
      <use x="923.421875" xlink:href="#DejaVuSans-6e"/>
      <use x="986.800781" xlink:href="#DejaVuSans-63"/>
      <use x="1041.78125" xlink:href="#DejaVuSans-65"/>
      <use x="1103.304688" xlink:href="#DejaVuSans-5f"/>
      <use x="1153.304688" xlink:href="#DejaVuSans-6d"/>
      <use x="1250.716797" xlink:href="#DejaVuSans-65"/>
      <use x="1312.240234" xlink:href="#DejaVuSans-61"/>
      <use x="1373.519531" xlink:href="#DejaVuSans-73"/>
      <use x="1425.619141" xlink:href="#DejaVuSans-75"/>
      <use x="1488.998047" xlink:href="#DejaVuSans-72"/>
      <use x="1530.080078" xlink:href="#DejaVuSans-65"/>
      <use x="1591.603516" xlink:href="#DejaVuSans-64"/>
      <use x="1655.080078" xlink:href="#DejaVuSans-5f"/>
      <use x="1705.080078" xlink:href="#DejaVuSans-77"/>
      <use x="1786.867188" xlink:href="#DejaVuSans-72"/>
      <use x="1827.949219" xlink:href="#DejaVuSans-65"/>
      <use x="1889.472656" xlink:href="#DejaVuSans-6e"/>
      <use x="1952.851562" xlink:href="#DejaVuSans-63"/>
      <use x="2007.832031" xlink:href="#DejaVuSans-68"/>
      <use x="2071.210938" xlink:href="#DejaVuSans-5f"/>
      <use x="2121.210938" xlink:href="#DejaVuSans-66"/>
      <use x="2156.416016" xlink:href="#DejaVuSans-7a"/>
     </g>
    </g>
   </g>
  </g>
  <g id="axes_3">
   <g id="matplotlib.axis_3">
    <g id="ytick_7">
     <g id="line2d_33">
      <defs>
       <path d="M 0 0 
L 3.5 0 
" id="m5b59fd4b70" style="stroke:#000000;stroke-width:0.8;"/>
      </defs>
      <g>
       <use style="stroke:#000000;stroke-width:0.8;" x="1850.688" xlink:href="#m5b59fd4b70" y="1116.015623"/>
      </g>
     </g>
     <g id="text_16">
      <!-- 0.45 -->
      <defs>
       <path d="M 10.6875 12.40625 
L 21 12.40625 
L 21 0 
L 10.6875 0 
z
" id="DejaVuSans-2e"/>
      </defs>
      <g transform="translate(1857.688 1123.614061)scale(0.2 -0.2)">
       <use xlink:href="#DejaVuSans-30"/>
       <use x="63.623047" xlink:href="#DejaVuSans-2e"/>
       <use x="95.410156" xlink:href="#DejaVuSans-34"/>
       <use x="159.033203" xlink:href="#DejaVuSans-35"/>
      </g>
     </g>
    </g>
    <g id="ytick_8">
     <g id="line2d_34">
      <g>
       <use style="stroke:#000000;stroke-width:0.8;" x="1850.688" xlink:href="#m5b59fd4b70" y="902.263925"/>
      </g>
     </g>
     <g id="text_17">
      <!-- 0.46 -->
      <g transform="translate(1857.688 909.862363)scale(0.2 -0.2)">
       <use xlink:href="#DejaVuSans-30"/>
       <use x="63.623047" xlink:href="#DejaVuSans-2e"/>
       <use x="95.410156" xlink:href="#DejaVuSans-34"/>
       <use x="159.033203" xlink:href="#DejaVuSans-36"/>
      </g>
     </g>
    </g>
    <g id="ytick_9">
     <g id="line2d_35">
      <g>
       <use style="stroke:#000000;stroke-width:0.8;" x="1850.688" xlink:href="#m5b59fd4b70" y="688.512228"/>
      </g>
     </g>
     <g id="text_18">
      <!-- 0.47 -->
      <g transform="translate(1857.688 696.110665)scale(0.2 -0.2)">
       <use xlink:href="#DejaVuSans-30"/>
       <use x="63.623047" xlink:href="#DejaVuSans-2e"/>
       <use x="95.410156" xlink:href="#DejaVuSans-34"/>
       <use x="159.033203" xlink:href="#DejaVuSans-37"/>
      </g>
     </g>
    </g>
    <g id="ytick_10">
     <g id="line2d_36">
      <g>
       <use style="stroke:#000000;stroke-width:0.8;" x="1850.688" xlink:href="#m5b59fd4b70" y="474.76053"/>
      </g>
     </g>
     <g id="text_19">
      <!-- 0.48 -->
      <g transform="translate(1857.688 482.358967)scale(0.2 -0.2)">
       <use xlink:href="#DejaVuSans-30"/>
       <use x="63.623047" xlink:href="#DejaVuSans-2e"/>
       <use x="95.410156" xlink:href="#DejaVuSans-34"/>
       <use x="159.033203" xlink:href="#DejaVuSans-38"/>
      </g>
     </g>
    </g>
    <g id="ytick_11">
     <g id="line2d_37">
      <g>
       <use style="stroke:#000000;stroke-width:0.8;" x="1850.688" xlink:href="#m5b59fd4b70" y="261.008832"/>
      </g>
     </g>
     <g id="text_20">
      <!-- 0.49 -->
      <g transform="translate(1857.688 268.60727)scale(0.2 -0.2)">
       <use xlink:href="#DejaVuSans-30"/>
       <use x="63.623047" xlink:href="#DejaVuSans-2e"/>
       <use x="95.410156" xlink:href="#DejaVuSans-34"/>
       <use x="159.033203" xlink:href="#DejaVuSans-39"/>
      </g>
     </g>
    </g>
   </g>
   <g id="line2d_38">
    <path clip-path="url(#p6ee8728769)" d="M 272.664 1113.197647 
L 273.844952 1112.439428 
L 277.38781 1105.289626 
L 280.930667 1097.130005 
L 290.378286 1074.514522 
L 293.921143 1066.649305 
L 297.464 1059.271019 
L 302.18781 1050.077607 
L 308.092571 1039.212822 
L 332.892571 994.553901 
L 339.978286 982.369965 
L 350.606857 964.62092 
L 377.768762 919.396974 
L 394.302095 891.475199 
L 407.292571 869.118662 
L 421.464 844.301862 
L 440.359238 810.722495 
L 475.78781 747.17047 
L 505.311619 694.418714 
L 531.292571 648.487034 
L 564.359238 590.021587 
L 584.435429 554.008058 
L 611.597333 504.7421 
L 641.121143 451.326991 
L 664.74019 409.078413 
L 740.321143 274.52043 
L 741.502095 272.918046 
L 747.406857 266.660589 
L 754.492571 259.75562 
L 758.035429 255.954471 
L 761.578286 251.832719 
L 765.121143 247.411356 
L 769.844952 241.147596 
L 776.930667 231.262426 
L 788.74019 214.628176 
L 793.464 208.298601 
L 798.18781 202.333042 
L 801.730667 198.151445 
L 805.273524 194.250918 
L 808.816381 190.64717 
L 812.359238 187.343469 
L 815.902095 184.332589 
L 819.444952 181.60075 
L 822.98781 179.12291 
L 826.530667 176.873841 
L 831.254476 174.179273 
L 835.978286 171.763642 
L 841.883048 169.033633 
L 848.968762 166.022593 
L 859.597333 161.773035 
L 870.225905 157.752736 
L 877.311619 155.271198 
L 884.397333 153.022967 
L 890.302095 151.372573 
L 896.206857 149.935866 
L 903.292571 148.466366 
L 910.378286 147.225506 
L 919.825905 145.815295 
L 935.178286 143.802881 
L 951.711619 141.841845 
L 963.521143 140.673381 
L 974.149714 139.855389 
L 987.14019 139.116158 
L 1007.216381 138.245122 
L 1036.74019 137.149874 
L 1056.816381 136.675113 
L 1089.883048 136.16186 
L 1130.035429 135.700382 
L 1196.168762 135.299954 
L 1298.911619 134.937564 
L 1455.978286 134.562353 
L 1457.159238 134.974739 
L 1459.521143 136.830601 
L 1461.883048 139.189523 
L 1465.425905 143.168715 
L 1478.416381 158.098389 
L 1494.949714 176.936176 
L 1503.216381 186.30727 
L 1509.121143 192.681389 
L 1513.844952 197.462435 
L 1518.568762 201.887033 
L 1523.292571 205.956633 
L 1528.016381 209.674704 
L 1532.74019 213.044773 
L 1537.464 216.07817 
L 1542.18781 218.80052 
L 1546.911619 221.246541 
L 1551.635429 223.454504 
L 1557.54019 225.941961 
L 1563.444952 228.19411 
L 1570.530667 230.66875 
L 1578.797333 233.320868 
L 1587.064 235.755027 
L 1595.330667 237.958958 
L 1602.416381 239.638422 
L 1609.502095 241.107827 
L 1616.58781 242.367515 
L 1624.854476 243.600235 
L 1634.302095 244.762203 
L 1646.111619 245.970247 
L 1661.464 247.30028 
L 1675.635429 248.314324 
L 1688.625905 249.022734 
L 1702.797333 249.562767 
L 1722.873524 250.073919 
L 1753.578286 250.61768 
L 1779.559238 250.842328 
L 1835.064 250.991841 
L 1835.064 250.991841 
" style="fill:none;stroke:#ff7f00;stroke-dasharray:11.1,4.8;stroke-dashoffset:0;stroke-width:3;"/>
   </g>
   <g id="patch_12">
    <path d="M 257.04 1122.984 
L 257.04 124.776 
" style="fill:none;stroke:#000000;stroke-linecap:square;stroke-linejoin:miter;stroke-width:0.8;"/>
   </g>
   <g id="patch_13">
    <path d="M 1850.688 1122.984 
L 1850.688 124.776 
" style="fill:none;stroke:#000000;stroke-linecap:square;stroke-linejoin:miter;stroke-width:0.8;"/>
   </g>
   <g id="patch_14">
    <path d="M 257.04 1122.984 
L 1850.688 1122.984 
" style="fill:none;stroke:#000000;stroke-linecap:square;stroke-linejoin:miter;stroke-width:0.8;"/>
   </g>
   <g id="patch_15">
    <path d="M 257.04 124.776 
L 1850.688 124.776 
" style="fill:none;stroke:#000000;stroke-linecap:square;stroke-linejoin:miter;stroke-width:0.8;"/>
   </g>
   <g id="legend_2">
    <g id="patch_16">
     <path d="M 271.04 1206.828404 
L 1836.688 1206.828404 
Q 1840.688 1206.828404 1840.688 1202.828404 
L 1840.688 1174.915904 
Q 1840.688 1170.915904 1836.688 1170.915904 
L 271.04 1170.915904 
Q 267.04 1170.915904 267.04 1174.915904 
L 267.04 1202.828404 
Q 267.04 1206.828404 271.04 1206.828404 
z
" style="fill:#ffffff;opacity:0.8;stroke:#cccccc;stroke-linejoin:miter;"/>
    </g>
    <g id="line2d_39">
     <path d="M 275.04 1187.112779 
L 315.04 1187.112779 
" style="fill:none;stroke:#ff7f00;stroke-dasharray:11.1,4.8;stroke-dashoffset:0;stroke-width:3;"/>
    </g>
    <g id="line2d_40"/>
    <g id="text_21">
     <!-- RightHandAdmittance_surface_pose_tx -->
     <defs>
      <path d="M 18.109375 8.203125 
L 18.109375 -20.796875 
L 9.078125 -20.796875 
L 9.078125 54.6875 
L 18.109375 54.6875 
L 18.109375 46.390625 
Q 20.953125 51.265625 25.265625 53.625 
Q 29.59375 56 35.59375 56 
Q 45.5625 56 51.78125 48.09375 
Q 58.015625 40.1875 58.015625 27.296875 
Q 58.015625 14.40625 51.78125 6.484375 
Q 45.5625 -1.421875 35.59375 -1.421875 
Q 29.59375 -1.421875 25.265625 0.953125 
Q 20.953125 3.328125 18.109375 8.203125 
z
M 48.6875 27.296875 
Q 48.6875 37.203125 44.609375 42.84375 
Q 40.53125 48.484375 33.40625 48.484375 
Q 26.265625 48.484375 22.1875 42.84375 
Q 18.109375 37.203125 18.109375 27.296875 
Q 18.109375 17.390625 22.1875 11.75 
Q 26.265625 6.109375 33.40625 6.109375 
Q 40.53125 6.109375 44.609375 11.75 
Q 48.6875 17.390625 48.6875 27.296875 
z
" id="DejaVuSans-70"/>
      <path d="M 30.609375 48.390625 
Q 23.390625 48.390625 19.1875 42.75 
Q 14.984375 37.109375 14.984375 27.296875 
Q 14.984375 17.484375 19.15625 11.84375 
Q 23.34375 6.203125 30.609375 6.203125 
Q 37.796875 6.203125 41.984375 11.859375 
Q 46.1875 17.53125 46.1875 27.296875 
Q 46.1875 37.015625 41.984375 42.703125 
Q 37.796875 48.390625 30.609375 48.390625 
z
M 30.609375 56 
Q 42.328125 56 49.015625 48.375 
Q 55.71875 40.765625 55.71875 27.296875 
Q 55.71875 13.875 49.015625 6.21875 
Q 42.328125 -1.421875 30.609375 -1.421875 
Q 18.84375 -1.421875 12.171875 6.21875 
Q 5.515625 13.875 5.515625 27.296875 
Q 5.515625 40.765625 12.171875 48.375 
Q 18.84375 56 30.609375 56 
z
" id="DejaVuSans-6f"/>
      <path d="M 54.890625 54.6875 
L 35.109375 28.078125 
L 55.90625 0 
L 45.3125 0 
L 29.390625 21.484375 
L 13.484375 0 
L 2.875 0 
L 24.125 28.609375 
L 4.6875 54.6875 
L 15.28125 54.6875 
L 29.78125 35.203125 
L 44.28125 54.6875 
z
" id="DejaVuSans-78"/>
     </defs>
     <g transform="translate(331.04 1194.112779)scale(0.2 -0.2)">
      <use xlink:href="#DejaVuSans-52"/>
      <use x="69.482422" xlink:href="#DejaVuSans-69"/>
      <use x="97.265625" xlink:href="#DejaVuSans-67"/>
      <use x="160.742188" xlink:href="#DejaVuSans-68"/>
      <use x="224.121094" xlink:href="#DejaVuSans-74"/>
      <use x="263.330078" xlink:href="#DejaVuSans-48"/>
      <use x="338.525391" xlink:href="#DejaVuSans-61"/>
      <use x="399.804688" xlink:href="#DejaVuSans-6e"/>
      <use x="463.183594" xlink:href="#DejaVuSans-64"/>
      <use x="526.660156" xlink:href="#DejaVuSans-41"/>
      <use x="595.052734" xlink:href="#DejaVuSans-64"/>
      <use x="658.529297" xlink:href="#DejaVuSans-6d"/>
      <use x="755.941406" xlink:href="#DejaVuSans-69"/>
      <use x="783.724609" xlink:href="#DejaVuSans-74"/>
      <use x="822.933594" xlink:href="#DejaVuSans-74"/>
      <use x="862.142578" xlink:href="#DejaVuSans-61"/>
      <use x="923.421875" xlink:href="#DejaVuSans-6e"/>
      <use x="986.800781" xlink:href="#DejaVuSans-63"/>
      <use x="1041.78125" xlink:href="#DejaVuSans-65"/>
      <use x="1103.304688" xlink:href="#DejaVuSans-5f"/>
      <use x="1153.304688" xlink:href="#DejaVuSans-73"/>
      <use x="1205.404297" xlink:href="#DejaVuSans-75"/>
      <use x="1268.783203" xlink:href="#DejaVuSans-72"/>
      <use x="1309.896484" xlink:href="#DejaVuSans-66"/>
      <use x="1345.101562" xlink:href="#DejaVuSans-61"/>
      <use x="1406.380859" xlink:href="#DejaVuSans-63"/>
      <use x="1461.361328" xlink:href="#DejaVuSans-65"/>
      <use x="1522.884766" xlink:href="#DejaVuSans-5f"/>
      <use x="1572.884766" xlink:href="#DejaVuSans-70"/>
      <use x="1636.361328" xlink:href="#DejaVuSans-6f"/>
      <use x="1697.542969" xlink:href="#DejaVuSans-73"/>
      <use x="1749.642578" xlink:href="#DejaVuSans-65"/>
      <use x="1811.166016" xlink:href="#DejaVuSans-5f"/>
      <use x="1861.166016" xlink:href="#DejaVuSans-74"/>
      <use x="1900.375" xlink:href="#DejaVuSans-78"/>
     </g>
    </g>
   </g>
  </g>
  <g id="text_22">
   <!-- Admittance regulating the normal force -->
   <defs>
    <path id="DejaVuSans-20"/>
    <path d="M 9.421875 75.984375 
L 18.40625 75.984375 
L 18.40625 0 
L 9.421875 0 
z
" id="DejaVuSans-6c"/>
   </defs>
   <g transform="translate(730.206094 47.750513)scale(0.3 -0.3)">
    <use xlink:href="#DejaVuSans-41"/>
    <use x="68.392578" xlink:href="#DejaVuSans-64"/>
    <use x="131.869141" xlink:href="#DejaVuSans-6d"/>
    <use x="229.28125" xlink:href="#DejaVuSans-69"/>
    <use x="257.064453" xlink:href="#DejaVuSans-74"/>
    <use x="296.273438" xlink:href="#DejaVuSans-74"/>
    <use x="335.482422" xlink:href="#DejaVuSans-61"/>
    <use x="396.761719" xlink:href="#DejaVuSans-6e"/>
    <use x="460.140625" xlink:href="#DejaVuSans-63"/>
    <use x="515.121094" xlink:href="#DejaVuSans-65"/>
    <use x="576.644531" xlink:href="#DejaVuSans-20"/>
    <use x="608.431641" xlink:href="#DejaVuSans-72"/>
    <use x="649.513672" xlink:href="#DejaVuSans-65"/>
    <use x="711.037109" xlink:href="#DejaVuSans-67"/>
    <use x="774.513672" xlink:href="#DejaVuSans-75"/>
    <use x="837.892578" xlink:href="#DejaVuSans-6c"/>
    <use x="865.675781" xlink:href="#DejaVuSans-61"/>
    <use x="926.955078" xlink:href="#DejaVuSans-74"/>
    <use x="966.164062" xlink:href="#DejaVuSans-69"/>
    <use x="993.947266" xlink:href="#DejaVuSans-6e"/>
    <use x="1057.326172" xlink:href="#DejaVuSans-67"/>
    <use x="1120.802734" xlink:href="#DejaVuSans-20"/>
    <use x="1152.589844" xlink:href="#DejaVuSans-74"/>
    <use x="1191.798828" xlink:href="#DejaVuSans-68"/>
    <use x="1255.177734" xlink:href="#DejaVuSans-65"/>
    <use x="1316.701172" xlink:href="#DejaVuSans-20"/>
    <use x="1348.488281" xlink:href="#DejaVuSans-6e"/>
    <use x="1411.867188" xlink:href="#DejaVuSans-6f"/>
    <use x="1473.048828" xlink:href="#DejaVuSans-72"/>
    <use x="1514.146484" xlink:href="#DejaVuSans-6d"/>
    <use x="1611.558594" xlink:href="#DejaVuSans-61"/>
    <use x="1672.837891" xlink:href="#DejaVuSans-6c"/>
    <use x="1700.621094" xlink:href="#DejaVuSans-20"/>
    <use x="1732.408203" xlink:href="#DejaVuSans-66"/>
    <use x="1767.613281" xlink:href="#DejaVuSans-6f"/>
    <use x="1828.794922" xlink:href="#DejaVuSans-72"/>
    <use x="1869.876953" xlink:href="#DejaVuSans-63"/>
    <use x="1924.857422" xlink:href="#DejaVuSans-65"/>
   </g>
  </g>
 </g>
 <defs>
  <clipPath id="p6ee8728769">
   <rect height="998.208" width="1593.648" x="257.04" y="124.776"/>
  </clipPath>
 </defs>
</svg>
