<?xml version="1.0" standalone="no"?>
<!DOCTYPE svg PUBLIC "-//W3C//DTD SVG 20010904//EN"
 "http://www.w3.org/TR/2001/REC-SVG-20010904/DTD/svg10.dtd">
<svg version="1.0" xmlns="http://www.w3.org/2000/svg"
 width="1024.000000pt" height="1024.000000pt" viewBox="0 0 1024.000000 1024.000000"
 preserveAspectRatio="xMidYMid meet">
<metadata>
Created by potrace 1.11, written by Peter Selinger 2001-2013
</metadata>
<g transform="translate(0.000000,1024.000000) scale(0.100000,-0.100000)"
fill="#000000" stroke="none">
<path d="M5045 10177 c-41 -19 -46 -26 -185 -252 -67 -110 -131 -208 -142
-217 -13 -12 -35 -18 -62 -17 -39 1 -45 6 -144 112 -236 257 -254 275 -301
287 -58 15 -116 4 -156 -31 -27 -24 -47 -68 -126 -279 l-94 -250 -51 -11 -51
-12 -198 143 c-109 78 -214 149 -234 157 -42 18 -108 12 -151 -14 -51 -29 -67
-82 -105 -328 -20 -126 -38 -238 -41 -248 -3 -9 -27 -28 -53 -42 l-48 -24
-229 105 c-204 92 -235 104 -285 104 -67 0 -114 -27 -142 -80 -16 -31 -17 -54
-12 -210 3 -96 8 -216 11 -266 l6 -90 -46 -38 -46 -37 -234 55 c-129 31 -256
56 -283 56 -90 0 -153 -63 -153 -152 0 -26 25 -154 55 -283 l56 -236 -38 -45
-37 -46 -100 6 c-56 3 -175 8 -266 11 -146 5 -169 4 -200 -12 -53 -28 -80 -75
-80 -142 0 -50 12 -81 104 -285 l105 -229 -24 -48 c-14 -26 -33 -50 -42 -53
-10 -3 -121 -21 -248 -41 -246 -39 -300 -56 -328 -104 -26 -44 -32 -110 -14
-152 8 -20 79 -125 157 -234 l143 -197 -12 -52 -12 -52 -242 -89 c-162 -61
-252 -99 -274 -118 -54 -47 -66 -136 -28 -207 8 -14 97 -101 199 -195 180
-166 184 -171 185 -211 1 -22 -5 -48 -11 -57 -7 -9 -109 -77 -227 -150 -118
-73 -224 -145 -235 -160 -30 -41 -30 -153 0 -194 11 -15 117 -88 235 -161 118
-72 220 -140 227 -149 6 -9 12 -35 11 -57 0 -40 -5 -45 -185 -211 -102 -93
-191 -181 -199 -195 -38 -71 -26 -160 28 -207 22 -19 110 -57 273 -117 l242
-89 12 -53 13 -52 -143 -198 c-78 -109 -149 -214 -157 -233 -18 -42 -12 -108
14 -151 29 -50 82 -67 328 -105 127 -20 238 -38 248 -41 9 -3 28 -27 42 -54
l24 -48 -104 -228 c-94 -204 -105 -235 -105 -285 0 -67 27 -114 80 -142 31
-16 54 -17 210 -12 96 3 216 8 266 11 l90 6 38 -46 37 -45 -56 -236 c-30 -129
-55 -257 -55 -283 0 -89 63 -152 152 -152 26 0 154 25 283 55 l236 56 45 -37
46 -38 -6 -90 c-3 -50 -8 -170 -11 -266 -5 -156 -4 -179 12 -210 28 -53 75
-80 142 -80 50 0 82 12 285 104 l230 104 47 -24 c26 -13 50 -32 53 -41 3 -10
21 -121 41 -248 38 -246 54 -299 105 -328 43 -26 109 -32 151 -14 20 8 125 79
234 157 l197 143 52 -12 51 -11 93 -249 c102 -272 117 -295 193 -312 45 -10
88 -5 129 17 14 7 102 96 195 198 166 181 171 185 211 185 22 1 48 -5 57 -12
9 -6 77 -108 150 -226 73 -118 145 -224 160 -235 41 -30 153 -30 194 0 15 11
88 117 161 235 72 118 140 220 149 226 9 7 35 13 57 12 39 0 46 -5 149 -117
235 -256 250 -270 294 -281 65 -18 122 -4 163 38 30 30 51 77 125 277 l90 242
52 12 51 13 199 -144 c109 -78 216 -149 238 -157 46 -16 104 -10 146 15 50 30
66 82 105 328 19 127 38 238 40 248 3 9 27 28 54 42 l48 24 228 -104 c204 -93
235 -105 285 -105 67 0 114 27 142 80 16 31 17 55 12 220 -3 102 -8 221 -11
266 l-5 80 45 38 45 37 236 -56 c129 -30 257 -55 283 -55 89 0 152 63 152 152
0 26 -25 154 -55 283 l-56 236 37 45 38 46 90 -6 c50 -3 170 -8 266 -11 156
-5 179 -4 210 12 53 28 80 75 80 142 0 50 -12 81 -104 285 l-105 229 24 48
c14 26 33 50 42 53 10 2 122 21 248 40 247 39 298 55 328 106 26 43 32 109 14
151 -8 19 -79 124 -157 233 l-143 198 13 51 12 52 241 90 c162 60 253 99 274
118 54 47 66 136 28 207 -8 14 -97 102 -199 195 -180 166 -185 171 -185 211
-1 22 5 48 12 57 6 9 108 77 226 149 118 73 224 146 235 161 30 41 30 153 0
194 -11 15 -117 87 -235 160 -118 73 -220 141 -226 150 -7 9 -13 35 -12 57 1
40 5 45 185 211 102 94 191 181 199 195 38 71 26 160 -28 207 -22 19 -112 57
-274 117 l-241 89 -12 53 -13 52 143 197 c78 109 149 214 157 234 18 42 12
108 -14 152 -29 48 -82 65 -328 104 -126 20 -238 38 -248 41 -9 3 -28 27 -41
53 l-24 47 104 230 c92 203 104 235 104 285 0 67 -27 115 -80 142 -32 16 -56
17 -243 11 -202 -7 -207 -7 -200 12 5 10 49 91 99 179 128 224 194 349 194
368 0 23 -34 31 -127 30 -90 -1 -183 -17 -225 -39 l-28 -15 0 53 c0 95 -61
158 -153 158 -26 0 -153 -25 -282 -56 l-235 -56 -46 38 -45 38 5 80 c3 45 8
164 11 266 5 165 4 189 -12 220 -28 53 -75 80 -142 80 -50 0 -81 -12 -285
-105 l-228 -104 -49 24 c-31 16 -51 33 -54 48 -3 12 -21 123 -40 247 -38 241
-55 294 -105 323 -43 26 -109 32 -151 14 -19 -8 -124 -79 -233 -157 l-198
-143 -51 13 -52 12 -90 241 c-60 162 -99 253 -118 274 -47 54 -136 66 -207 28
-14 -8 -101 -97 -195 -199 -166 -180 -171 -185 -211 -185 -22 -1 -48 5 -57 12
-9 6 -77 108 -149 226 -73 118 -145 223 -160 234 -35 26 -130 33 -173 14z
m170 -942 c129 -58 203 -209 160 -325 -31 -84 -31 -88 6 -94 19 -3 66 -8 104
-11 39 -4 115 -13 170 -22 55 -8 124 -17 154 -19 68 -6 321 -71 465 -119 411
-138 798 -348 1136 -618 124 -98 380 -334 380 -349 0 -6 -26 -40 -58 -77 -32
-36 -96 -113 -143 -171 -46 -58 -87 -106 -91 -108 -5 -2 -8 -8 -8 -12 0 -5
-35 -56 -77 -112 -100 -133 -282 -405 -357 -533 -97 -165 -94 -161 -99 -145
-63 207 -199 462 -340 635 -158 194 -397 355 -652 440 -89 29 -247 70 -315 80
-25 4 -54 9 -65 11 -11 2 -54 7 -95 10 -41 4 -82 8 -90 10 -8 1 -26 3 -39 3
-18 1 -21 4 -13 14 20 23 269 512 320 627 67 151 105 280 88 297 -9 10 -147 9
-200 0 -78 -14 -209 -57 -252 -82 -24 -14 -72 -49 -106 -77 -63 -51 -393 -378
-478 -473 -138 -154 -259 -299 -308 -371 -14 -20 -33 -34 -54 -38 -103 -20
-495 -192 -663 -290 -33 -20 -67 -39 -75 -43 -28 -13 -226 -146 -285 -192
-323 -247 -577 -533 -710 -799 -73 -147 -86 -218 -60 -342 2 -14 10 -50 16
-80 22 -113 177 -727 207 -826 12 -39 9 -43 -53 -75 -193 -99 -441 -240 -515
-294 -25 -18 -140 -96 -256 -172 -115 -77 -218 -149 -228 -159 -15 -14 -17
-27 -12 -69 5 -45 51 -240 75 -320 5 -16 24 -77 41 -135 69 -230 111 -345 131
-362 26 -22 165 -66 379 -120 151 -38 177 -42 310 -44 130 -2 162 1 315 32
192 38 489 100 521 109 17 5 34 -12 102 -104 45 -60 107 -137 137 -170 l56
-59 -10 -44 c-17 -72 -21 -115 -27 -333 -4 -115 -11 -212 -16 -213 -46 -18
-346 -308 -436 -422 -35 -44 -67 -80 -71 -80 -4 0 -16 7 -27 15 -30 22 -44 18
-44 -13 0 -41 -58 -152 -84 -161 -11 -5 -87 -21 -167 -36 l-147 -28 -36 22
c-45 28 -92 88 -111 141 -21 59 -19 146 4 197 24 53 92 127 131 143 17 7 30
18 30 25 0 6 -35 41 -78 77 -116 99 -346 338 -454 473 -450 564 -718 1217
-793 1932 -20 192 -20 534 0 726 13 125 52 364 71 443 5 19 0 22 -40 27 -133
19 -246 149 -246 285 0 62 45 157 95 201 87 76 203 97 294 53 25 -12 50 -22
56 -22 6 0 22 26 35 58 82 201 196 412 336 625 391 590 962 1067 1610 1346
260 112 619 222 769 235 33 3 103 12 155 20 52 9 134 18 183 22 53 4 87 11 87
18 -1 6 -9 36 -20 66 -24 67 -25 114 -5 171 35 98 108 167 207 193 62 17 104
12 173 -19z m3168 -2386 c36 -68 86 -173 112 -234 26 -60 49 -112 51 -114 1
-1 26 5 55 14 69 23 154 16 213 -19 100 -58 165 -174 153 -272 -12 -108 -105
-220 -203 -246 -32 -9 -44 -17 -44 -30 0 -10 11 -79 25 -152 75 -410 75 -881
-1 -1294 -94 -516 -293 -997 -591 -1432 -101 -146 -289 -378 -303 -373 -3 1
-34 4 -70 8 -36 3 -72 8 -80 10 -14 4 -199 27 -320 40 -30 3 -66 8 -80 10 -14
2 -56 6 -95 10 -38 3 -86 7 -105 10 -85 10 -139 15 -195 20 -33 3 -80 8 -105
10 -207 21 -280 27 -337 29 -49 1 -53 3 -54 26 -1 32 -4 58 -12 95 -4 17 -9
46 -12 65 -10 59 -46 173 -65 207 -13 23 -16 35 -8 39 6 4 106 55 222 113 241
121 329 177 524 334 233 188 354 299 647 592 221 221 327 332 406 427 49 59
52 70 32 148 -3 14 -8 34 -10 44 -15 79 -100 335 -124 374 -19 31 -114 63
-231 78 -51 7 -70 20 -43 30 37 15 126 249 184 489 30 125 36 156 46 240 4 28
8 61 11 75 2 14 6 50 9 80 3 30 8 66 10 80 3 14 7 52 11 85 4 47 20 89 71 190
36 72 69 135 73 140 4 6 25 44 47 85 22 41 51 92 63 113 l23 38 17 -29 c10
-16 47 -85 83 -153z m-1743 -4064 c25 -2 101 -9 170 -15 123 -10 165 -14 265
-25 28 -2 75 -7 105 -10 82 -8 141 -15 180 -20 19 -2 62 -7 95 -10 33 -3 75
-8 93 -11 17 -2 47 -6 65 -8 168 -23 202 -28 204 -30 1 -1 -30 -34 -70 -73
l-72 -71 -195 -51 c-107 -27 -294 -75 -415 -106 -299 -76 -401 -107 -445 -134
-14 -8 -58 -44 -99 -79 -40 -34 -75 -61 -77 -59 -3 2 -6 123 -9 268 -3 145 -7
306 -10 358 l-6 93 88 -6 c48 -4 108 -9 133 -11z m-2884 -507 c3 -115 8 -212
20 -393 3 -55 7 -111 8 -125 1 -21 -3 -25 -24 -22 -28 3 -390 177 -390 188 0
3 17 29 37 58 21 28 41 56 45 61 4 6 55 71 114 145 119 149 175 212 182 206 2
-3 6 -56 8 -118z"/>
</g>
</svg>
