<?xml version="1.0" encoding="UTF-8" standalone="no"?>
<svg
   xmlns:dc="http://purl.org/dc/elements/1.1/"
   xmlns:cc="http://creativecommons.org/ns#"
   xmlns:rdf="http://www.w3.org/1999/02/22-rdf-syntax-ns#"
   xmlns:svg="http://www.w3.org/2000/svg"
   xmlns="http://www.w3.org/2000/svg"
   xmlns:sodipodi="http://sodipodi.sourceforge.net/DTD/sodipodi-0.dtd"
   xmlns:inkscape="http://www.inkscape.org/namespaces/inkscape"
   version="1.1"
   x="0px"
   y="0px"
   viewBox="0 0 800 1000"
   enable-background="new 0 0 800 800"
   xml:space="preserve"
   id="svg2"
   inkscape:version="0.91 r13725"
   sodipodi:docname="robot.svg"><metadata
     id="metadata20"><rdf:RDF><cc:Work
         rdf:about=""><dc:format>image/svg+xml</dc:format><dc:type
           rdf:resource="http://purl.org/dc/dcmitype/StillImage" /></cc:Work></rdf:RDF></metadata><defs
     id="defs18" /><sodipodi:namedview
     pagecolor="#ffffff"
     bordercolor="#666666"
     borderopacity="1"
     objecttolerance="10"
     gridtolerance="10"
     guidetolerance="10"
     inkscape:pageopacity="0"
     inkscape:pageshadow="2"
     inkscape:window-width="3840"
     inkscape:window-height="2112"
     id="namedview16"
     showgrid="false"
     inkscape:zoom="0.236"
     inkscape:cx="569.49153"
     inkscape:cy="1008.4746"
     inkscape:window-x="0"
     inkscape:window-y="48"
     inkscape:window-maximized="1"
     inkscape:current-layer="svg2" /><g
     id="g4"><path
       d="M567.242,274.648H420v-53.037c33.405-8.857,58.102-39.341,58.102-75.494c0-43.065-35.036-78.102-78.102-78.102   s-78.102,35.036-78.102,78.102c0,36.153,24.696,66.637,58.102,75.494v53.037H232.758c-68.446,0-124.132,55.685-124.132,124.131   v209.074c0,68.446,55.686,124.131,124.132,124.131h334.484c68.446,0,124.132-55.685,124.132-124.131V398.779   C691.374,330.333,635.688,274.648,567.242,274.648z M254.134,518.646c-32.532,0-59-26.468-59-59s26.468-59,59-59s59,26.468,59,59   S286.666,518.646,254.134,518.646z M454.5,620.823h-109c-11.046,0-20-8.954-20-20s8.954-20,20-20h109c11.046,0,20,8.954,20,20   S465.546,620.823,454.5,620.823z M545.866,518.646c-32.532,0-59-26.468-59-59s26.468-59,59-59s59,26.468,59,59   S578.398,518.646,545.866,518.646z"
       id="path6" /><path
       d="M731.374,424.375v172.719c27.298-19.023,45.199-50.638,45.199-86.359S758.672,443.398,731.374,424.375z"
       id="path8" /><path
       d="M23.427,510.734c0,35.722,17.901,67.336,45.199,86.359V424.375C41.328,443.398,23.427,475.013,23.427,510.734z"
       id="path10" /></g></svg>